<svg width="349" height="386" viewBox="0 0 349 386" fill="none" xmlns="http://www.w3.org/2000/svg">
<g opacity="0.5">
<path d="M233.108 324.359C200.639 324.359 184.018 335.609 168.17 346.233C153.095 356.545 138.794 366.232 109.804 366.232C98.5944 366.232 89.3177 364.67 81.587 362.482C78.4948 361.545 76.1756 364.982 79.2678 366.232C84.2928 368.732 88.9311 370.919 92.7965 372.482C95.5022 373.419 98.2079 374.044 101.3 374.357C104.006 374.669 106.712 374.669 109.804 374.669C142.273 374.669 158.893 363.42 174.741 352.795C189.816 342.483 204.118 332.796 233.108 332.796C262.097 332.796 276.399 342.483 291.474 352.795C292.247 353.42 293.02 353.733 293.793 354.358C295.726 355.608 298.818 355.608 300.364 354.358C302.683 352.483 302.683 349.67 299.978 348.108C299.204 347.483 298.431 347.17 297.658 346.546C282.197 335.296 265.963 324.359 233.108 324.359Z" fill="#E4EBEC"/>
<path d="M233.108 282.799C200.639 282.799 184.019 294.048 168.171 304.673C153.096 314.985 138.794 324.672 109.804 324.672C80.8146 324.672 66.5129 314.985 51.4381 304.673C42.5479 298.735 33.6577 292.486 21.6752 288.423C17.8099 286.861 13.558 290.298 14.7176 293.736C15.1042 294.985 16.2638 295.61 17.4234 296.235C27.8597 299.985 35.9769 305.61 44.4806 311.235C60.3284 321.859 76.5627 333.109 109.418 333.109C142.273 333.109 158.507 321.859 174.355 311.235C189.43 300.923 203.732 291.236 232.722 291.236C261.711 291.236 276.013 300.923 291.088 311.235C299.978 317.172 308.868 323.422 320.851 327.796C323.17 328.734 325.876 327.796 327.035 326.234C328.581 324.047 327.422 321.234 324.716 320.297C313.893 316.547 305.776 310.922 297.272 305.297C282.198 294.048 265.963 282.799 233.108 282.799Z" fill="#E4EBEC"/>
<path d="M301.524 260.299C285.29 249.675 268.283 238.426 234.268 238.426C200.253 238.426 183.632 249.675 167.011 260.299C151.163 270.611 136.475 280.298 106.326 280.298C76.1762 280.298 61.488 270.611 45.6402 260.299C34.4308 253.112 23.2214 245.613 6.60053 241.55C3.12175 240.613 -0.35704 243.113 0.0294921 246.238C0.416024 247.8 1.96215 249.05 3.50828 249.675C18.1965 253.425 28.2463 259.987 38.6827 266.862C54.917 277.486 71.9244 288.736 105.939 288.736C139.567 288.736 156.575 277.486 173.196 266.862C189.044 256.55 203.732 246.863 233.881 246.863C264.031 246.863 278.719 256.55 294.567 266.862C307.709 275.299 320.851 284.048 342.883 287.486C345.202 287.798 347.908 286.548 348.681 284.673C349.454 282.173 347.908 279.986 344.816 279.361C325.876 275.924 314.28 268.424 301.524 260.299Z" fill="#E4EBEC"/>
<path d="M167.011 382.794C165.852 383.731 170.49 385.606 175.128 385.918C177.061 386.231 178.994 385.606 180.54 384.669C193.295 376.231 207.597 369.357 231.949 369.357C243.545 369.357 252.821 370.919 260.552 373.419C261.712 373.732 263.258 373.732 264.804 373.419C268.669 371.857 268.669 367.169 264.804 365.919C255.914 363.107 245.091 361.232 231.949 361.232C199.093 360.92 182.859 372.169 167.011 382.794Z" fill="#E4EBEC"/>
<path d="M67.2867 194.99L171.264 157.18C172.423 156.555 173.969 157.492 173.969 158.742V236.238C173.969 237.488 175.902 238.113 177.062 237.488C178.994 236.238 181.314 234.988 183.246 234.051C183.633 233.739 184.019 233.426 184.019 232.801V157.805C184.019 156.555 185.565 155.93 186.725 156.242L293.021 194.99C294.181 195.303 294.567 196.553 293.794 197.178C286.837 205.927 277.947 215.614 267.51 224.676C266.737 225.614 267.124 226.864 268.283 227.176C270.602 227.801 272.535 228.739 274.468 229.364C275.241 229.676 276.014 229.676 276.787 229.051C280.266 225.926 283.745 222.802 287.223 219.364C311.188 194.99 323.944 171.242 324.33 169.992L325.49 167.804C325.877 167.179 325.49 166.242 324.717 165.929L255.141 138.118C254.368 137.806 253.982 137.181 253.982 136.556V91.558C253.982 90.933 253.595 90.3081 252.822 89.9956L234.268 84.9958C233.495 84.6833 233.109 84.0584 233.109 83.4334V37.1857C233.109 36.2482 232.336 35.6233 231.176 35.6233H186.339C185.179 35.6233 184.406 34.9983 184.406 34.0608V1.56242C184.406 0.624969 183.633 0 182.473 0H175.902C174.743 0 173.969 0.624969 173.969 1.56242V34.3733C173.969 35.3108 173.196 35.9357 172.037 35.9357H130.291C129.132 35.9357 128.359 36.5607 128.359 37.4982V82.496C128.359 83.1209 127.972 83.7459 126.813 84.0584L104.78 89.6831C104.007 89.9956 103.234 90.6206 103.234 91.2455V139.056C103.234 139.681 102.848 140.306 102.075 140.306L36.3642 166.867C35.5911 167.179 35.2046 168.117 35.5911 168.742L36.7507 170.929C37.1372 171.867 49.8928 195.615 74.2443 219.677C92.7978 238.113 112.511 251.55 133.384 259.987C133.77 260.3 134.543 260.3 134.93 259.987C137.635 259.05 140.341 258.112 143.047 257.175C144.593 256.55 144.207 254.987 143.047 254.363C109.419 242.488 83.521 217.489 66.9002 197.178C65.7406 196.553 66.1271 195.615 67.2867 194.99ZM186.339 44.0603H220.353C221.513 44.0603 222.286 44.6853 222.286 45.6228V79.6836C222.286 80.621 221.126 81.5585 219.58 81.246L185.565 72.184C184.792 71.8715 184.406 71.2465 184.406 70.6215V45.3103C184.406 44.6853 185.179 44.0603 186.339 44.0603ZM186.725 81.5585L241.999 96.2453C242.772 96.5578 243.159 97.1827 243.159 97.8077V131.244C243.159 132.493 241.613 133.118 240.453 132.806L185.179 110.62C184.406 110.307 184.019 109.682 184.019 109.057V82.8084C184.406 81.871 185.565 81.246 186.725 81.5585ZM187.112 120.619L310.802 170.304C311.575 170.617 312.348 171.554 311.575 172.492C309.256 176.241 305.777 181.554 301.525 187.803C301.138 188.428 299.979 188.741 299.206 188.428L185.179 146.555C184.406 146.243 184.019 145.618 184.019 144.993V121.869C184.406 120.932 185.565 119.994 187.112 120.619ZM140.728 44.0603H172.037C173.196 44.0603 173.969 44.6853 173.969 45.6228V70.934C173.969 71.559 173.583 72.184 172.423 72.4964L141.114 80.3086C139.955 80.621 138.409 79.9961 138.409 78.7461V45.6228C138.795 44.6853 139.568 44.0603 140.728 44.0603ZM115.603 95.6203L171.65 81.5585C172.81 81.246 174.356 81.871 174.356 83.1209V110.307C174.356 110.932 173.969 111.557 173.196 111.557L116.763 134.368C115.603 134.993 114.057 134.056 114.057 133.118V96.8702C114.057 96.2453 114.444 95.6203 115.603 95.6203ZM49.8928 170.929L171.264 121.869C172.423 121.244 173.969 122.182 173.969 123.119V146.243C173.969 146.868 173.583 147.493 172.81 147.805L61.4887 188.428C60.7157 188.741 59.5561 188.428 59.1695 187.803C54.9177 181.866 51.4389 176.554 49.5062 173.117C48.3466 172.179 48.7332 171.242 49.8928 170.929Z" fill="#E4EBEC"/>
</g>
</svg>
