<svg width="78" height="82" viewBox="0 0 78 82" xmlns="http://www.w3.org/2000/svg" fill="none"><path fill="#fff" d="M0 0h78v82h-78z"/><path d="M16.312 54.134c-.98 0-1.922.245-2.758.704-4.403-5.644-6.819-12.655-6.819-19.838 0-17.792 14.474-32.266 32.266-32.266 2.163 0 4.325.215 6.426.64.739.15 1.461-.329 1.611-1.069.15-.74-.329-1.461-1.069-1.611-2.279-.46-4.623-.694-6.967-.694-9.349 0-18.138 3.641-24.749 10.251-6.611 6.611-10.251 15.4-10.251 24.749 0 7.864 2.67 15.538 7.532 21.691-.626.935-.962 2.034-.962 3.185 0 1.534.598 2.976 1.682 4.06 1.084 1.085 2.526 1.682 4.06 1.682 1.534 0 2.976-.598 4.061-1.682s1.682-2.527 1.682-4.06c0-1.533-.597-2.976-1.682-4.06-1.085-1.085-2.527-1.682-4.061-1.682zm2.127 7.869c-.568.568-1.323.881-2.127.881-.803 0-1.558-.313-2.127-.881-.568-.568-.881-1.323-.881-2.127 0-.804.313-1.559.881-2.127.568-.568 1.323-.881 2.127-.881.803 0 1.558.313 2.127.881.568.568.881 1.323.881 2.127 0 .803-.313 1.558-.881 2.127zm48.028-48.696c1.486-2.23 1.248-5.278-.718-7.244-1.085-1.084-2.527-1.682-4.06-1.682-1.534 0-2.976.598-4.06 1.682-1.085 1.085-1.682 2.527-1.682 4.06 0 1.534.597 2.976 1.682 4.06 1.085 1.085 2.527 1.682 4.06 1.682.98 0 1.922-.245 2.758-.704 4.403 5.644 6.819 12.655 6.819 19.838 0 17.792-14.474 32.266-32.266 32.266-2.142 0-4.283-.211-6.364-.628-.74-.148-1.461.332-1.609 1.072-.148.741.332 1.461 1.072 1.609 2.257.451 4.579.68 6.901.68 9.349 0 18.138-3.641 24.749-10.251 6.611-6.611 10.251-15.4 10.251-24.749 0-7.864-2.671-15.539-7.533-21.692zm-6.905-1.056c-.568-.568-.881-1.323-.881-2.127 0-.803.313-1.558.881-2.127.568-.568 1.323-.881 2.127-.881.803 0 1.559.313 2.127.881 1.172 1.173 1.172 3.081 0 4.254-.568.568-1.324.881-2.127.881-.804 0-1.559-.313-2.127-.881zm-26.204 46.265c0 .755.613 1.367 1.367 1.367h8.549c.755 0 1.367-.612 1.367-1.367v-2.651c1.798-.484 3.516-1.196 5.131-2.127l1.871 1.871c.256.256.604.4.967.4.362 0 .71-.144.967-.401l6.042-6.047c.534-.534.534-1.4 0-1.933l-1.869-1.869c.93-1.615 1.643-3.334 2.127-5.131h2.64c.755 0 1.367-.612 1.367-1.367v-8.549c0-.755-.612-1.367-1.367-1.367h-2.641c-.484-1.797-1.196-3.516-2.126-5.131l1.859-1.859c.256-.256.401-.605.401-.967-.001-.363-.145-.711-.401-.967l-6.047-6.042c-.534-.534-1.399-.534-1.933.001l-1.856 1.857c-1.615-.93-3.334-1.643-5.131-2.127v-2.626c0-.755-.612-1.367-1.367-1.367h-8.549c-.755 0-1.367.612-1.367 1.367v2.627c-1.797.483-3.516 1.196-5.131 2.126l-1.857-1.857c-.534-.534-1.399-.534-1.933-.001l-6.047 6.043c-.257.256-.401.604-.401.967s.144.711.401.967l1.859 1.859c-.93 1.615-1.643 3.333-2.127 5.131h-2.636c-.755 0-1.367.612-1.367 1.367l-.005 8.549c-.001.363.144.711.4.967s.604.401.967.401h2.64c.484 1.798 1.196 3.516 2.127 5.131l-1.869 1.869c-.534.534-.534 1.399 0 1.933l6.042 6.047c.256.256.604.401.967.401h.001c.363 0 .71-.144.967-.4l1.871-1.871c1.616.93 3.334 1.643 5.131 2.127v2.651zm-4.595-7.653c-.541-.35-1.253-.274-1.709.182l-1.665 1.665-4.11-4.113 1.663-1.664c.456-.456.531-1.167.182-1.708-1.24-1.918-2.111-4.021-2.59-6.25-.136-.63-.692-1.08-1.337-1.08h-2.348l.003-5.814h2.345c.645 0 1.201-.45 1.337-1.08.479-2.229 1.35-4.331 2.59-6.25.35-.541.274-1.253-.182-1.708l-1.652-1.653 4.113-4.11 1.651 1.651c.456.456 1.167.531 1.709.182 1.918-1.24 4.02-2.111 6.25-2.59.63-.136 1.08-.693 1.08-1.337v-2.335h5.814v2.334c0 .645.45 1.202 1.08 1.337 2.229.479 4.332 1.35 6.25 2.59.541.35 1.253.274 1.708-.182l1.651-1.651 4.113 4.11-1.652 1.652c-.456.456-.531 1.168-.182 1.709 1.239 1.918 2.111 4.021 2.59 6.25.135.63.692 1.08 1.337 1.08h2.349v5.814h-2.349c-.645 0-1.201.45-1.337 1.08-.479 2.229-1.35 4.332-2.59 6.249-.35.542-.274 1.254.182 1.709l1.663 1.663-4.11 4.113-1.665-1.664c-.456-.456-1.168-.531-1.709-.182-1.918 1.24-4.021 2.111-6.25 2.59-.63.136-1.08.692-1.08 1.337v2.359h-5.814v-2.359c0-.644-.45-1.201-1.08-1.337-2.229-.479-4.331-1.35-6.25-2.59zm21.534-15.863c0-6.229-5.068-11.297-11.297-11.297-6.229 0-11.297 5.068-11.297 11.297 0 6.229 5.068 11.297 11.297 11.297 6.229 0 11.297-5.068 11.297-11.297zm-19.859 0c0-4.722 3.841-8.563 8.563-8.563s8.563 3.841 8.563 8.563c0 4.721-3.841 8.563-8.563 8.563s-8.563-3.841-8.563-8.563zm21.151-29.829c.36 0 .712-.146.967-.401.254-.256.401-.608.401-.968 0-.358-.146-.711-.401-.967-.254-.254-.607-.401-.967-.401-.361 0-.712.146-.966.401-.255.256-.401.607-.401.967 0 .361.146.712.401.968.254.254.605.401.966.401zm-25.118 59.683c-.359 0-.712.146-.967.4-.254.254-.401.607-.401.967 0 .361.146.713.401.967.254.254.607.4.967.4.359 0 .712-.146.967-.4.254-.254.401-.607.401-.967 0-.359-.146-.712-.401-.967-.254-.254-.607-.4-.967-.4z" fill="#CAA45D"/></svg>