<svg width="78" height="82" viewBox="0 0 78 82" xmlns="http://www.w3.org/2000/svg" fill="none"><path fill="#fff" d="M0 0h78v82h-78z"/><path d="M72.8 0h-59.8c-2.872 0-5.2 2.328-5.2 5.2v41.6h-6.5c-.718 0-1.3.582-1.3 1.3 0 2.872 2.328 5.2 5.2 5.2h37.7v15.6c0 .718.582 1.3 1.3 1.3.345 0 .675-.137.919-.381l6.881-6.881 6.881 6.881c.244.244.574.381.919.381.171.001.34-.033.498-.099.486-.201.802-.675.802-1.201v-15.6h3.9c2.872 0 5.2-2.328 5.2-5.2v-41.6h6.5c.718 0 1.3-.582 1.3-1.3 0-2.872-2.328-5.2-5.2-5.2zm-5.2 5.2v41.6h-5.2v2.6h4.85c-.464.804-1.322 1.3-2.25 1.3h-3.9v-1.3h-2.6v16.362l-5.581-5.581c-.508-.508-1.331-.508-1.838 0l-5.581 5.581v-16.362h-2.6v1.3h-37.7c-.928-.001-1.786-.496-2.25-1.3h38.65v-2.6h-31.2v-41.6c0-1.436 1.164-2.6 2.6-2.6h55.323c-.468.787-.717 1.684-.723 2.6zm2.95-1.3c.719-1.243 2.31-1.667 3.553-.948.393.228.72.555.948.948h-4.501zM64.255 40.684l-1.665-2.983 1.672-2.981c.352-.626.131-1.418-.495-1.771l-.097-.049-3.103-1.421-.4-3.393c-.085-.713-.731-1.222-1.444-1.137l-.099.016-3.351.664-2.318-2.51c-.519-.527-1.367-.534-1.894-.015l-.015.015-2.318 2.51-3.351-.664c-.704-.139-1.388.319-1.528 1.023l-.016.099-.4 3.393-3.103 1.424c-.653.299-.94 1.07-.641 1.723l.049.097 1.672 2.978-1.672 2.981c-.352.626-.131 1.418.495 1.771l.097.049 3.103 1.424.4 3.396c.085.713.731 1.222 1.444 1.138l.099-.016 3.351-.664 2.318 2.51c.488.527 1.31.559 1.837.071l.071-.071 2.318-2.51 3.351.664c.355.073.725-.009 1.017-.224.291-.214.479-.54.52-.898l.4-3.393 3.103-1.424c.653-.299.94-1.07.641-1.723l-.049-.097zm-4.289-2.349l1.338 2.387-2.486 1.14c-.412.189-.696.579-.749 1.03l-.32 2.721-2.687-.532c-.443-.092-.901.056-1.206.39l-1.856 2.012-1.856-2.01c-.246-.266-.592-.417-.954-.417l-.252.026-2.687.532-.32-2.721c-.053-.45-.337-.84-.749-1.03l-2.486-1.14 1.338-2.387c.224-.396.229-.878 0-1.271v.005l-1.338-2.387 2.486-1.14c.412-.189.696-.579.749-1.03l.32-2.721 2.687.532c.443.091.901-.057 1.206-.39l1.856-2.016 1.856 2.01c.305.334.764.482 1.206.39l2.687-.532.32 2.721c.053.45.337.84.749 1.03l2.486 1.14-1.338 2.387c-.221.395-.221.877 0 1.271zM52 31.2c-3.59 0-6.5 2.91-6.5 6.5.004 3.588 2.912 6.496 6.5 6.5 3.59 0 6.5-2.91 6.5-6.5s-2.91-6.5-6.5-6.5zm0 10.4c-2.154 0-3.9-1.746-3.9-3.9s1.746-3.9 3.9-3.9 3.9 1.746 3.9 3.9-1.746 3.9-3.9 3.9zM49.4 7.8h-20.8v2.6h20.8v-2.6zM62.4 15.6h-46.8v2.6h46.8v-2.6zM62.4 20.8h-46.8v2.6h46.8v-2.6zM33.8 37.7h-16.9v2.6h16.9v-2.6z" fill="#CAA45D"/></svg>