<svg width="78" height="82" viewBox="0 0 78 82" xmlns="http://www.w3.org/2000/svg" fill="none"><path fill="#fff" d="M0 0h78v82h-78z"/><path d="M69.789 36.14c.668 0 1.211-.544 1.211-1.214v-19.034c0-1.538-1.25-2.79-2.786-2.79h-4.751v-3.76c0-1.54-1.248-2.791-2.786-2.791h-4.906v-3.761c0-1.538-1.25-2.791-2.786-2.791h-33.433c-.669 0-1.211.544-1.211 1.213 0 .67.543 1.214 1.212 1.214h33.433c.2 0 .363.163.363.364v63.316c0 .2-.164.364-.364.364h-43.2c-.2 0-.363-.163-.363-.364v-63.316c0-.201.163-.364.363-.364h4.922c.668 0 1.211-.544 1.211-1.214 0-.669-.543-1.213-1.211-1.213h-4.922c-1.536 0-2.786 1.252-2.786 2.791v63.316c0 1.538 1.25 2.79 2.786 2.79h4.908v3.76c0 1.54 1.248 2.791 2.784 2.791h4.751v3.761c0 1.538 1.25 2.791 2.785 2.791h43.2c1.536 0 2.786-1.252 2.786-2.791v-39.429c0-.669-.543-1.213-1.211-1.213-.67 0-1.212.544-1.212 1.213v39.429c0 .201-.163.364-.363.364h-43.2c-.2 0-.363-.163-.363-.364v-3.761h36.027c1.538 0 2.786-1.251 2.786-2.791v-16.78c0-.669-.542-1.213-1.212-1.213-.669 0-1.211.544-1.211 1.213v16.78c0 .201-.162.364-.364.364h-43.2c-.2 0-.362-.163-.362-.364v-3.76h35.87c1.536 0 2.786-1.252 2.786-2.79v-57.128h4.906c.202 0 .364.163.364.364v41.682c0 .671.542 1.213 1.211 1.213.67 0 1.212-.542 1.212-1.213v-35.495h4.751c.2 0 .363.163.363.364v19.034c0 .67.541 1.214 1.212 1.214zm-31.569-24.128c0-3.775-3.066-6.846-6.834-6.846s-6.834 3.071-6.834 6.846 3.066 6.845 6.834 6.845 6.834-3.07 6.834-6.845zm-11.245 0c0-2.437 1.979-4.419 4.411-4.419 2.432 0 4.411 1.983 4.411 4.419 0 2.437-1.979 4.419-4.411 4.419-2.432 0-4.411-1.983-4.411-4.419zm20.937 1.213c.669 0 1.212-.543 1.212-1.213 0-.671-.542-1.214-1.212-1.214h-5.679c-.669 0-1.211.543-1.211 1.214 0 .67.542 1.213 1.211 1.213h5.679zm-27.373-2.427h-5.679c-.669 0-1.211.543-1.211 1.214 0 .67.543 1.213 1.211 1.213h5.679c.669 0 1.211-.543 1.211-1.213 0-.671-.542-1.214-1.211-1.214zm-4.09 12.73c0 .67.542 1.213 1.211 1.213h27.454c.669 0 1.211-.543 1.211-1.213 0-.671-.542-1.214-1.211-1.214h-27.454c-.669 0-1.211.543-1.211 1.214zm28.664 4.67h-27.453c-.669 0-1.211.543-1.211 1.213s.542 1.213 1.211 1.213h27.453c.67 0 1.212-.543 1.212-1.213s-.542-1.213-1.212-1.213zm0 5.883h-27.453c-.669 0-1.211.543-1.211 1.213 0 .671.542 1.214 1.211 1.214h27.453c.67 0 1.212-.543 1.212-1.214 0-.67-.542-1.213-1.212-1.213zm0 5.884h-27.453c-.669 0-1.211.543-1.211 1.214 0 .67.542 1.213 1.211 1.213h27.453c.67 0 1.212-.543 1.212-1.213 0-.671-.542-1.214-1.212-1.214zm0 5.883h-27.453c-.669 0-1.211.543-1.211 1.214 0 .67.542 1.213 1.211 1.213h27.453c.67 0 1.212-.543 1.212-1.213 0-.671-.542-1.214-1.212-1.214zm.525 6.159c-.518-.425-1.28-.349-1.705.169l-5.782 7.064-2.68-2.631c-.478-.469-1.245-.461-1.713.017-.468.479-.46 1.247.018 1.715l3.001 2.947c.843.828 2.213.753 2.962-.161l6.068-7.412c.424-.518.349-1.283-.169-1.708z" fill="#CAA45D"/></svg>