<svg width="56" height="59" viewBox="0 0 56 59" xmlns="http://www.w3.org/2000/svg" color="inherit" fill="none"><path d="M43.612 45.383h-24.176c-.48 0-.87.39-.87.87s.389.87.87.87h24.176c.481 0 .87-.389.87-.87 0-.48-.389-.87-.87-.87zm0-6.109h-24.176c-.48 0-.87.389-.87.87s.389.87.87.87h24.176c.481 0 .87-.389.87-.87 0-.48-.389-.87-.87-.87zm-25.046-5.244c0 .481.389.87.87.87h15.384c.481 0 .87-.389.87-.87 0-.48-.389-.87-.87-.87h-15.384c-.48 0-.87.389-.87.87zm34.226-22.62l-1.568-1.702v-6.088c0-1.996-1.629-3.62-3.631-3.62h-38.904c-2.002 0-3.631 1.624-3.631 3.62v6.867h-1.591c-1.912 0-3.468 1.557-3.468 3.47v10.529c0 1.913 1.556 3.47 3.468 3.47h1.591v24.263c0 1.996 1.628 3.62 3.631 3.62h1.987c.214 1.74 1.701 3.092 3.499 3.092h37.429c1.946 0 3.529-1.581 3.529-3.525v-37.571c0-3.075-.093-3.98-2.341-6.425zm.566 4.635h-6.516c-.987 0-1.79-.801-1.79-1.785l.006-7.564c1.144.085 1.449.423 2.452 1.538l.55.606 1.663 1.805.018.019 1.771 1.923c1.381 1.502 1.749 2.132 1.846 3.457zm-46.56-12.425c0-1.037.848-1.88 1.891-1.88h38.904c1.043 0 1.891.843 1.891 1.88v4.2l-.145-.157-.535-.59c-1.43-1.59-2.055-2.14-4.614-2.14h-30.015c-1.945 0-3.526 1.581-3.526 3.525v2.03h-3.851v-6.867zm46.596 51.786c0 .984-.803 1.785-1.79 1.785h-37.429c-.985 0-1.787-.801-1.787-1.785v-12.604c0-.48-.389-.87-.87-.87-.48 0-.87.389-.87.87v11.297h-1.96c-1.043 0-1.891-.844-1.891-1.88v-24.264h3.851v10.863c0 .48.389.87.87.87s.87-.389.87-.87v-10.863h4.515c.48 0 .869-.389.869-.87 0-.48-.389-.87-.869-.87h-13.436c-.953 0-1.728-.776-1.728-1.73v-10.529c0-.954.775-1.73 1.728-1.73h22.906c.955 0 1.731.776 1.731 1.73v10.529c0 .954-.777 1.73-1.731 1.73h-5.486c-.481 0-.87.389-.87.87s.389.87.87.87h5.486c1.914 0 3.471-1.557 3.471-3.47v-10.529c0-1.913-1.557-3.47-3.471-3.47h-13.986v-2.03c0-.985.802-1.785 1.787-1.785h29.144l-.006 7.588c0 1.944 1.584 3.525 3.529 3.525h6.552v37.621zm-44.687-39.909h-2.083c-.256 0-.473.089-.652.269-.179.179-.268.4-.268.663v6.16c0 .256.088.471.263.646.175.176.384.264.625.264s.45-.088.625-.264c.176-.175.263-.384.263-.625v-1.786h1.338c.812 0 1.462-.243 1.952-.729s.735-1.124.735-1.913c0-.796-.259-1.443-.778-1.94-.519-.497-1.192-.745-2.018-.745zm.647 3.453c-.212.212-.46.318-.745.318h-1.129v-2.181h1.14c.3 0 .55.108.751.323.201.216.301.477.301.784 0 .292-.106.544-.318.756zm9.439-1.365c-.259-.566-.623-1.021-1.091-1.365-.651-.475-1.491-.712-2.522-.712h-1.831c-.256 0-.472.091-.647.274-.176.183-.263.391-.263.625v6.105c0 .263.084.478.252.647.183.161.406.241.669.241h1.974c1.067 0 1.922-.289 2.566-.866.855-.781 1.283-1.816 1.283-3.101 0-.665-.13-1.28-.389-1.847zm-2.012 3.568c-.38.431-.884.646-1.513.646h-1.053v-4.68h.954c.673 0 1.204.208 1.596.625.391.416.586.979.586 1.688 0 .716-.19 1.29-.57 1.721zm4.444 2.367c.248 0 .459-.088.63-.263.172-.175.258-.384.258-.624v-2.356h1.689c.241 0 .442-.078.603-.236.161-.157.241-.345.241-.565 0-.226-.082-.418-.247-.575-.165-.157-.364-.236-.598-.236h-1.689v-1.546h1.996c.227 0 .417-.08.57-.241.154-.16.23-.347.23-.559 0-.234-.078-.429-.236-.586-.157-.157-.345-.236-.565-.236h-2.873c-.256 0-.472.091-.647.274-.175.183-.263.395-.263.636v6.225c0 .241.091.45.274.625.183.175.391.263.625.263z" fill="currentColor"/></svg>