<svg width="10" height="7" viewBox="0 0 10 7" xmlns="http://www.w3.org/2000/svg" fill="none"><path d="M9.121 0h-8.242c-.135 0-.262.029-.377.077l4.478 3.919 1.004-.844 3.513-3.075c-.115-.048-.241-.077-.377-.077zM9.912.44l-3.306 2.894 3.306 2.894c.055-.1.088-.211.088-.33v-5.128c0-.118-.033-.229-.088-.329zM.088.44c-.055.1-.088.211-.088.33v5.128c0 .118.033.229.088.329l3.306-2.894-3.306-2.894zM6.191 3.696l-1.004.844c-.057.05-.132.075-.207.075-.075 0-.15-.025-.207-.075l-.965-.844-3.306 2.894c.115.048.241.077.377.077h8.242c.135 0 .262-.029.377-.077l-3.306-2.894z" fill="#E5E5E5"/></svg>