<svg width="10" height="10" viewBox="0 0 10 10" fill="none" xmlns="http://www.w3.org/2000/svg">
<path d="M7.86912 5.96102C7.66509 5.73477 7.41899 5.6138 7.15817 5.6138C6.89945 5.6138 6.65125 5.73253 6.4388 5.95878L5.77412 6.66443C5.71943 6.63306 5.66474 6.60394 5.61216 6.57482C5.53643 6.5345 5.46492 6.49642 5.40392 6.45609C4.78131 6.03495 4.21549 5.48611 3.67281 4.77599C3.40988 4.42204 3.23319 4.1241 3.10488 3.82168C3.27736 3.65367 3.43722 3.47894 3.59288 3.31093C3.65177 3.24821 3.71067 3.18324 3.76956 3.12052C4.21128 2.65009 4.21128 2.04077 3.76956 1.57034L3.19533 0.958781C3.13013 0.889337 3.06282 0.817652 2.99971 0.745968C2.87351 0.607079 2.74099 0.46371 2.60427 0.329301C2.40024 0.114247 2.15624 0 1.89963 0C1.64301 0 1.39481 0.114247 1.18447 0.329301C1.18236 0.331541 1.18236 0.331541 1.18026 0.333781L0.465097 1.10215C0.195859 1.38889 0.0423099 1.73835 0.00865525 2.14382C-0.0418268 2.79794 0.139067 3.40726 0.277893 3.806C0.618646 4.78495 1.12767 5.6922 1.88701 6.66443C2.8083 7.83602 3.9168 8.7612 5.18306 9.41308C5.66685 9.65726 6.3126 9.94624 7.03407 9.99552C7.07824 9.99776 7.12451 10 7.16658 10C7.65247 10 8.06053 9.81407 8.38025 9.44444C8.38236 9.43996 8.38656 9.43772 8.38867 9.43324C8.49805 9.29211 8.62425 9.16443 8.75677 9.02778C8.84721 8.93593 8.93976 8.83961 9.03021 8.7388C9.23845 8.50806 9.34783 8.23925 9.34783 7.96371C9.34783 7.68593 9.23634 7.41935 9.0239 7.19534L7.86912 5.96102Z" fill="#E5E5E5"/>
</svg>
