<svg width="500" height="500" viewBox="0 0 500 500" fill="none" xmlns="http://www.w3.org/2000/svg">
<path d="M500 0H0V500H500V0Z" fill="#E4EBEC"/>
<path d="M213.394 246.159C213.425 245.684 213.51 245.214 213.648 244.758C213.813 244.247 214.037 243.756 214.315 243.297L215.864 243.39C215.563 243.829 215.314 244.302 215.123 244.798C214.957 245.239 214.858 245.702 214.829 246.173C214.785 246.74 214.876 247.31 215.096 247.834C215.297 248.321 215.633 248.74 216.064 249.042C216.504 249.344 217.02 249.517 217.552 249.543C218.088 249.588 218.627 249.484 219.107 249.242C219.574 249.002 219.961 248.631 220.222 248.175C220.519 247.685 220.695 247.131 220.736 246.56C220.762 246.112 220.723 245.662 220.623 245.225C220.466 244.657 220.256 244.105 219.995 243.577L221.544 243.67C221.778 244.165 221.954 244.684 222.071 245.218C222.168 245.758 222.195 246.307 222.151 246.853C222.12 247.683 221.891 248.493 221.483 249.216C221.097 249.887 220.525 250.432 219.835 250.784C219.142 251.143 218.364 251.302 217.586 251.244C216.774 251.207 215.99 250.941 215.323 250.477C214.654 250.028 214.127 249.399 213.801 248.662C213.47 247.872 213.33 247.014 213.394 246.159Z" fill="#C0C0C0"/>
<path d="M220.83 240.494C220.845 240.372 220.884 240.255 220.945 240.148C221.005 240.042 221.087 239.948 221.184 239.873C221.275 239.796 221.381 239.738 221.496 239.704C221.611 239.669 221.732 239.659 221.851 239.673C221.971 239.686 222.087 239.724 222.193 239.783C222.298 239.843 222.39 239.924 222.464 240.02C222.541 240.112 222.598 240.218 222.633 240.333C222.667 240.448 222.678 240.568 222.664 240.687C222.651 240.809 222.612 240.927 222.551 241.034C222.491 241.141 222.409 241.234 222.31 241.308C222.219 241.386 222.113 241.444 221.998 241.479C221.884 241.513 221.763 241.523 221.644 241.508C221.52 241.495 221.401 241.458 221.294 241.397C221.186 241.336 221.091 241.253 221.017 241.154C220.873 240.966 220.806 240.73 220.83 240.494Z" fill="#C0C0C0"/>
<path d="M214.941 233.44C215.092 232.616 215.448 231.843 215.975 231.191L217.396 231.451C216.808 232.053 216.393 232.802 216.195 233.62C216.115 233.953 216.138 234.302 216.262 234.621C216.309 234.74 216.386 234.845 216.485 234.925C216.585 235.006 216.703 235.06 216.829 235.082C217.023 235.092 217.215 235.052 217.389 234.967C217.563 234.882 217.713 234.753 217.823 234.595C217.926 234.488 218.233 234.067 218.744 233.333C219.081 232.803 219.538 232.359 220.079 232.039C220.544 231.803 221.076 231.732 221.587 231.838C221.919 231.887 222.236 232.011 222.514 232.201C222.791 232.391 223.021 232.641 223.188 232.933C223.55 233.58 223.657 234.339 223.488 235.062C223.412 235.525 223.268 235.975 223.061 236.396C222.829 236.824 222.547 237.223 222.221 237.584L220.626 237.297C221.407 236.726 221.964 235.9 222.201 234.962C222.274 234.627 222.244 234.278 222.114 233.961C222.062 233.832 221.977 233.719 221.868 233.632C221.76 233.546 221.631 233.489 221.493 233.467C221.291 233.438 221.084 233.467 220.896 233.549C220.709 233.632 220.548 233.765 220.432 233.934C220.179 234.254 219.865 234.661 219.498 235.168C219.159 235.697 218.702 236.14 218.164 236.463C217.729 236.711 217.222 236.801 216.729 236.717C216.405 236.671 216.097 236.548 215.83 236.359C215.563 236.169 215.345 235.919 215.194 235.629C214.859 234.951 214.77 234.177 214.941 233.44Z" fill="#C0C0C0"/>
<path d="M222.938 229.056C222.968 228.937 223.022 228.827 223.097 228.73C223.171 228.634 223.265 228.554 223.372 228.495C223.475 228.429 223.59 228.386 223.711 228.368C223.832 228.349 223.956 228.356 224.073 228.388C224.252 228.436 224.413 228.536 224.535 228.676C224.657 228.815 224.735 228.988 224.759 229.172C224.783 229.356 224.751 229.543 224.668 229.709C224.585 229.874 224.455 230.012 224.294 230.103C224.19 230.168 224.074 230.21 223.954 230.228C223.833 230.245 223.71 230.237 223.592 230.204C223.352 230.139 223.147 229.982 223.022 229.767C222.897 229.552 222.862 229.296 222.925 229.056H222.938Z" fill="#C0C0C0"/>
<path d="M218.101 221.942L226.109 224.785L225.562 226.333L217.554 223.49L218.101 221.942Z" fill="#C0C0C0"/>
<path d="M225.812 221.021C225.92 220.799 226.112 220.629 226.345 220.547C226.461 220.505 226.583 220.486 226.706 220.491C226.828 220.496 226.949 220.526 227.06 220.578C227.171 220.63 227.27 220.704 227.353 220.795C227.435 220.886 227.499 220.992 227.54 221.108C227.583 221.223 227.603 221.346 227.597 221.47C227.592 221.593 227.562 221.714 227.509 221.825C227.456 221.937 227.381 222.036 227.289 222.118C227.197 222.2 227.09 222.263 226.973 222.302C226.798 222.365 226.609 222.375 226.429 222.331C226.249 222.286 226.087 222.189 225.962 222.051C225.838 221.914 225.757 221.743 225.73 221.559C225.703 221.376 225.732 221.188 225.812 221.021Z" fill="#C0C0C0"/>
<path d="M226.744 207.981L231.015 208.916L231.168 204.551L232.329 203.651L237.548 210.377L236.22 211.358L232.556 206.687H232.516L232.409 210.564L232.229 210.704L228.445 209.85H228.405L232.082 214.608L230.748 215.616L225.549 208.889L226.744 207.981Z" fill="#C0C0C0"/>
<path d="M242.043 200.634L247.382 208.268L245.673 208.602L244.405 206.74L240.695 207.461L240.281 209.656L238.586 209.983L240.388 200.954L242.043 200.634ZM240.928 206.14L243.631 205.612L241.569 202.583L240.928 206.14Z" fill="#C0C0C0"/>
<path d="M253.436 200.014C253.912 200.04 254.385 200.12 254.843 200.254C255.356 200.42 255.849 200.644 256.311 200.921L256.231 202.463C255.774 202.158 255.284 201.908 254.77 201.715C254.34 201.563 253.891 201.471 253.436 201.442C252.869 201.406 252.301 201.507 251.781 201.735C251.297 201.944 250.884 202.29 250.593 202.73C250.297 203.174 250.126 203.691 250.099 204.224C250.065 204.76 250.176 205.294 250.419 205.773C250.666 206.238 251.041 206.623 251.501 206.88C251.999 207.155 252.554 207.311 253.122 207.334C253.571 207.357 254.021 207.312 254.456 207.201C255.023 207.028 255.572 206.805 256.098 206.533L256.018 208.082C255.521 208.316 254.999 208.496 254.463 208.615C253.927 208.717 253.38 208.75 252.835 208.715C252.002 208.684 251.187 208.456 250.46 208.048C249.785 207.668 249.236 207.1 248.878 206.413C248.507 205.729 248.336 204.954 248.384 204.178C248.416 203.364 248.675 202.576 249.132 201.902C249.577 201.26 250.195 200.756 250.913 200.447C251.707 200.102 252.572 199.953 253.436 200.014Z" fill="#C0C0C0"/>
<path d="M262.658 201.862L261.25 205.159L265.32 206.894L266.722 203.597L268.237 204.264L264.9 212.099L263.385 211.431L264.793 208.095L260.729 206.36L259.321 209.696L257.806 209.029L261.143 201.195L262.658 201.862Z" fill="#C0C0C0"/>
<path d="M273.454 208.535L267.695 214.808L266.467 213.694L272.233 207.421L273.454 208.535Z" fill="#C0C0C0"/>
<path d="M277.513 213.247L274.951 220.621L280.076 217.611L280.89 218.999L273.549 223.317L272.835 222.095L275.458 214.641L270.253 217.704L269.452 216.316L276.792 212.025L277.513 213.247Z" fill="#C0C0C0"/>
<path d="M284.024 228.362L282.796 228.742L281.662 225.052L279.526 225.719L280.607 229.256L279.373 229.63L278.292 226.099L275.976 226.807L277.137 230.577L275.903 230.958L274.268 225.619L282.409 223.123L284.024 228.362Z" fill="#C0C0C0"/>
<path d="M285.298 234.714C285.446 235.411 285.332 236.138 284.978 236.756C284.807 237.036 284.577 237.274 284.303 237.454C284.03 237.634 283.72 237.751 283.396 237.797C282.945 237.888 282.477 237.831 282.061 237.637C281.633 237.429 281.275 237.099 281.033 236.69C280.93 236.988 280.772 237.264 280.566 237.504C280.228 237.865 279.857 238.193 279.458 238.485C278.53 239.152 277.896 239.673 277.549 239.986L277.242 238.178C277.495 237.942 277.76 237.719 278.036 237.51C278.602 237.094 279.145 236.649 279.665 236.176C279.895 235.966 280.083 235.715 280.219 235.435C280.312 235.207 280.339 234.957 280.299 234.714L280.192 234.12L276.648 234.734L276.367 233.113L284.797 231.678L285.298 234.714ZM281.654 234.968C281.695 235.332 281.871 235.668 282.148 235.909C282.277 236.013 282.428 236.086 282.591 236.123C282.752 236.16 282.921 236.16 283.082 236.122C283.245 236.106 283.402 236.052 283.54 235.964C283.678 235.876 283.793 235.756 283.876 235.615C284.035 235.28 284.075 234.901 283.99 234.541L283.816 233.526L281.474 233.934L281.654 234.968Z" fill="#C0C0C0"/>
<path d="M286.244 241.468L283.575 243.77L286.598 245.598L286.771 247.548L282.22 244.725L278.016 245.105L277.869 243.463L282.087 243.089L286.091 239.479L286.244 241.468Z" fill="#C0C0C0"/>
<path d="M260.039 287.267C254.4 287.267 251.577 289.643 248.841 291.938C246.239 294.127 243.776 296.189 238.784 296.189C233.793 296.189 231.337 294.107 228.741 291.938L228.247 291.525C230.485 294.223 233.308 296.378 236.502 297.824C237.261 297.925 238.026 297.977 238.791 297.978C244.43 297.978 247.26 295.602 249.996 293.306C252.598 291.117 255.061 289.055 260.046 289.055C265.031 289.055 267.493 291.117 270.116 293.306L271.083 294.107C271.53 293.713 271.964 293.3 272.418 292.866C272.031 292.559 271.65 292.239 271.27 291.918C268.507 289.643 265.685 287.267 260.039 287.267Z" fill="#C0C0C0"/>
<path d="M260.042 278.438C254.403 278.438 251.581 280.814 248.845 283.109C246.242 285.292 243.78 287.36 238.788 287.36C233.796 287.36 231.34 285.292 228.738 283.109C226.803 281.488 224.821 279.833 221.844 278.992C222.065 279.726 222.298 280.433 222.512 281.114C224.365 281.946 226.071 283.073 227.563 284.451C230.293 286.746 233.122 289.122 238.761 289.122C244.4 289.122 247.23 286.746 249.966 284.451C252.568 282.269 255.031 280.199 260.016 280.199C265.001 280.199 267.47 282.269 270.072 284.451C271.785 286.058 273.775 287.342 275.945 288.241C276.259 287.734 276.566 287.206 276.859 286.659C274.55 285.878 272.915 284.51 271.22 283.089C268.511 280.813 265.688 278.438 260.042 278.438Z" fill="#C0C0C0"/>
<path d="M271.88 273.593C269.051 271.304 266.121 268.922 260.295 268.922C254.47 268.922 251.54 271.291 248.711 273.593C246.001 275.789 243.439 277.858 238.247 277.858C233.055 277.858 230.492 275.789 227.783 273.593C225.594 271.825 223.339 270.01 219.775 269.276C219.869 269.921 219.969 270.555 220.075 271.178C222.885 271.905 224.747 273.413 226.695 274.981C229.525 277.27 232.448 279.653 238.28 279.653C244.113 279.653 247.036 277.284 249.865 274.981C252.574 272.786 255.13 270.717 260.329 270.717C265.527 270.717 268.083 272.786 270.793 274.981C273.188 276.923 275.664 278.912 279.902 279.479C280.075 278.912 280.249 278.338 280.416 277.744C276.458 277.29 274.223 275.489 271.88 273.593Z" fill="#C0C0C0"/>
<path d="M248.604 299.8L247.864 300.413C248.751 300.467 249.645 300.494 250.533 300.5C252.869 298.578 255.311 296.917 259.789 296.917C261.62 296.877 263.44 297.225 265.127 297.938C265.811 297.638 266.479 297.304 267.129 296.937C264.89 295.683 262.354 295.058 259.789 295.128C254.163 295.128 251.34 297.504 248.604 299.8Z" fill="#C0C0C0"/>
<path d="M231.41 259.706L249.341 251.598C249.392 251.576 249.448 251.567 249.504 251.572C249.559 251.577 249.613 251.595 249.66 251.626C249.706 251.656 249.745 251.697 249.772 251.746C249.799 251.795 249.814 251.849 249.815 251.905V268.455C249.813 268.517 249.83 268.579 249.862 268.633C249.894 268.686 249.94 268.73 249.996 268.759C250.052 268.787 250.114 268.799 250.177 268.794C250.239 268.789 250.299 268.766 250.349 268.728C250.702 268.468 251.069 268.215 251.443 267.968C251.49 267.94 251.529 267.9 251.556 267.852C251.583 267.803 251.597 267.749 251.597 267.694V251.678C251.598 251.62 251.615 251.564 251.644 251.514C251.674 251.465 251.717 251.424 251.767 251.396C251.818 251.367 251.874 251.353 251.932 251.353C251.99 251.354 252.047 251.369 252.097 251.398L270.395 259.706C270.44 259.726 270.479 259.754 270.511 259.79C270.544 259.827 270.567 259.869 270.581 259.916C270.595 259.962 270.599 260.011 270.592 260.059C270.585 260.107 270.568 260.153 270.542 260.193C269.188 262.278 267.664 264.247 265.984 266.079C265.946 266.118 265.919 266.166 265.904 266.218C265.889 266.271 265.888 266.326 265.9 266.379C265.912 266.432 265.937 266.481 265.972 266.522C266.008 266.563 266.053 266.594 266.104 266.613C266.471 266.76 266.825 266.927 267.165 267.094C267.23 267.127 267.303 267.137 267.375 267.124C267.446 267.111 267.511 267.074 267.559 267.02C268.16 266.353 268.754 265.685 269.334 264.945C271.89 261.71 274.045 258.179 275.754 254.428L275.961 253.947C275.994 253.868 275.995 253.779 275.966 253.699C275.936 253.618 275.877 253.552 275.801 253.513L263.789 247.561C263.732 247.533 263.685 247.491 263.652 247.437C263.619 247.384 263.602 247.323 263.602 247.26V237.577C263.602 237.506 263.58 237.437 263.538 237.379C263.496 237.321 263.436 237.279 263.368 237.257L260.152 236.209C260.084 236.188 260.024 236.145 259.982 236.088C259.94 236.03 259.918 235.96 259.918 235.889V225.999C259.918 225.911 259.883 225.826 259.82 225.763C259.758 225.701 259.673 225.666 259.584 225.666H251.937C251.892 225.667 251.848 225.659 251.807 225.642C251.766 225.626 251.728 225.601 251.697 225.57C251.665 225.539 251.64 225.502 251.623 225.461C251.605 225.42 251.597 225.376 251.597 225.332V218.352C251.597 218.263 251.561 218.178 251.499 218.116C251.436 218.053 251.351 218.018 251.263 218.018H250.148C250.06 218.018 249.975 218.053 249.912 218.116C249.85 218.178 249.815 218.263 249.815 218.352V225.332C249.815 225.42 249.78 225.505 249.717 225.568C249.654 225.63 249.57 225.666 249.481 225.666H242.294C242.206 225.667 242.122 225.703 242.06 225.765C241.998 225.827 241.962 225.911 241.96 225.999V235.609C241.961 235.68 241.938 235.75 241.896 235.807C241.854 235.865 241.795 235.908 241.727 235.929L237.936 237.11C237.868 237.132 237.809 237.174 237.767 237.232C237.725 237.29 237.702 237.359 237.703 237.431V247.634C237.703 247.697 237.685 247.758 237.652 247.811C237.619 247.864 237.572 247.907 237.516 247.934L226.071 253.687C225.996 253.726 225.939 253.791 225.911 253.87C225.882 253.949 225.885 254.037 225.918 254.114L226.124 254.601C227.84 258.33 230.004 261.835 232.571 265.038C235.747 268.995 239.198 271.872 242.788 273.62C242.831 273.64 242.877 273.65 242.925 273.65C242.972 273.65 243.018 273.64 243.061 273.62C243.533 273.444 243.994 273.242 244.443 273.013C244.501 272.985 244.55 272.942 244.584 272.887C244.618 272.833 244.636 272.77 244.636 272.706C244.636 272.642 244.618 272.579 244.584 272.524C244.55 272.47 244.501 272.427 244.443 272.399C238.564 269.903 234.079 264.518 231.263 260.193C231.237 260.153 231.22 260.107 231.213 260.059C231.206 260.011 231.21 259.962 231.224 259.916C231.238 259.869 231.261 259.827 231.294 259.79C231.326 259.754 231.365 259.726 231.41 259.706ZM251.937 227.454H257.803C257.891 227.454 257.976 227.489 258.039 227.552C258.101 227.614 258.136 227.699 258.136 227.788V235.088C258.137 235.142 258.125 235.194 258.101 235.242C258.077 235.29 258.042 235.331 257.999 235.362C257.956 235.394 257.906 235.414 257.853 235.422C257.8 235.43 257.746 235.426 257.696 235.409L251.83 233.5C251.762 233.479 251.703 233.436 251.661 233.378C251.619 233.321 251.596 233.251 251.597 233.18V227.788C251.597 227.743 251.605 227.699 251.623 227.658C251.64 227.618 251.665 227.58 251.697 227.549C251.728 227.518 251.766 227.494 251.807 227.478C251.848 227.461 251.892 227.453 251.937 227.454ZM252.037 235.462L261.586 238.572C261.655 238.593 261.714 238.636 261.756 238.694C261.798 238.751 261.82 238.821 261.82 238.892V246.059C261.821 246.117 261.806 246.174 261.779 246.224C261.751 246.275 261.711 246.317 261.661 246.347C261.612 246.378 261.556 246.395 261.499 246.397C261.441 246.399 261.384 246.386 261.333 246.36L251.783 241.635C251.727 241.607 251.68 241.565 251.647 241.512C251.614 241.458 251.596 241.397 251.597 241.335V235.762C251.597 235.71 251.61 235.658 251.635 235.611C251.659 235.564 251.694 235.523 251.737 235.492C251.779 235.461 251.829 235.44 251.881 235.432C251.933 235.423 251.986 235.426 252.037 235.442V235.462ZM252.097 243.777L273.452 254.368C273.491 254.385 273.527 254.411 273.557 254.443C273.586 254.475 273.609 254.513 273.623 254.555C273.638 254.596 273.644 254.64 273.64 254.683C273.637 254.727 273.625 254.769 273.605 254.808C273.231 255.582 272.644 256.737 271.85 258.071C271.808 258.142 271.741 258.195 271.662 258.22C271.583 258.245 271.498 258.239 271.423 258.205L251.797 249.323C251.738 249.296 251.687 249.253 251.652 249.198C251.616 249.144 251.597 249.08 251.597 249.016V244.057C251.598 243.999 251.615 243.943 251.644 243.893C251.674 243.844 251.717 243.803 251.767 243.775C251.818 243.746 251.874 243.732 251.932 243.732C251.99 243.733 252.047 243.748 252.097 243.777ZM244.089 227.454H249.488C249.576 227.454 249.661 227.489 249.724 227.552C249.786 227.614 249.821 227.699 249.821 227.788V233.166C249.822 233.238 249.799 233.307 249.757 233.365C249.715 233.423 249.656 233.465 249.588 233.487L244.182 235.168C244.132 235.184 244.079 235.188 244.027 235.179C243.975 235.171 243.926 235.15 243.884 235.119C243.842 235.087 243.808 235.047 243.784 235C243.76 234.953 243.748 234.901 243.749 234.848V227.788C243.749 227.743 243.758 227.699 243.775 227.658C243.792 227.618 243.817 227.58 243.849 227.549C243.88 227.518 243.918 227.494 243.959 227.478C244.001 227.461 244.045 227.453 244.089 227.454ZM239.718 238.425L249.381 235.415C249.431 235.4 249.484 235.396 249.536 235.405C249.588 235.413 249.637 235.434 249.679 235.465C249.722 235.496 249.756 235.537 249.779 235.584C249.803 235.631 249.815 235.683 249.815 235.736V241.561C249.814 241.624 249.796 241.685 249.763 241.738C249.73 241.791 249.684 241.834 249.628 241.862L239.972 246.727C239.92 246.751 239.864 246.762 239.807 246.759C239.75 246.756 239.695 246.739 239.646 246.709C239.598 246.679 239.557 246.638 239.529 246.588C239.501 246.539 239.486 246.483 239.484 246.426V238.719C239.489 238.652 239.514 238.588 239.556 238.536C239.598 238.484 239.654 238.445 239.718 238.425ZM228.373 254.508L249.328 244.004C249.379 243.979 249.436 243.968 249.493 243.971C249.549 243.974 249.605 243.991 249.653 244.021C249.702 244.051 249.742 244.093 249.77 244.142C249.798 244.192 249.814 244.247 249.815 244.304V249.216C249.813 249.279 249.795 249.34 249.761 249.393C249.726 249.446 249.678 249.489 249.621 249.516L230.375 258.191C230.299 258.226 230.213 258.232 230.133 258.207C230.053 258.183 229.985 258.13 229.942 258.058C229.188 256.77 228.607 255.676 228.247 254.928C228.212 254.853 228.208 254.767 228.235 254.688C228.262 254.61 228.319 254.545 228.393 254.508H228.373Z" fill="#C0C0C0"/>
</svg>
