<svg width="209" height="38" viewBox="0 0 209 38" fill="none" xmlns="http://www.w3.org/2000/svg">
<path d="M45.7216 20.5935C43.6723 20.5935 41.9494 19.9293 40.5528 18.6008C39.1823 17.2593 38.4971 15.5596 38.4971 13.5018C38.4971 11.444 39.1823 9.75086 40.5528 8.42239C41.9103 7.0809 43.6332 6.41016 45.7216 6.41016C47.1182 6.41016 48.3581 6.71622 49.4415 7.32836V9.49689C48.332 8.78056 47.0986 8.42239 45.7411 8.42239C44.3054 8.42239 43.1046 8.90429 42.1387 9.86808C41.1859 10.8188 40.7094 12.0301 40.7094 13.5018C40.7094 14.9736 41.1924 16.1913 42.1583 17.1551C43.1241 18.1059 44.3445 18.5813 45.8194 18.5813C47.3857 18.5813 48.691 18.1645 49.7351 17.3309V19.4995C48.5865 20.2288 47.2487 20.5935 45.7216 20.5935Z" fill="white"/>
<path d="M53.7266 20.4958C53.335 20.4958 53.0022 20.3656 52.7281 20.1051C52.467 19.8316 52.3365 19.4995 52.3365 19.1087C52.3365 18.731 52.467 18.4119 52.7281 18.1515C53.0022 17.878 53.335 17.7412 53.7266 17.7412C54.092 17.7412 54.4118 17.878 54.6859 18.1515C54.96 18.4119 55.0971 18.731 55.0971 19.1087C55.0971 19.4995 54.96 19.8316 54.6859 20.1051C54.4249 20.3656 54.1051 20.4958 53.7266 20.4958Z" fill="white"/>
<path d="M62.1845 20.5935C60.0961 20.5935 58.3797 20.1051 57.0353 19.1283V16.8035C57.5705 17.2723 58.3079 17.6891 59.2477 18.0538C60.1875 18.4054 61.1273 18.5813 62.067 18.5813C62.9937 18.5813 63.7508 18.3989 64.3381 18.0342C64.9385 17.6696 65.2387 17.1746 65.2387 16.5495C65.2387 16.0546 65.0364 15.6313 64.6318 15.2796C64.4752 15.1364 64.2402 14.9996 63.927 14.8694C63.5485 14.687 62.922 14.4721 62.0474 14.2247L61.7733 14.1465C61.0294 13.9381 60.4355 13.7493 59.9917 13.58C59.6393 13.4497 59.1825 13.2218 58.6212 12.8962C57.6814 12.3101 57.2115 11.3919 57.2115 10.1416C57.2115 9.00848 57.6553 8.1033 58.5429 7.42604C59.4435 6.74879 60.6574 6.41016 62.1845 6.41016C63.8421 6.41016 65.304 6.78786 66.5701 7.54326V9.69225C65.1735 8.84568 63.7247 8.42239 62.2237 8.42239C61.31 8.42239 60.6117 8.5852 60.1288 8.9108C59.6589 9.22338 59.4239 9.64015 59.4239 10.1611C59.4239 10.6039 59.6915 11.0142 60.2266 11.3919C60.305 11.444 60.4159 11.5026 60.5595 11.5677C60.7031 11.6198 60.8662 11.6784 61.0489 11.7436C61.2317 11.8087 61.3622 11.8543 61.4405 11.8803L63.0068 12.3296C63.9596 12.6162 64.795 12.9548 65.5128 13.3455C66.7267 13.9967 67.3728 15.0517 67.4511 16.5104C67.4511 17.7738 66.9486 18.7701 65.9436 19.4995C64.9385 20.2288 63.6855 20.5935 62.1845 20.5935Z" fill="white"/>
<path d="M70.7813 20.4958C70.3897 20.4958 70.0569 20.3656 69.7828 20.1051C69.5218 19.8316 69.3912 19.4995 69.3912 19.1087C69.3912 18.731 69.5218 18.4119 69.7828 18.1515C70.0569 17.878 70.3897 17.7412 70.7813 17.7412C71.1468 17.7412 71.4666 17.878 71.7407 18.1515C72.0148 18.4119 72.1518 18.731 72.1518 19.1087C72.1518 19.4995 72.0148 19.8316 71.7407 20.1051C71.4796 20.3656 71.1598 20.4958 70.7813 20.4958Z" fill="white"/>
<path d="M77.1639 20.3395H75.0103V6.66413H77.1639V20.3395Z" fill="white"/>
<path d="M81.4501 20.4958C81.0585 20.4958 80.7257 20.3656 80.4516 20.1051C80.1905 19.8316 80.06 19.4995 80.06 19.1087C80.06 18.731 80.1905 18.4119 80.4516 18.1515C80.7257 17.878 81.0585 17.7412 81.4501 17.7412C81.8155 17.7412 82.1353 17.878 82.4094 18.1515C82.6835 18.4119 82.8206 18.731 82.8206 19.1087C82.8206 19.4995 82.6835 19.8316 82.4094 20.1051C82.1484 20.3656 81.8286 20.4958 81.4501 20.4958Z" fill="white"/>
<path d="M92.8206 20.3395H90.667V6.66413H92.8598L97.3041 12.8181L101.709 6.66413H103.863V20.3395H101.709V9.94622L97.8915 15.1038H96.6384L92.8206 9.94622V20.3395Z" fill="white"/>
<path d="M108.281 20.3395H105.99L111.981 6.58598H114.057L120.048 20.3395H117.737L116.249 16.9402H109.749L108.281 20.3395ZM112.999 9.30153L110.493 15.0452H115.505L112.999 9.30153Z" fill="white"/>
<path d="M127.936 20.5935C125.887 20.5935 124.164 19.9293 122.767 18.6008C121.397 17.2593 120.712 15.5596 120.712 13.5018C120.712 11.444 121.397 9.75086 122.767 8.42239C124.125 7.0809 125.848 6.41016 127.936 6.41016C129.333 6.41016 130.573 6.71622 131.656 7.32836V9.49689C130.547 8.78056 129.313 8.42239 127.956 8.42239C126.52 8.42239 125.319 8.90429 124.353 9.86808C123.4 10.8188 122.924 12.0301 122.924 13.5018C122.924 14.9736 123.407 16.1913 124.373 17.1551C125.339 18.1059 126.559 18.5813 128.034 18.5813C129.6 18.5813 130.906 18.1645 131.95 17.3309V19.4995C130.801 20.2288 129.463 20.5935 127.936 20.5935Z" fill="white"/>
<path d="M136.738 20.3395H134.585V6.66413H136.738V12.0561H143.885V6.66413H146.038V20.3395H143.885V14.0293H136.738V20.3395Z" fill="white"/>
<path d="M151.692 20.3395H149.539V6.66413H151.692V20.3395Z" fill="white"/>
<path d="M157.329 20.3395H155.215V6.66413H157.095L164.828 16.569V6.66413H166.943V20.3395H165.122L157.329 10.3956V20.3395Z" fill="white"/>
<path d="M180.362 20.3395H170.358V6.66413H180.108V8.63729H172.511V12.0561H178.698V14.0293H172.511V18.3664H180.362V20.3395Z" fill="white"/>
<path d="M185.054 20.3395H182.9V6.66413H189.146C190.555 6.66413 191.658 7.02229 192.455 7.73862C193.264 8.46798 193.668 9.40572 193.668 10.5518C193.668 11.5026 193.401 12.3166 192.866 12.9939C192.344 13.6581 191.619 14.1009 190.692 14.3224L195 20.3395H192.396L188.265 14.5568H185.054V20.3395ZM185.054 8.63729V12.6618H189.009C189.792 12.6618 190.399 12.4859 190.83 12.1343C191.273 11.7826 191.495 11.2812 191.495 10.63C191.495 10.0048 191.273 9.51643 190.83 9.16477C190.399 8.81312 189.792 8.63729 189.009 8.63729H185.054Z" fill="white"/>
<path d="M202.717 20.3395H200.563V14.1465L195.257 6.66413H197.763L201.679 12.1929L205.595 6.66413H208.022L202.717 14.0879V20.3395Z" fill="white"/>
<path d="M41.7002 32.3707C40.8294 32.3707 40.098 32.081 39.5061 31.5017C38.9255 30.9224 38.6353 30.1841 38.6353 29.2868C38.6353 28.3951 38.9255 27.6596 39.5061 27.0803C40.0923 26.4954 40.8237 26.2029 41.7002 26.2029C42.3491 26.2029 42.9068 26.3505 43.3735 26.6459V27.2933C42.8499 26.9582 42.295 26.7907 41.7087 26.7907C41.0257 26.7907 40.448 27.0292 39.9756 27.5063C39.5089 27.972 39.2756 28.5655 39.2756 29.2868C39.2756 30.0137 39.5089 30.6101 39.9756 31.0758C40.448 31.5472 41.0314 31.7829 41.7258 31.7829C42.4202 31.7829 43.0121 31.5841 43.5016 31.1865V31.8425C43.0121 32.1946 42.4117 32.3707 41.7002 32.3707Z" fill="white"/>
<path d="M44.7216 34.0063C44.4256 34.0063 44.2065 33.9666 44.0642 33.8871V33.3163C44.2407 33.4072 44.4285 33.4526 44.6277 33.4526C44.8781 33.4526 45.0944 33.3475 45.2765 33.1374C45.4587 32.9329 45.6493 32.5922 45.8485 32.1151L44.013 28.1537H44.696L46.1559 31.391L47.5731 28.1537H48.239L46.1986 32.7285C45.8286 33.5804 45.3363 34.0063 44.7216 34.0063Z" fill="white"/>
<path d="M48.9611 33.4867H48.372V31.7317H48.8928C49.3482 31.1297 49.5815 30.1302 49.5929 28.733L49.6014 28.1537H52.6664V31.7317H53.4348V33.4867H52.8371V32.2684H48.9611V33.4867ZM49.5758 31.7317H52.0517V28.6904H50.1734V28.9375C50.1734 30.1642 49.9742 31.0957 49.5758 31.7317Z" fill="white"/>
<path d="M54.7703 28.6904C55.1858 28.2645 55.7208 28.0515 56.3754 28.0515C57.0299 28.0515 57.5649 28.2645 57.9804 28.6904C58.3959 29.105 58.6037 29.6133 58.6037 30.2154C58.6037 30.8174 58.3959 31.3257 57.9804 31.7403C57.5592 32.1605 57.0242 32.3707 56.3754 32.3707C55.7265 32.3707 55.1915 32.1605 54.7703 31.7403C54.3548 31.3257 54.1471 30.8174 54.1471 30.2154C54.1471 29.6133 54.3548 29.105 54.7703 28.6904ZM57.9719 30.2154C57.9719 29.761 57.8211 29.3776 57.5194 29.0653C57.2177 28.7586 56.8364 28.6053 56.3754 28.6053C55.9144 28.6053 55.533 28.7586 55.2314 29.0653C54.9297 29.3776 54.7789 29.761 54.7789 30.2154C54.7789 30.664 54.9297 31.0445 55.2314 31.3569C55.533 31.6636 55.9144 31.8169 56.3754 31.8169C56.8364 31.8169 57.2177 31.6636 57.5194 31.3569C57.8211 31.0445 57.9719 30.664 57.9719 30.2154Z" fill="white"/>
<path d="M62.0621 32.2684H59.7485V28.1537H61.917C62.3097 28.1537 62.6142 28.2503 62.8305 28.4434C63.0525 28.6308 63.1635 28.8835 63.1635 29.2016C63.1635 29.6446 62.9927 29.9456 62.6512 30.1046C63.1748 30.2579 63.4367 30.6101 63.4367 31.161C63.4367 31.5074 63.3171 31.78 63.0781 31.9788C62.839 32.1719 62.5004 32.2684 62.0621 32.2684ZM60.3632 30.4113V31.7317H61.9341C62.213 31.7317 62.4292 31.675 62.5829 31.5614C62.7366 31.4478 62.8134 31.2859 62.8134 31.0758C62.8134 30.8656 62.7366 30.7038 62.5829 30.5902C62.4292 30.4709 62.213 30.4113 61.9341 30.4113H60.3632ZM60.3632 28.6904V29.9001H61.7462C62.0024 29.9001 62.2016 29.849 62.3439 29.7468C62.4862 29.6389 62.5573 29.4884 62.5573 29.2953C62.5573 28.8921 62.2869 28.6904 61.7462 28.6904H60.3632Z" fill="white"/>
<path d="M69.3885 32.2684H68.7738V28.1537H69.3885V32.2684ZM66.5456 32.2684H64.6759V28.1537H65.2906V29.5338H66.52C66.9981 29.5338 67.3794 29.6588 67.664 29.9087C67.9486 30.1529 68.0908 30.4823 68.0908 30.8969C68.0908 31.3115 67.9542 31.6437 67.681 31.8936C67.4079 32.1435 67.0294 32.2684 66.5456 32.2684ZM65.2906 30.0705V31.7317H66.4346C66.759 31.7317 67.0123 31.6608 67.1944 31.5188C67.3765 31.3711 67.4676 31.1666 67.4676 30.9054C67.4676 30.6385 67.3765 30.434 67.1944 30.292C67.0123 30.1444 66.759 30.0705 66.4346 30.0705H65.2906Z" fill="white"/>
<path d="M72.8093 32.3707C72.1662 32.3707 71.6255 32.1691 71.1872 31.7658C70.7546 31.3683 70.5384 30.8514 70.5384 30.2154C70.5384 29.602 70.7319 29.088 71.1189 28.6734C71.5116 28.2588 72.0153 28.0515 72.63 28.0515C72.9602 28.0515 73.2533 28.1197 73.5094 28.256C73.7655 28.3866 73.9676 28.5598 74.1156 28.7756C74.2635 28.9915 74.3745 29.2215 74.4485 29.4657C74.5225 29.7042 74.5595 29.9456 74.5595 30.1898V30.3602H71.1701C71.2043 30.8032 71.3807 31.1581 71.6995 31.4251C72.0239 31.6863 72.4337 31.8169 72.9289 31.8169C73.407 31.8169 73.8481 31.6892 74.2522 31.4336V31.9788C73.9164 32.24 73.4354 32.3707 72.8093 32.3707ZM71.1787 29.8576H73.9363C73.9192 29.5395 73.7997 29.2527 73.5777 28.9971C73.3671 28.7359 73.0427 28.6053 72.6044 28.6053C72.1946 28.6053 71.8588 28.7302 71.597 28.9801C71.3409 29.2357 71.2014 29.5282 71.1787 29.8576Z" fill="white"/>
<path d="M78.5376 32.2684H77.9656V28.1537H78.5803V31.3654L81.2184 28.1537H81.7904V32.2684H81.1757V29.0653L78.5376 32.2684Z" fill="white"/>
<path d="M86.109 32.2684H85.4943V28.1537H89.1995V32.2684H88.5848V28.6904H86.109V32.2684Z" fill="white"/>
<path d="M91.2615 31.6125V33.9723H90.6468V28.1537H91.2615V28.8097C91.6485 28.3042 92.1807 28.0515 92.858 28.0515C93.467 28.0515 93.965 28.2617 94.352 28.6819C94.7391 29.1022 94.9326 29.6105 94.9326 30.2068C94.9326 30.8088 94.7391 31.32 94.352 31.7403C93.965 32.1605 93.467 32.3707 92.858 32.3707C92.1807 32.3707 91.6485 32.1179 91.2615 31.6125ZM91.2615 29.5338V30.8884C91.381 31.161 91.5745 31.3853 91.842 31.5614C92.1095 31.7317 92.3998 31.8169 92.7128 31.8169C93.1739 31.8169 93.5523 31.6636 93.8483 31.3569C94.15 31.0389 94.3008 30.6555 94.3008 30.2068C94.3008 29.7582 94.15 29.3776 93.8483 29.0653C93.5523 28.7586 93.1739 28.6053 92.7128 28.6053C92.4055 28.6053 92.1181 28.6933 91.8505 28.8693C91.583 29.0397 91.3867 29.2612 91.2615 29.5338Z" fill="white"/>
<path d="M96.3988 28.6904C96.8143 28.2645 97.3493 28.0515 98.0039 28.0515C98.6584 28.0515 99.1934 28.2645 99.6089 28.6904C100.024 29.105 100.232 29.6133 100.232 30.2154C100.232 30.8174 100.024 31.3257 99.6089 31.7403C99.1877 32.1605 98.6527 32.3707 98.0039 32.3707C97.355 32.3707 96.82 32.1605 96.3988 31.7403C95.9833 31.3257 95.7756 30.8174 95.7756 30.2154C95.7756 29.6133 95.9833 29.105 96.3988 28.6904ZM99.6004 30.2154C99.6004 29.761 99.4495 29.3776 99.1479 29.0653C98.8462 28.7586 98.4649 28.6053 98.0039 28.6053C97.5428 28.6053 97.1615 28.7586 96.8598 29.0653C96.5582 29.3776 96.4074 29.761 96.4074 30.2154C96.4074 30.664 96.5582 31.0445 96.8598 31.3569C97.1615 31.6636 97.5428 31.8169 98.0039 31.8169C98.4649 31.8169 98.8462 31.6636 99.1479 31.3569C99.4495 31.0445 99.6004 30.664 99.6004 30.2154Z" fill="white"/>
<path d="M101.975 32.2684H101.377V28.1537H101.975L103.622 30.062L105.279 28.1537H105.876V32.2684H105.279V28.9971L103.742 30.7776H103.503L101.975 28.9971V32.2684Z" fill="white"/>
<path d="M112.043 32.2684H111.428V28.1537H112.043V32.2684ZM109.2 32.2684H107.33V28.1537H107.945V29.5338H109.174C109.652 29.5338 110.033 29.6588 110.318 29.9087C110.603 30.1529 110.745 30.4823 110.745 30.8969C110.745 31.3115 110.608 31.6437 110.335 31.8936C110.062 32.1435 109.683 32.2684 109.2 32.2684ZM107.945 30.0705V31.7317H109.089C109.413 31.7317 109.666 31.6608 109.848 31.5188C110.031 31.3711 110.122 31.1666 110.122 30.9054C110.122 30.6385 110.031 30.434 109.848 30.292C109.666 30.1444 109.413 30.0705 109.089 30.0705H107.945Z" fill="white"/>
<path d="M119.1 32.2684H113.491V28.1537H114.106V31.7317H115.984V28.1537H116.599V31.7317H118.486V28.1537H119.1V32.2684Z" fill="white"/>
<path d="M120.007 32.2684V31.7062C120.035 31.7119 120.089 31.7147 120.169 31.7147C120.527 31.7147 120.772 31.4875 120.903 31.0332C121.011 30.6697 121.079 30.1472 121.108 29.4657L121.142 28.1537H124.224V32.2684H123.609V28.6904H121.731L121.705 29.4827C121.694 29.7894 121.683 30.0109 121.671 30.1472C121.62 30.7038 121.538 31.1127 121.424 31.3739C121.321 31.6466 121.165 31.8709 120.954 32.047C120.744 32.2173 120.487 32.294 120.186 32.277C120.095 32.277 120.035 32.2741 120.007 32.2684Z" fill="white"/>
<path d="M127.644 32.3707C127.001 32.3707 126.46 32.1691 126.022 31.7658C125.59 31.3683 125.373 30.8514 125.373 30.2154C125.373 29.602 125.567 29.088 125.954 28.6734C126.347 28.2588 126.85 28.0515 127.465 28.0515C127.795 28.0515 128.088 28.1197 128.344 28.256C128.6 28.3866 128.802 28.5598 128.95 28.7756C129.098 28.9915 129.209 29.2215 129.283 29.4657C129.357 29.7042 129.394 29.9456 129.394 30.1898V30.3602H126.005C126.039 30.8032 126.216 31.1581 126.534 31.4251C126.859 31.6863 127.269 31.8169 127.764 31.8169C128.242 31.8169 128.683 31.6892 129.087 31.4336V31.9788C128.751 32.24 128.27 32.3707 127.644 32.3707ZM126.014 29.8576H128.771C128.754 29.5395 128.635 29.2527 128.413 28.9971C128.202 28.7359 127.878 28.6053 127.439 28.6053C127.03 28.6053 126.694 28.7302 126.432 28.9801C126.176 29.2357 126.036 29.5282 126.014 29.8576Z" fill="white"/>
<path d="M131.164 32.2684H130.549V28.1537H131.164V29.8831H133.7V28.1537H134.314V32.2684H133.7V30.4368H131.164V32.2684Z" fill="white"/>
<path d="M136.383 32.2684H135.769V28.1537H136.383V29.8831H138.919V28.1537H139.534V32.2684H138.919V30.4368H136.383V32.2684Z" fill="white"/>
<path d="M145.7 32.2684H145.086V28.1537H145.7V32.2684ZM142.858 32.2684H140.988V28.1537H141.602V29.5338H142.832C143.31 29.5338 143.691 29.6588 143.976 29.9087C144.26 30.1529 144.403 30.4823 144.403 30.8969C144.403 31.3115 144.266 31.6437 143.993 31.8936C143.72 32.1435 143.341 32.2684 142.858 32.2684ZM141.602 30.0705V31.7317H142.747C143.071 31.7317 143.324 31.6608 143.506 31.5188C143.688 31.3711 143.78 31.1666 143.78 30.9054C143.78 30.6385 143.688 30.434 143.506 30.292C143.324 30.1444 143.071 30.0705 142.747 30.0705H141.602Z" fill="white"/>
<path d="M149.121 32.3707C148.478 32.3707 147.937 32.1691 147.499 31.7658C147.067 31.3683 146.85 30.8514 146.85 30.2154C146.85 29.602 147.044 29.088 147.431 28.6734C147.824 28.2588 148.327 28.0515 148.942 28.0515C149.272 28.0515 149.565 28.1197 149.821 28.256C150.077 28.3866 150.28 28.5598 150.427 28.7756C150.575 28.9915 150.686 29.2215 150.76 29.4657C150.834 29.7042 150.871 29.9456 150.871 30.1898V30.3602H147.482C147.516 30.8032 147.693 31.1581 148.011 31.4251C148.336 31.6863 148.746 31.8169 149.241 31.8169C149.719 31.8169 150.16 31.6892 150.564 31.4336V31.9788C150.228 32.24 149.747 32.3707 149.121 32.3707ZM147.491 29.8576H150.248C150.231 29.5395 150.112 29.2527 149.89 28.9971C149.679 28.7359 149.355 28.6053 148.916 28.6053C148.507 28.6053 148.171 28.7302 147.909 28.9801C147.653 29.2357 147.513 29.5282 147.491 29.8576Z" fill="white"/>
<path d="M154.329 33.4867H153.74V31.7317H154.26C154.716 31.1297 154.949 30.1302 154.961 28.733L154.969 28.1537H158.034V31.7317H158.802V33.4867H158.205V32.2684H154.329V33.4867ZM154.943 31.7317H157.419V28.6904H155.541V28.9375C155.541 30.1642 155.342 31.0957 154.943 31.7317Z" fill="white"/>
<path d="M162.127 32.2684H159.814V28.1537H161.982C162.375 28.1537 162.679 28.2503 162.896 28.4434C163.118 28.6308 163.229 28.8835 163.229 29.2016C163.229 29.6446 163.058 29.9456 162.716 30.1046C163.24 30.2579 163.502 30.6101 163.502 31.161C163.502 31.5074 163.382 31.78 163.143 31.9788C162.904 32.1719 162.565 32.2684 162.127 32.2684ZM160.428 30.4113V31.7317H161.999C162.278 31.7317 162.494 31.675 162.648 31.5614C162.802 31.4478 162.879 31.2859 162.879 31.0758C162.879 30.8656 162.802 30.7038 162.648 30.5902C162.494 30.4709 162.278 30.4113 161.999 30.4113H160.428ZM160.428 28.6904V29.9001H161.811C162.067 29.9001 162.267 29.849 162.409 29.7468C162.551 29.6389 162.622 29.4884 162.622 29.2953C162.622 28.8921 162.352 28.6904 161.811 28.6904H160.428Z" fill="white"/>
<path d="M165.313 32.2684H164.741V28.1537H165.356V31.3654L167.994 28.1537H168.566V32.2684H167.951V29.0653L165.313 32.2684Z" fill="white"/>
<path d="M170.633 32.2684H170.019V28.1537H173.118V28.6904H170.633V32.2684Z" fill="white"/>
<path d="M175.329 31.8169C175.613 31.8169 175.884 31.7516 176.14 31.621C176.396 31.4904 176.604 31.3257 176.763 31.1269V30.5561C176.342 30.2835 175.895 30.1472 175.423 30.1472C175.047 30.1472 174.748 30.221 174.526 30.3687C174.31 30.5164 174.202 30.718 174.202 30.9735C174.202 31.2405 174.307 31.4478 174.518 31.5954C174.728 31.7431 174.999 31.8169 175.329 31.8169ZM175.158 32.3707C174.72 32.3707 174.347 32.2514 174.04 32.0129C173.738 31.763 173.587 31.4279 173.587 31.0076C173.587 30.593 173.746 30.2608 174.065 30.0109C174.384 29.7667 174.788 29.6446 175.277 29.6446C175.812 29.6446 176.308 29.778 176.763 30.045V29.6361C176.763 28.9489 176.31 28.6053 175.406 28.6053C174.922 28.6053 174.472 28.7444 174.057 29.0227V28.4264C174.461 28.1765 174.953 28.0515 175.534 28.0515C176.097 28.0515 176.544 28.185 176.874 28.4519C177.21 28.7132 177.378 29.088 177.378 29.5764V31.2717C177.378 31.4307 177.412 31.5557 177.48 31.6466C177.554 31.7374 177.651 31.7829 177.77 31.7829C177.861 31.7829 177.941 31.7658 178.009 31.7317V32.2088C177.918 32.2713 177.782 32.3025 177.6 32.3025C177.395 32.3025 177.221 32.2486 177.079 32.1407C176.942 32.0271 176.857 31.8624 176.823 31.6466C176.407 32.1293 175.852 32.3707 175.158 32.3707Z" fill="white"/>
<path d="M180.511 32.2684H179.896V28.6904H178.402V28.1537H182.005V28.6904H180.511V32.2684Z" fill="white"/>
<path d="M184.814 32.3707C184.17 32.3707 183.63 32.1691 183.191 31.7658C182.759 31.3683 182.543 30.8514 182.543 30.2154C182.543 29.602 182.736 29.088 183.123 28.6734C183.516 28.2588 184.02 28.0515 184.634 28.0515C184.964 28.0515 185.258 28.1197 185.514 28.256C185.77 28.3866 185.972 28.5598 186.12 28.7756C186.268 28.9915 186.379 29.2215 186.453 29.4657C186.527 29.7042 186.564 29.9456 186.564 30.1898V30.3602H183.174C183.209 30.8032 183.385 31.1581 183.704 31.4251C184.028 31.6863 184.438 31.8169 184.933 31.8169C185.411 31.8169 185.852 31.6892 186.256 31.4336V31.9788C185.921 32.24 185.44 32.3707 184.814 32.3707ZM183.183 29.8576H185.941C185.923 29.5395 185.804 29.2527 185.582 28.9971C185.371 28.7359 185.047 28.6053 184.609 28.6053C184.199 28.6053 183.863 28.7302 183.601 28.9801C183.345 29.2357 183.206 29.5282 183.183 29.8576Z" fill="white"/>
<path d="M187.114 32.2684V31.7062C187.142 31.7119 187.197 31.7147 187.276 31.7147C187.635 31.7147 187.88 31.4875 188.01 31.0332C188.119 30.6697 188.187 30.1472 188.215 29.4657L188.249 28.1537H191.332V32.2684H190.717V28.6904H188.839L188.813 29.4827C188.802 29.7894 188.79 30.0109 188.779 30.1472C188.728 30.7038 188.645 31.1127 188.531 31.3739C188.429 31.6466 188.272 31.8709 188.062 32.047C187.851 32.2173 187.595 32.294 187.293 32.277C187.202 32.277 187.142 32.2741 187.114 32.2684Z" fill="white"/>
<path d="M193.352 32.2684H192.78V28.1537H193.394V31.3654L196.032 28.1537H196.604V32.2684H195.99V29.0653L193.352 32.2684Z" fill="white"/>
<path d="M18.2014 31.2123C15.6566 31.2123 14.3776 32.2814 13.1454 33.3172C11.9133 34.3529 10.8552 35.2349 8.60513 35.2349C6.35508 35.2349 5.25684 34.3061 4.05815 33.3172L3.83716 33.1301C4.84992 34.3453 6.12508 35.3162 7.56716 35.97C7.91108 36.0173 8.25798 36.0396 8.60513 36.0368C11.1498 36.0368 12.4289 34.9676 13.6611 33.9319C14.8932 32.8962 15.9513 32.0208 18.2014 32.0208C20.4514 32.0208 21.5497 32.9496 22.7483 33.9319L23.1903 34.3061C23.3912 34.1257 23.5921 33.9386 23.7796 33.7448L23.264 33.3172C22.0318 32.2814 20.7595 31.2123 18.2014 31.2123Z" fill="white"/>
<path d="M18.2014 27.2297C15.6567 27.2297 14.3776 28.3056 13.1454 29.3346C11.9133 30.3637 10.8552 31.2524 8.60514 31.2524C6.35508 31.2524 5.25684 30.3236 4.05815 29.3346C3.17691 28.4899 2.11423 27.8569 0.950928 27.4837C1.05138 27.8111 1.15183 28.1519 1.26567 28.4392C2.10254 28.8174 2.87167 29.3298 3.54251 29.9561C4.78138 30.9918 6.02695 32.0743 8.60514 32.0743C11.1833 32.0743 12.4289 31.0051 13.6611 29.9694C14.8932 28.9337 15.9513 28.065 18.2014 28.065C20.4514 28.065 21.5497 28.9938 22.7483 29.9828C23.5317 30.7063 24.439 31.2835 25.427 31.6867C25.5676 31.4595 25.7015 31.219 25.8355 30.9784C24.8903 30.6088 24.0261 30.0596 23.2908 29.3613C22.0318 28.3056 20.7595 27.2297 18.2014 27.2297Z" fill="white"/>
<path d="M23.5519 25.0514C22.2729 24.0157 20.947 22.9465 18.3152 22.9465C15.6834 22.9465 14.3642 24.0157 13.0851 25.0514C11.8061 26.0871 10.7146 26.9692 8.35735 26.9692C6.00015 26.9692 4.85503 26.0604 3.62956 25.0514C2.61253 24.0955 1.36042 23.4246 0 23.1069C0.0401796 23.3942 0.0870558 23.6816 0.133932 23.9622C1.2485 24.2947 2.27076 24.8802 3.12061 25.6728C4.39966 26.7086 5.72559 27.7777 8.35735 27.7777C10.9891 27.7777 12.315 26.7086 13.5874 25.6728C14.8597 24.6371 15.9714 23.7551 18.3152 23.7551C20.659 23.7551 21.8175 24.6839 23.043 25.6728C24.1828 26.7387 25.6179 27.4373 27.1614 27.6775C27.2351 27.4236 27.3154 27.163 27.3891 26.8957C25.9477 26.698 24.6053 26.0528 23.5519 25.0514V25.0514Z" fill="white"/>
<path d="M13.0382 36.8654L12.7034 37.1394C13.1052 37.1394 13.507 37.1728 13.9155 37.1795C15.0392 36.1187 16.534 35.5383 18.0807 35.5624C18.9058 35.5436 19.7255 35.7008 20.4848 36.0234C20.7929 35.8831 21.0942 35.7361 21.3889 35.5757C20.3812 35.0071 19.2381 34.7208 18.0807 34.7472C15.5494 34.7472 14.2704 35.8297 13.0382 36.8654Z" fill="white"/>
<path d="M5.27028 18.7902L13.3933 15.1351C13.4166 15.1252 13.442 15.1212 13.4673 15.1234C13.4925 15.1257 13.5168 15.1341 13.538 15.148C13.5592 15.1619 13.5767 15.1808 13.5888 15.203C13.6009 15.2252 13.6074 15.2501 13.6075 15.2754V22.7193C13.6062 22.7478 13.6131 22.776 13.6276 22.8006C13.642 22.8252 13.6633 22.8451 13.6888 22.8578C13.7144 22.8705 13.7431 22.8756 13.7714 22.8724C13.7998 22.8691 13.8266 22.8577 13.8486 22.8396L14.3442 22.4988C14.3643 22.4857 14.381 22.4679 14.3926 22.4469C14.4043 22.426 14.4107 22.4025 14.4111 22.3785V15.1885C14.4113 15.1632 14.4178 15.1383 14.4299 15.1161C14.442 15.0939 14.4594 15.075 14.4806 15.0611C14.5018 15.0472 14.5262 15.0388 14.5514 15.0365C14.5767 15.0343 14.6021 15.0383 14.6254 15.0482L22.9024 18.7902C22.9216 18.8 22.9386 18.8136 22.9523 18.8301C22.9661 18.8466 22.9765 18.8657 22.9827 18.8863C22.989 18.9069 22.991 18.9285 22.9887 18.9498C22.9864 18.9712 22.9798 18.9919 22.9694 19.0107C22.359 19.9584 21.669 20.8526 20.9068 21.6836C20.8897 21.701 20.8771 21.7225 20.8704 21.7461C20.8637 21.7696 20.8629 21.7944 20.8682 21.8183C20.8736 21.8422 20.8848 21.8644 20.9009 21.8829C20.917 21.9014 20.9374 21.9155 20.9604 21.9241C21.1247 21.9895 21.2856 22.0631 21.4426 22.1446C21.4695 22.1619 21.5009 22.1711 21.533 22.1711C21.565 22.1711 21.5964 22.1619 21.6234 22.1446C21.8912 21.8506 22.1591 21.5366 22.4203 21.2091C23.5772 19.7517 24.5509 18.1584 25.3199 16.4648L25.4136 16.251C25.4295 16.2155 25.4307 16.1752 25.4169 16.1389C25.4031 16.1026 25.3754 16.0732 25.34 16.0572L19.9157 13.3843C19.8906 13.3725 19.8696 13.3535 19.8553 13.3297C19.841 13.3059 19.834 13.2784 19.8354 13.2507V8.81375C19.8332 8.78247 19.8219 8.75251 19.8029 8.72756C19.7838 8.70262 19.7579 8.6838 19.7282 8.67342L18.2751 8.19899C18.2454 8.18861 18.2195 8.16979 18.2004 8.14485C18.1814 8.11991 18.1701 8.08995 18.1679 8.05867V3.60168C18.1688 3.58182 18.1657 3.56198 18.1587 3.54336C18.1517 3.52475 18.141 3.50775 18.1272 3.49338C18.1134 3.47901 18.0969 3.46758 18.0786 3.45978C18.0602 3.45198 18.0405 3.44797 18.0206 3.44799H14.5451C14.5248 3.44799 14.5048 3.44401 14.4861 3.43629C14.4674 3.42856 14.4505 3.41724 14.4362 3.40297C14.4219 3.3887 14.4105 3.37176 14.4028 3.35311C14.395 3.33447 14.391 3.31448 14.391 3.2943V0.153689C14.391 0.112928 14.3748 0.073837 14.3459 0.0450146C14.317 0.0161923 14.2779 7.85365e-08 14.237 7.85365e-08H13.7348C13.7149 -2.04704e-05 13.6951 0.00399164 13.6768 0.0117938C13.6585 0.0195959 13.6419 0.0310259 13.6282 0.0453925C13.6144 0.0597591 13.6037 0.0767637 13.5967 0.095378C13.5897 0.113992 13.5866 0.133829 13.5875 0.153689V3.2943C13.5875 3.31448 13.5835 3.33447 13.5757 3.35311C13.568 3.37176 13.5566 3.3887 13.5423 3.40297C13.528 3.41724 13.5111 3.42856 13.4924 3.43629C13.4737 3.44401 13.4537 3.44799 13.4334 3.44799H10.1856C10.1657 3.44797 10.1459 3.45198 10.1276 3.45978C10.1093 3.46758 10.0927 3.47901 10.079 3.49338C10.0652 3.50775 10.0545 3.52475 10.0475 3.54336C10.0405 3.56198 10.0374 3.58182 10.0383 3.60168V7.93171C10.037 7.96324 10.026 7.99363 10.0069 8.01874C9.9877 8.04384 9.96125 8.06245 9.93111 8.07203L8.21679 8.6066C8.1879 8.61729 8.16289 8.63637 8.14498 8.66138C8.12707 8.6864 8.1171 8.7162 8.11634 8.74693V13.3643C8.11546 13.3924 8.10688 13.4197 8.09153 13.4433C8.07618 13.4668 8.05465 13.4857 8.02928 13.4979L2.85281 16.0772C2.81852 16.0945 2.79195 16.124 2.77832 16.1599C2.76469 16.1957 2.76499 16.2354 2.77915 16.271L2.8729 16.4915C3.65238 18.1616 4.63041 19.7321 5.78592 21.169C7.0195 22.7821 8.59504 24.1033 10.3999 25.038C10.4406 25.0547 10.4864 25.0547 10.5271 25.038C10.74 24.9566 10.9479 24.8629 11.1499 24.7573C11.1752 24.7445 11.1965 24.7249 11.2114 24.7007C11.2262 24.6765 11.2341 24.6487 11.2341 24.6204C11.2341 24.592 11.2262 24.5642 11.2114 24.54C11.1965 24.5158 11.1752 24.4962 11.1499 24.4834C8.50474 23.3875 6.48237 20.9552 5.20332 19.0107C5.19066 18.9925 5.1823 18.9717 5.17885 18.9498C5.1754 18.9279 5.17695 18.9055 5.18339 18.8843C5.18983 18.8631 5.20099 18.8436 5.21604 18.8273C5.23108 18.811 5.24963 18.7983 5.27028 18.7902V18.7902ZM14.5451 4.24984H17.2237C17.2439 4.24984 17.264 4.25382 17.2826 4.26154C17.3013 4.26927 17.3183 4.28059 17.3326 4.29486C17.3469 4.30913 17.3583 4.32607 17.366 4.34472C17.3737 4.36337 17.3777 4.38335 17.3777 4.40353V7.69783C17.3768 7.7215 17.3704 7.74464 17.359 7.76543C17.3476 7.78623 17.3316 7.80412 17.3122 7.8177C17.2927 7.83129 17.2704 7.8402 17.2469 7.84375C17.2234 7.8473 17.1994 7.84538 17.1768 7.83816L14.4982 6.97616C14.4675 6.96748 14.4405 6.94912 14.4212 6.92382C14.4019 6.89851 14.3913 6.86764 14.391 6.83583V4.40353C14.391 4.36277 14.4073 4.32368 14.4362 4.29486C14.465 4.26604 14.5042 4.24984 14.5451 4.24984V4.24984ZM14.5919 7.85152L18.9046 9.25477C18.9345 9.26585 18.9603 9.28596 18.9783 9.3123C18.9963 9.33863 19.0056 9.36991 19.005 9.40178V12.6426C19.0055 12.668 18.9993 12.6931 18.9872 12.7154C18.9751 12.7377 18.9574 12.7565 18.9358 12.77C18.9142 12.7835 18.8895 12.7911 18.8641 12.7922C18.8386 12.7933 18.8134 12.7878 18.7907 12.7763L14.4781 10.6447C14.4527 10.6325 14.4312 10.6135 14.4159 10.59C14.4005 10.5664 14.3919 10.5391 14.391 10.511V8.01857C14.3874 7.99271 14.3905 7.96636 14.4 7.942C14.4094 7.91765 14.4249 7.89609 14.445 7.87938C14.4651 7.86266 14.4891 7.85133 14.5149 7.84646C14.5406 7.84158 14.5671 7.84333 14.5919 7.85152V7.85152ZM14.5919 11.6069L24.2484 16.3846C24.2832 16.4032 24.3095 16.4343 24.3219 16.4715C24.3344 16.5088 24.332 16.5495 24.3154 16.5851C24.1413 16.9326 23.8734 17.4471 23.5185 18.0552C23.5001 18.0882 23.4696 18.1128 23.4335 18.124C23.3973 18.1352 23.3582 18.1321 23.3243 18.1153L14.458 14.106C14.4316 14.0952 14.4092 14.0766 14.3936 14.0527C14.3781 14.0288 14.3702 14.0008 14.371 13.9724V11.7472C14.3683 11.7181 14.374 11.6888 14.3874 11.6628C14.4009 11.6368 14.4214 11.6152 14.4467 11.6005C14.472 11.5857 14.501 11.5785 14.5303 11.5797C14.5596 11.5808 14.5879 11.5902 14.612 11.6069H14.5919ZM10.9758 4.25653H13.4133C13.4542 4.25653 13.4934 4.27272 13.5223 4.30154C13.5511 4.33036 13.5674 4.36945 13.5674 4.41022V6.83583C13.5671 6.86764 13.5566 6.89851 13.5372 6.92382C13.5179 6.94912 13.4909 6.96748 13.4602 6.97616L11.0227 7.73792C10.9996 7.74391 10.9754 7.74468 10.952 7.7402C10.9286 7.73572 10.9065 7.7261 10.8872 7.71202C10.868 7.69795 10.8521 7.67978 10.8408 7.65883C10.8295 7.63789 10.823 7.61469 10.8218 7.59092V4.40353C10.8216 4.38155 10.8261 4.35978 10.8351 4.33969C10.844 4.31961 10.8572 4.30168 10.8737 4.28711C10.8902 4.27254 10.9097 4.26167 10.9307 4.25525C10.9518 4.24882 10.974 4.24698 10.9959 4.24984L10.9758 4.25653ZM9.00698 9.20131L13.3665 7.86488C13.3891 7.85766 13.4131 7.85574 13.4365 7.85929C13.46 7.86284 13.4823 7.87175 13.5018 7.88534C13.5212 7.89892 13.5373 7.91681 13.5487 7.93761C13.56 7.9584 13.5664 7.98154 13.5674 8.00521V10.6313C13.5673 10.6596 13.559 10.6872 13.5436 10.7109C13.5281 10.7346 13.5062 10.7534 13.4803 10.7649L9.12083 12.95C9.09796 12.9632 9.07196 12.97 9.04554 12.9698C9.01912 12.9695 8.99326 12.9622 8.97066 12.9485C8.94807 12.9348 8.92957 12.9153 8.91711 12.8921C8.90465 12.8689 8.89869 12.8427 8.89984 12.8164V9.355C8.89603 9.31702 8.90718 9.27905 8.93092 9.24912C8.95467 9.21919 8.98915 9.19965 9.02707 9.19463L9.00698 9.20131ZM3.91088 16.4448L13.3933 11.7138C13.4161 11.7006 13.4421 11.6938 13.4685 11.694C13.495 11.6943 13.5208 11.7016 13.5434 11.7153C13.566 11.729 13.5845 11.7485 13.597 11.7717C13.6094 11.7949 13.6154 11.8211 13.6142 11.8474V14.0325C13.6132 14.0623 13.6039 14.0912 13.5873 14.116C13.5708 14.1407 13.5476 14.1604 13.5205 14.1728L4.81492 18.0886C4.78093 18.1089 4.74039 18.1154 4.70172 18.1067C4.66305 18.098 4.62924 18.0747 4.60732 18.0418C4.2658 17.4604 4.01132 16.9726 3.84391 16.6319C3.82959 16.598 3.82853 16.56 3.84092 16.5253C3.85332 16.4907 3.87828 16.4619 3.91088 16.4448V16.4448Z" fill="white"/>
</svg>
