<svg width="210" height="40" viewBox="0 0 210 40" fill="none" xmlns="http://www.w3.org/2000/svg">
<path d="M47.2245 20.1833C45.1753 20.1833 43.4523 19.5191 42.0557 18.1906C40.6852 16.8491 40 15.1495 40 13.0917C40 11.0338 40.6852 9.34071 42.0557 8.01224C43.4132 6.67075 45.1361 6 47.2245 6C48.6211 6 49.8611 6.30607 50.9444 6.91821V9.08673C49.835 8.3704 48.6015 8.01224 47.2441 8.01224C45.8083 8.01224 44.6075 8.49413 43.6416 9.45792C42.6888 10.4087 42.2124 11.6199 42.2124 13.0917C42.2124 14.5634 42.6953 15.7812 43.6612 16.745C44.6271 17.6957 45.8475 18.1711 47.3224 18.1711C48.8887 18.1711 50.1939 17.7543 51.2381 16.9208V19.0893C50.0895 19.8187 48.7516 20.1833 47.2245 20.1833Z" fill="#103F45"/>
<path d="M55.2295 20.0857C54.8379 20.0857 54.5051 19.9554 54.231 19.6949C53.9699 19.4214 53.8394 19.0893 53.8394 18.6986C53.8394 18.3209 53.9699 18.0018 54.231 17.7413C54.5051 17.4678 54.8379 17.331 55.2295 17.331C55.595 17.331 55.9147 17.4678 56.1888 17.7413C56.4629 18.0018 56.6 18.3209 56.6 18.6986C56.6 19.0893 56.4629 19.4214 56.1888 19.6949C55.9278 19.9554 55.608 20.0857 55.2295 20.0857Z" fill="#103F45"/>
<path d="M63.6874 20.1833C61.599 20.1833 59.8827 19.6949 58.5383 18.7181V16.3933C59.0734 16.8622 59.8109 17.2789 60.7506 17.6436C61.6904 17.9953 62.6302 18.1711 63.57 18.1711C64.4967 18.1711 65.2537 17.9888 65.8411 17.6241C66.4415 17.2594 66.7417 16.7645 66.7417 16.1393C66.7417 15.6444 66.5394 15.2211 66.1347 14.8695C65.9781 14.7262 65.7432 14.5895 65.4299 14.4592C65.0514 14.2769 64.4249 14.062 63.5504 13.8145L63.2763 13.7364C62.5323 13.528 61.9384 13.3391 61.4946 13.1698C61.1422 13.0396 60.6854 12.8117 60.1241 12.486C59.1844 11.9 58.7145 10.9818 58.7145 9.73143C58.7145 8.59833 59.1583 7.69315 60.0458 7.01589C60.9464 6.33863 62.1603 6 63.6874 6C65.3451 6 66.8069 6.3777 68.073 7.1331V9.2821C66.6764 8.43552 65.2276 8.01224 63.7266 8.01224C62.8129 8.01224 62.1146 8.17504 61.6317 8.50064C61.1618 8.81322 60.9269 9.23 60.9269 9.75097C60.9269 10.1938 61.1944 10.6041 61.7296 10.9818C61.8079 11.0338 61.9188 11.0925 62.0624 11.1576C62.206 11.2097 62.3691 11.2683 62.5519 11.3334C62.7346 11.3985 62.8651 11.4441 62.9434 11.4702L64.5097 11.9195C65.4625 12.206 66.2979 12.5447 67.0158 12.9354C68.2296 13.5866 68.8757 14.6415 68.9541 16.1003C68.9541 17.3636 68.4515 18.36 67.4465 19.0893C66.4415 19.8187 65.1884 20.1833 63.6874 20.1833Z" fill="#103F45"/>
<path d="M72.2842 20.0857C71.8927 20.0857 71.5598 19.9554 71.2857 19.6949C71.0247 19.4214 70.8942 19.0893 70.8942 18.6986C70.8942 18.3209 71.0247 18.0018 71.2857 17.7413C71.5598 17.4678 71.8927 17.331 72.2842 17.331C72.6497 17.331 72.9695 17.4678 73.2436 17.7413C73.5177 18.0018 73.6547 18.3209 73.6547 18.6986C73.6547 19.0893 73.5177 19.4214 73.2436 19.6949C72.9825 19.9554 72.6628 20.0857 72.2842 20.0857Z" fill="#103F45"/>
<path d="M78.6668 19.9294H76.5132V6.25397H78.6668V19.9294Z" fill="#103F45"/>
<path d="M82.953 20.0857C82.5614 20.0857 82.2286 19.9554 81.9545 19.6949C81.6935 19.4214 81.5629 19.0893 81.5629 18.6986C81.5629 18.3209 81.6935 18.0018 81.9545 17.7413C82.2286 17.4678 82.5614 17.331 82.953 17.331C83.3185 17.331 83.6383 17.4678 83.9124 17.7413C84.1865 18.0018 84.3235 18.3209 84.3235 18.6986C84.3235 19.0893 84.1865 19.4214 83.9124 19.6949C83.6513 19.9554 83.3315 20.0857 82.953 20.0857Z" fill="#103F45"/>
<path d="M94.3236 19.9294H92.1699V6.25397H94.3627L98.807 12.4079L103.212 6.25397H105.366V19.9294H103.212V9.53607L99.3944 14.6936H98.1414L94.3236 9.53607V19.9294Z" fill="#103F45"/>
<path d="M109.784 19.9294H107.493L113.484 6.17583H115.56L121.551 19.9294H119.24L117.752 16.5301H111.252L109.784 19.9294ZM114.502 8.89137L111.996 14.635H117.008L114.502 8.89137Z" fill="#103F45"/>
<path d="M129.439 20.1833C127.39 20.1833 125.667 19.5191 124.27 18.1906C122.9 16.8491 122.215 15.1495 122.215 13.0917C122.215 11.0338 122.9 9.34071 124.27 8.01224C125.628 6.67075 127.351 6 129.439 6C130.836 6 132.076 6.30607 133.159 6.91821V9.08673C132.049 8.3704 130.816 8.01224 129.459 8.01224C128.023 8.01224 126.822 8.49413 125.856 9.45792C124.903 10.4087 124.427 11.6199 124.427 13.0917C124.427 14.5634 124.91 15.7812 125.876 16.745C126.842 17.6957 128.062 18.1711 129.537 18.1711C131.103 18.1711 132.408 17.7543 133.453 16.9208V19.0893C132.304 19.8187 130.966 20.1833 129.439 20.1833Z" fill="#103F45"/>
<path d="M138.241 19.9294H136.088V6.25397H138.241V11.646H145.388V6.25397H147.541V19.9294H145.388V13.6192H138.241V19.9294Z" fill="#103F45"/>
<path d="M153.195 19.9294H151.042V6.25397H153.195V19.9294Z" fill="#103F45"/>
<path d="M158.832 19.9294H156.718V6.25397H158.597L166.331 16.1589V6.25397H168.445V19.9294H166.625L158.832 9.9854V19.9294Z" fill="#103F45"/>
<path d="M181.865 19.9294H171.861V6.25397H181.611V8.22714H174.014V11.646H180.201V13.6192H174.014V17.9562H181.865V19.9294Z" fill="#103F45"/>
<path d="M186.557 19.9294H184.403V6.25397H190.649C192.058 6.25397 193.161 6.61214 193.957 7.32847C194.767 8.05782 195.171 8.99556 195.171 10.1417C195.171 11.0925 194.904 11.9065 194.369 12.5837C193.847 13.248 193.122 13.6908 192.195 13.9122L196.503 19.9294H193.899L189.768 14.1466H186.557V19.9294ZM186.557 8.22714V12.2516H190.512C191.295 12.2516 191.902 12.0758 192.332 11.7241C192.776 11.3725 192.998 10.871 192.998 10.2198C192.998 9.59468 192.776 9.10627 192.332 8.75462C191.902 8.40296 191.295 8.22714 190.512 8.22714H186.557Z" fill="#103F45"/>
<path d="M204.22 19.9294H202.066V13.7364L196.76 6.25397H199.266L203.182 11.7827L207.098 6.25397H209.525L204.22 13.6778V19.9294Z" fill="#103F45"/>
<path d="M43.065 33.1678C42.1941 33.1678 41.4628 32.8781 40.8708 32.2989C40.2903 31.7196 40 30.9812 40 30.0839C40 29.1922 40.2903 28.4568 40.8708 27.8775C41.4571 27.2925 42.1884 27 43.065 27C43.7138 27 44.2716 27.1477 44.7383 27.443V28.0904C44.2147 27.7554 43.6597 27.5878 43.0735 27.5878C42.3905 27.5878 41.8128 27.8263 41.3404 28.3034C40.8737 28.7691 40.6403 29.3626 40.6403 30.0839C40.6403 30.8109 40.8737 31.4072 41.3404 31.8729C41.8128 32.3443 42.3962 32.58 43.0906 32.58C43.7849 32.58 44.3769 32.3812 44.8664 31.9836V32.6396C44.3769 32.9917 43.7764 33.1678 43.065 33.1678Z" fill="#103F45"/>
<path d="M46.0863 34.8035C45.7904 34.8035 45.5713 34.7637 45.429 34.6842V34.1134C45.6054 34.2043 45.7932 34.2497 45.9924 34.2497C46.2429 34.2497 46.4591 34.1446 46.6413 33.9345C46.8234 33.7301 47.0141 33.3893 47.2133 32.9122L45.3777 28.9509H46.0607L47.5206 32.1881L48.9379 28.9509H49.6038L47.5633 33.5256C47.1934 34.3775 46.701 34.8035 46.0863 34.8035Z" fill="#103F45"/>
<path d="M50.3259 34.2838H49.7368V32.5289H50.2576C50.7129 31.9269 50.9463 30.9273 50.9576 29.5302L50.9662 28.9509H54.0311V32.5289H54.7995V34.2838H54.2019V33.0656H50.3259V34.2838ZM50.9406 32.5289H53.4164V29.4876H51.5382V29.7346C51.5382 30.9614 51.339 31.8928 50.9406 32.5289Z" fill="#103F45"/>
<path d="M56.1351 29.4876C56.5506 29.0616 57.0856 28.8486 57.7401 28.8486C58.3947 28.8486 58.9297 29.0616 59.3452 29.4876C59.7607 29.9022 59.9684 30.4105 59.9684 31.0125C59.9684 31.6145 59.7607 32.1228 59.3452 32.5374C58.924 32.9577 58.389 33.1678 57.7401 33.1678C57.0913 33.1678 56.5563 32.9577 56.1351 32.5374C55.7196 32.1228 55.5118 31.6145 55.5118 31.0125C55.5118 30.4105 55.7196 29.9022 56.1351 29.4876ZM59.3366 31.0125C59.3366 30.5581 59.1858 30.1748 58.8841 29.8624C58.5825 29.5557 58.2011 29.4024 57.7401 29.4024C57.2791 29.4024 56.8978 29.5557 56.5961 29.8624C56.2944 30.1748 56.1436 30.5581 56.1436 31.0125C56.1436 31.4611 56.2944 31.8417 56.5961 32.154C56.8978 32.4607 57.2791 32.6141 57.7401 32.6141C58.2011 32.6141 58.5825 32.4607 58.8841 32.154C59.1858 31.8417 59.3366 31.4611 59.3366 31.0125Z" fill="#103F45"/>
<path d="M63.4269 33.0656H61.1132V28.9509H63.2817C63.6745 28.9509 63.979 29.0474 64.1952 29.2405C64.4172 29.4279 64.5282 29.6807 64.5282 29.9987C64.5282 30.4417 64.3575 30.7427 64.016 30.9017C64.5396 31.0551 64.8014 31.4072 64.8014 31.9581C64.8014 32.3045 64.6819 32.5771 64.4428 32.7759C64.2038 32.969 63.8651 33.0656 63.4269 33.0656ZM61.7279 31.2084V32.5289H63.2988C63.5777 32.5289 63.794 32.4721 63.9477 32.3585C64.1013 32.2449 64.1782 32.083 64.1782 31.8729C64.1782 31.6628 64.1013 31.5009 63.9477 31.3873C63.794 31.268 63.5777 31.2084 63.2988 31.2084H61.7279ZM61.7279 29.4876V30.6973H63.111C63.3671 30.6973 63.5663 30.6462 63.7086 30.5439C63.8509 30.436 63.922 30.2855 63.922 30.0924C63.922 29.6892 63.6517 29.4876 63.111 29.4876H61.7279Z" fill="#103F45"/>
<path d="M70.7533 33.0656H70.1386V28.9509H70.7533V33.0656ZM67.9103 33.0656H66.0406V28.9509H66.6553V30.3309H67.8847C68.3628 30.3309 68.7441 30.4559 69.0287 30.7058C69.3133 30.95 69.4556 31.2794 69.4556 31.694C69.4556 32.1086 69.319 32.4408 69.0458 32.6907C68.7726 32.9406 68.3941 33.0656 67.9103 33.0656ZM66.6553 30.8676V32.5289H67.7993C68.1237 32.5289 68.377 32.4579 68.5592 32.3159C68.7413 32.1682 68.8324 31.9638 68.8324 31.7025C68.8324 31.4356 68.7413 31.2311 68.5592 31.0891C68.377 30.9415 68.1237 30.8676 67.7993 30.8676H66.6553Z" fill="#103F45"/>
<path d="M74.1741 33.1678C73.5309 33.1678 72.9902 32.9662 72.552 32.5629C72.1194 32.1654 71.9031 31.6486 71.9031 31.0125C71.9031 30.3991 72.0966 29.8851 72.4837 29.4705C72.8764 29.0559 73.3801 28.8486 73.9948 28.8486C74.3249 28.8486 74.618 28.9168 74.8742 29.0531C75.1303 29.1837 75.3323 29.3569 75.4803 29.5728C75.6283 29.7886 75.7393 30.0186 75.8133 30.2628C75.8873 30.5013 75.9243 30.7427 75.9243 30.9869V31.1573H72.5349C72.569 31.6003 72.7455 31.9552 73.0642 32.2222C73.3886 32.4834 73.7984 32.6141 74.2936 32.6141C74.7717 32.6141 75.2128 32.4863 75.6169 32.2307V32.7759C75.2811 33.0372 74.8002 33.1678 74.1741 33.1678ZM72.5434 30.6547H75.301C75.2839 30.3366 75.1644 30.0498 74.9425 29.7942C74.7319 29.533 74.4074 29.4024 73.9692 29.4024C73.5594 29.4024 73.2236 29.5273 72.9618 29.7772C72.7056 30.0328 72.5662 30.3253 72.5434 30.6547Z" fill="#103F45"/>
<path d="M79.9024 33.0656H79.3304V28.9509H79.9451V32.1625L82.5831 28.9509H83.1552V33.0656H82.5405V29.8624L79.9024 33.0656Z" fill="#103F45"/>
<path d="M87.4737 33.0656H86.859V28.9509H90.5643V33.0656H89.9496V29.4876H87.4737V33.0656Z" fill="#103F45"/>
<path d="M92.6262 32.4096V34.7694H92.0115V28.9509H92.6262V29.6068C93.0132 29.1014 93.5454 28.8486 94.2227 28.8486C94.8317 28.8486 95.3297 29.0588 95.7168 29.479C96.1038 29.8993 96.2973 30.4076 96.2973 31.004C96.2973 31.606 96.1038 32.1171 95.7168 32.5374C95.3297 32.9577 94.8317 33.1678 94.2227 33.1678C93.5454 33.1678 93.0132 32.9151 92.6262 32.4096ZM92.6262 30.3309V31.6855C92.7457 31.9581 92.9393 32.1824 93.2068 32.3585C93.4743 32.5289 93.7645 32.6141 94.0776 32.6141C94.5386 32.6141 94.9171 32.4607 95.2131 32.154C95.5147 31.836 95.6656 31.4526 95.6656 31.004C95.6656 30.5553 95.5147 30.1748 95.2131 29.8624C94.9171 29.5557 94.5386 29.4024 94.0776 29.4024C93.7702 29.4024 93.4828 29.4904 93.2153 29.6665C92.9478 29.8368 92.7514 30.0583 92.6262 30.3309Z" fill="#103F45"/>
<path d="M97.7636 29.4876C98.179 29.0616 98.7141 28.8486 99.3686 28.8486C100.023 28.8486 100.558 29.0616 100.974 29.4876C101.389 29.9022 101.597 30.4105 101.597 31.0125C101.597 31.6145 101.389 32.1228 100.974 32.5374C100.552 32.9577 100.017 33.1678 99.3686 33.1678C98.7198 33.1678 98.1847 32.9577 97.7636 32.5374C97.3481 32.1228 97.1403 31.6145 97.1403 31.0125C97.1403 30.4105 97.3481 29.9022 97.7636 29.4876ZM100.965 31.0125C100.965 30.5581 100.814 30.1748 100.513 29.8624C100.211 29.5557 99.8296 29.4024 99.3686 29.4024C98.9076 29.4024 98.5262 29.5557 98.2246 29.8624C97.9229 30.1748 97.7721 30.5581 97.7721 31.0125C97.7721 31.4611 97.9229 31.8417 98.2246 32.154C98.5262 32.4607 98.9076 32.6141 99.3686 32.6141C99.8296 32.6141 100.211 32.4607 100.513 32.154C100.814 31.8417 100.965 31.4611 100.965 31.0125Z" fill="#103F45"/>
<path d="M103.339 33.0656H102.742V28.9509H103.339L104.987 30.8591L106.643 28.9509H107.241V33.0656H106.643V29.7942L105.107 31.5747H104.868L103.339 29.7942V33.0656Z" fill="#103F45"/>
<path d="M113.407 33.0656H112.793V28.9509H113.407V33.0656ZM110.564 33.0656H108.695V28.9509H109.309V30.3309H110.539C111.017 30.3309 111.398 30.4559 111.683 30.7058C111.967 30.95 112.11 31.2794 112.11 31.694C112.11 32.1086 111.973 32.4408 111.7 32.6907C111.427 32.9406 111.048 33.0656 110.564 33.0656ZM109.309 30.8676V32.5289H110.453C110.778 32.5289 111.031 32.4579 111.213 32.3159C111.395 32.1682 111.486 31.9638 111.486 31.7025C111.486 31.4356 111.395 31.2311 111.213 31.0891C111.031 30.9415 110.778 30.8676 110.453 30.8676H109.309Z" fill="#103F45"/>
<path d="M120.465 33.0656H114.856V28.9509H115.471V32.5289H117.349V28.9509H117.964V32.5289H119.85V28.9509H120.465V33.0656Z" fill="#103F45"/>
<path d="M121.371 33.0656V32.5033C121.4 32.509 121.454 32.5118 121.533 32.5118C121.892 32.5118 122.137 32.2847 122.268 31.8303C122.376 31.4668 122.444 30.9443 122.473 30.2628L122.507 28.9509H125.589V33.0656H124.974V29.4876H123.096L123.07 30.2798C123.059 30.5865 123.047 30.808 123.036 30.9443C122.985 31.5009 122.902 31.9098 122.788 32.1711C122.686 32.4437 122.53 32.668 122.319 32.8441C122.108 33.0145 121.852 33.0911 121.551 33.0741C121.459 33.0741 121.4 33.0712 121.371 33.0656Z" fill="#103F45"/>
<path d="M129.009 33.1678C128.366 33.1678 127.825 32.9662 127.387 32.5629C126.954 32.1654 126.738 31.6486 126.738 31.0125C126.738 30.3991 126.931 29.8851 127.319 29.4705C127.711 29.0559 128.215 28.8486 128.83 28.8486C129.16 28.8486 129.453 28.9168 129.709 29.0531C129.965 29.1837 130.167 29.3569 130.315 29.5728C130.463 29.7886 130.574 30.0186 130.648 30.2628C130.722 30.5013 130.759 30.7427 130.759 30.9869V31.1573H127.37C127.404 31.6003 127.58 31.9552 127.899 32.2222C128.224 32.4834 128.633 32.6141 129.128 32.6141C129.607 32.6141 130.048 32.4863 130.452 32.2307V32.7759C130.116 33.0372 129.635 33.1678 129.009 33.1678ZM127.378 30.6547H130.136C130.119 30.3366 129.999 30.0498 129.777 29.7942C129.567 29.533 129.242 29.4024 128.804 29.4024C128.394 29.4024 128.058 29.5273 127.797 29.7772C127.541 30.0328 127.401 30.3253 127.378 30.6547Z" fill="#103F45"/>
<path d="M132.529 33.0656H131.914V28.9509H132.529V30.6802H135.064V28.9509H135.679V33.0656H135.064V31.234H132.529V33.0656Z" fill="#103F45"/>
<path d="M137.748 33.0656H137.133V28.9509H137.748V30.6802H140.284V28.9509H140.898V33.0656H140.284V31.234H137.748V33.0656Z" fill="#103F45"/>
<path d="M147.065 33.0656H146.451V28.9509H147.065V33.0656ZM144.222 33.0656H142.353V28.9509H142.967V30.3309H144.197C144.675 30.3309 145.056 30.4559 145.341 30.7058C145.625 30.95 145.768 31.2794 145.768 31.694C145.768 32.1086 145.631 32.4408 145.358 32.6907C145.085 32.9406 144.706 33.0656 144.222 33.0656ZM142.967 30.8676V32.5289H144.111C144.436 32.5289 144.689 32.4579 144.871 32.3159C145.053 32.1682 145.144 31.9638 145.144 31.7025C145.144 31.4356 145.053 31.2311 144.871 31.0891C144.689 30.9415 144.436 30.8676 144.111 30.8676H142.967Z" fill="#103F45"/>
<path d="M150.486 33.1678C149.843 33.1678 149.302 32.9662 148.864 32.5629C148.431 32.1654 148.215 31.6486 148.215 31.0125C148.215 30.3991 148.409 29.8851 148.796 29.4705C149.188 29.0559 149.692 28.8486 150.307 28.8486C150.637 28.8486 150.93 28.9168 151.186 29.0531C151.442 29.1837 151.644 29.3569 151.792 29.5728C151.94 29.7886 152.051 30.0186 152.125 30.2628C152.199 30.5013 152.236 30.7427 152.236 30.9869V31.1573H148.847C148.881 31.6003 149.057 31.9552 149.376 32.2222C149.701 32.4834 150.11 32.6141 150.606 32.6141C151.084 32.6141 151.525 32.4863 151.929 32.2307V32.7759C151.593 33.0372 151.112 33.1678 150.486 33.1678ZM148.855 30.6547H151.613C151.596 30.3366 151.476 30.0498 151.254 29.7942C151.044 29.533 150.719 29.4024 150.281 29.4024C149.871 29.4024 149.536 29.5273 149.274 29.7772C149.018 30.0328 148.878 30.3253 148.855 30.6547Z" fill="#103F45"/>
<path d="M155.694 34.2838H155.104V32.5289H155.625C156.081 31.9269 156.314 30.9273 156.325 29.5302L156.334 28.9509H159.399V32.5289H160.167V34.2838H159.57V33.0656H155.694V34.2838ZM156.308 32.5289H158.784V29.4876H156.906V29.7346C156.906 30.9614 156.707 31.8928 156.308 32.5289Z" fill="#103F45"/>
<path d="M163.492 33.0656H161.178V28.9509H163.347C163.74 28.9509 164.044 29.0474 164.26 29.2405C164.482 29.4279 164.593 29.6807 164.593 29.9987C164.593 30.4417 164.423 30.7427 164.081 30.9017C164.605 31.0551 164.867 31.4072 164.867 31.9581C164.867 32.3045 164.747 32.5771 164.508 32.7759C164.269 32.969 163.93 33.0656 163.492 33.0656ZM161.793 31.2084V32.5289H163.364C163.643 32.5289 163.859 32.4721 164.013 32.3585C164.166 32.2449 164.243 32.083 164.243 31.8729C164.243 31.6628 164.166 31.5009 164.013 31.3873C163.859 31.268 163.643 31.2084 163.364 31.2084H161.793ZM161.793 29.4876V30.6973H163.176C163.432 30.6973 163.631 30.6462 163.774 30.5439C163.916 30.436 163.987 30.2855 163.987 30.0924C163.987 29.6892 163.717 29.4876 163.176 29.4876H161.793Z" fill="#103F45"/>
<path d="M166.678 33.0656H166.106V28.9509H166.72V32.1625L169.358 28.9509H169.93V33.0656H169.316V29.8624L166.678 33.0656Z" fill="#103F45"/>
<path d="M171.998 33.0656H171.383V28.9509H174.482V29.4876H171.998V33.0656Z" fill="#103F45"/>
<path d="M176.693 32.6141C176.978 32.6141 177.248 32.5487 177.504 32.4181C177.761 32.2875 177.968 32.1228 178.128 31.924V31.3532C177.707 31.0806 177.26 30.9443 176.787 30.9443C176.412 30.9443 176.113 31.0182 175.891 31.1658C175.675 31.3135 175.566 31.5151 175.566 31.7707C175.566 32.0376 175.672 32.2449 175.882 32.3926C176.093 32.5402 176.363 32.6141 176.693 32.6141ZM176.523 33.1678C176.084 33.1678 175.712 33.0485 175.404 32.81C175.103 32.5601 174.952 32.225 174.952 31.8047C174.952 31.3902 175.111 31.0579 175.43 30.808C175.749 30.5638 176.153 30.4417 176.642 30.4417C177.177 30.4417 177.672 30.5752 178.128 30.8421V30.4332C178.128 29.746 177.675 29.4024 176.77 29.4024C176.286 29.4024 175.837 29.5415 175.421 29.8198V29.2235C175.825 28.9736 176.318 28.8486 176.898 28.8486C177.462 28.8486 177.909 28.9821 178.239 29.249C178.575 29.5103 178.742 29.8851 178.742 30.3735V32.0688C178.742 32.2279 178.777 32.3528 178.845 32.4437C178.919 32.5345 179.016 32.58 179.135 32.58C179.226 32.58 179.306 32.5629 179.374 32.5289V33.0059C179.283 33.0684 179.147 33.0996 178.964 33.0996C178.759 33.0996 178.586 33.0457 178.444 32.9378C178.307 32.8242 178.222 32.6595 178.187 32.4437C177.772 32.9264 177.217 33.1678 176.523 33.1678Z" fill="#103F45"/>
<path d="M181.876 33.0656H181.261V29.4876H179.767V28.9509H183.37V29.4876H181.876V33.0656Z" fill="#103F45"/>
<path d="M186.178 33.1678C185.535 33.1678 184.994 32.9662 184.556 32.5629C184.124 32.1654 183.907 31.6486 183.907 31.0125C183.907 30.3991 184.101 29.8851 184.488 29.4705C184.881 29.0559 185.384 28.8486 185.999 28.8486C186.329 28.8486 186.622 28.9168 186.878 29.0531C187.135 29.1837 187.337 29.3569 187.485 29.5728C187.633 29.7886 187.744 30.0186 187.817 30.2628C187.891 30.5013 187.928 30.7427 187.928 30.9869V31.1573H184.539C184.573 31.6003 184.75 31.9552 185.068 32.2222C185.393 32.4834 185.803 32.6141 186.298 32.6141C186.776 32.6141 187.217 32.4863 187.621 32.2307V32.7759C187.285 33.0372 186.804 33.1678 186.178 33.1678ZM184.548 30.6547H187.305C187.288 30.3366 187.169 30.0498 186.947 29.7942C186.736 29.533 186.412 29.4024 185.973 29.4024C185.564 29.4024 185.228 29.5273 184.966 29.7772C184.71 30.0328 184.57 30.3253 184.548 30.6547Z" fill="#103F45"/>
<path d="M188.479 33.0656V32.5033C188.507 32.509 188.561 32.5118 188.641 32.5118C189 32.5118 189.244 32.2847 189.375 31.8303C189.483 31.4668 189.552 30.9443 189.58 30.2628L189.614 28.9509H192.696V33.0656H192.082V29.4876H190.203L190.178 30.2798C190.166 30.5865 190.155 30.808 190.144 30.9443C190.092 31.5009 190.01 31.9098 189.896 32.1711C189.794 32.4437 189.637 32.668 189.426 32.8441C189.216 33.0145 188.96 33.0911 188.658 33.0741C188.567 33.0741 188.507 33.0712 188.479 33.0656Z" fill="#103F45"/>
<path d="M194.716 33.0656H194.144V28.9509H194.759V32.1625L197.397 28.9509H197.969V33.0656H197.354V29.8624L194.716 33.0656Z" fill="#103F45"/>
<path d="M19.9361 33.5801C17.1488 33.5801 15.7479 34.7303 14.3982 35.8446C13.0486 36.9589 11.8897 37.9079 9.42513 37.9079C6.96058 37.9079 5.75765 36.9086 4.44469 35.8446L4.20264 35.6433C5.31194 36.9508 6.70866 37.9953 8.28821 38.6987C8.66491 38.7496 9.04488 38.7736 9.42513 38.7706C12.2124 38.7706 13.6134 37.6203 14.963 36.506C16.3127 35.3917 17.4716 34.45 19.9361 34.45C22.4007 34.45 23.6036 35.4492 24.9166 36.506L25.4007 36.9086C25.6207 36.7145 25.8408 36.5132 26.0462 36.3047L25.4814 35.8446C24.1317 34.7303 22.7381 33.5801 19.9361 33.5801Z" fill="#CAA45D"/>
<path d="M19.9369 29.2955C17.1496 29.2955 15.7486 30.4529 14.399 31.56C13.0493 32.6671 11.8904 33.6233 9.42585 33.6233C6.96131 33.6233 5.75837 32.624 4.44541 31.56C3.48017 30.6513 2.31619 29.9702 1.04199 29.5687C1.15202 29.9209 1.26204 30.2876 1.38674 30.5967C2.30338 31.0035 3.14584 31.5548 3.88062 32.2286C5.23759 33.3429 6.60189 34.5075 9.42585 34.5075C12.2498 34.5075 13.6141 33.3573 14.9638 32.243C16.3134 31.1287 17.4723 30.1941 19.9369 30.1941C22.4014 30.1941 23.6043 31.1934 24.9173 32.2574C25.7753 33.0358 26.7691 33.6568 27.8513 34.0906C28.0053 33.8461 28.152 33.5873 28.2987 33.3285C27.2635 32.9309 26.3169 32.3401 25.5114 31.5888C24.1325 30.4529 22.7388 29.2955 19.9369 29.2955Z" fill="#CAA45D"/>
<path d="M25.7971 26.9519C24.3961 25.8376 22.9438 24.6873 20.0611 24.6873C17.1785 24.6873 15.7335 25.8376 14.3325 26.9519C12.9315 28.0662 11.7359 29.0151 9.15403 29.0151C6.57213 29.0151 5.31785 28.0374 3.97555 26.9519C2.86158 25.9234 1.4901 25.2017 0 24.8599C0.0440098 25.169 0.0953545 25.4781 0.146699 25.7801C1.36751 26.1377 2.48723 26.7677 3.41809 27.6205C4.81907 28.7348 6.27139 29.885 9.15403 29.885C12.0367 29.885 13.489 28.7348 14.8826 27.6205C16.2763 26.5062 17.4939 25.5572 20.0611 25.5572C22.6284 25.5572 23.8973 26.5565 25.2396 27.6205C26.4881 28.7672 28.06 29.5188 29.7506 29.7772C29.8313 29.504 29.9193 29.2236 30 28.9361C28.4213 28.7234 26.9508 28.0292 25.7971 26.9519V26.9519Z" fill="#CAA45D"/>
<path d="M14.2813 39.6621L13.9146 39.9569C14.3546 39.9569 14.7947 39.9928 15.2422 40C16.473 38.8588 18.1104 38.2344 19.8045 38.2603C20.7083 38.2401 21.606 38.4092 22.4378 38.7563C22.7752 38.6053 23.1053 38.4472 23.428 38.2747C22.3242 37.6628 21.0723 37.3548 19.8045 37.3832C17.0319 37.3832 15.6309 38.5478 14.2813 39.6621Z" fill="#CAA45D"/>
<path d="M5.77222 20.2157L14.6695 16.2832C14.6951 16.2726 14.7229 16.2683 14.7506 16.2707C14.7783 16.2731 14.8049 16.2822 14.8281 16.2972C14.8513 16.3121 14.8704 16.3324 14.8837 16.3563C14.897 16.3802 14.904 16.407 14.9042 16.4342V24.4428C14.9028 24.4734 14.9104 24.5038 14.9262 24.5303C14.942 24.5567 14.9653 24.5781 14.9933 24.5918C15.0212 24.6055 15.0527 24.611 15.0838 24.6075C15.1148 24.604 15.1442 24.5918 15.1683 24.5722L15.7111 24.2056C15.7332 24.1915 15.7514 24.1724 15.7642 24.1498C15.777 24.1273 15.7839 24.102 15.7844 24.0762V16.3407C15.7846 16.3135 15.7917 16.2868 15.805 16.2629C15.8183 16.239 15.8374 16.2186 15.8606 16.2037C15.8838 16.1888 15.9104 16.1797 15.9381 16.1773C15.9658 16.1748 15.9936 16.1791 16.0192 16.1898L25.0852 20.2157C25.1062 20.2262 25.1247 20.2408 25.1399 20.2586C25.155 20.2764 25.1663 20.2969 25.1731 20.319C25.18 20.3412 25.1822 20.3644 25.1797 20.3874C25.1772 20.4104 25.17 20.4327 25.1585 20.4529C24.49 21.4725 23.7342 22.4345 22.8994 23.3285C22.8805 23.3473 22.8668 23.3704 22.8595 23.3958C22.8521 23.4211 22.8513 23.4478 22.8571 23.4735C22.8629 23.4992 22.8752 23.5231 22.8928 23.543C22.9105 23.5628 22.9329 23.5781 22.958 23.5873C23.138 23.6577 23.3143 23.7369 23.4861 23.8246C23.5157 23.8431 23.5501 23.853 23.5852 23.853C23.6203 23.853 23.6546 23.8431 23.6842 23.8246C23.9776 23.5082 24.271 23.1704 24.5571 22.8181C25.8242 21.2501 26.8908 19.5359 27.7331 17.7139L27.8358 17.4838C27.8532 17.4457 27.8544 17.4023 27.8393 17.3633C27.8242 17.3242 27.7939 17.2926 27.7551 17.2753L21.8138 14.3997C21.7862 14.3869 21.7632 14.3665 21.7475 14.3409C21.7319 14.3153 21.7243 14.2857 21.7258 14.2559V9.48238C21.7234 9.44873 21.711 9.41649 21.6902 9.38966C21.6693 9.36282 21.6409 9.34257 21.6084 9.33141L20.0167 8.82099C19.9842 8.80982 19.9558 8.78957 19.9349 8.76274C19.9141 8.73591 19.9017 8.70367 19.8994 8.67002V3.87491C19.9003 3.85354 19.8969 3.8322 19.8892 3.81217C19.8816 3.79215 19.8698 3.77385 19.8548 3.75839C19.8397 3.74294 19.8216 3.73064 19.8015 3.72225C19.7814 3.71385 19.7598 3.70954 19.738 3.70956H15.9311C15.909 3.70956 15.887 3.70528 15.8666 3.69697C15.8461 3.68866 15.8275 3.67648 15.8118 3.66113C15.7962 3.64578 15.7838 3.62755 15.7753 3.60749C15.7668 3.58743 15.7624 3.56592 15.7624 3.54421V0.165349C15.7624 0.121495 15.7447 0.0794384 15.713 0.0484296C15.6814 0.0174207 15.6385 8.44945e-08 15.5937 8.44945e-08H15.0436C15.0218 -2.20234e-05 15.0002 0.00429446 14.9801 0.0126885C14.96 0.0210825 14.9419 0.0333796 14.9268 0.0488361C14.9117 0.0642925 14.9 0.0825872 14.8924 0.102614C14.8847 0.12264 14.8812 0.143982 14.8822 0.165349V3.54421C14.8822 3.56592 14.8779 3.58743 14.8694 3.60749C14.8609 3.62755 14.8485 3.64578 14.8328 3.66113C14.8172 3.67648 14.7986 3.68866 14.7781 3.69697C14.7576 3.70528 14.7357 3.70956 14.7135 3.70956H11.1561C11.1343 3.70954 11.1127 3.71385 11.0926 3.72225C11.0725 3.73064 11.0544 3.74294 11.0393 3.75839C11.0242 3.77385 11.0125 3.79215 11.0048 3.81217C10.9972 3.8322 10.9937 3.85354 10.9947 3.87491V8.53342C10.9933 8.56735 10.9813 8.60004 10.9603 8.62706C10.9393 8.65407 10.9104 8.67408 10.8774 8.68439L8.9996 9.25952C8.96796 9.27101 8.94056 9.29154 8.92095 9.31845C8.90134 9.34537 8.89041 9.37743 8.88958 9.41049V14.3781C8.88861 14.4084 8.87922 14.4377 8.8624 14.4631C8.84559 14.4884 8.82201 14.5088 8.79422 14.5219L3.1243 17.2969C3.08674 17.3155 3.05763 17.3472 3.0427 17.3858C3.02778 17.4244 3.0281 17.467 3.04361 17.5054L3.1463 17.7426C4.00008 19.5394 5.07135 21.229 6.33701 22.775C7.68818 24.5104 9.41391 25.9318 11.3908 26.9374C11.4354 26.9554 11.4855 26.9554 11.5302 26.9374C11.7633 26.8499 11.9911 26.7491 12.2123 26.6355C12.2401 26.6217 12.2634 26.6006 12.2796 26.5746C12.2959 26.5485 12.3045 26.5186 12.3045 26.4881C12.3045 26.4576 12.2959 26.4277 12.2796 26.4017C12.2634 26.3757 12.2401 26.3546 12.2123 26.3407C9.315 25.1617 7.09985 22.5449 5.69887 20.4529C5.68501 20.4333 5.67584 20.4109 5.67206 20.3873C5.66828 20.3638 5.66998 20.3397 5.67704 20.3169C5.68409 20.2941 5.69632 20.2731 5.7128 20.2556C5.72928 20.2381 5.74959 20.2244 5.77222 20.2157V20.2157ZM15.9311 4.57225H18.8651C18.8873 4.57225 18.9092 4.57652 18.9297 4.58483C18.9502 4.59314 18.9688 4.60532 18.9844 4.62068C19.0001 4.63603 19.0125 4.65426 19.021 4.67432C19.0295 4.69438 19.0338 4.71588 19.0338 4.7376V8.28181C19.0328 8.30727 19.0258 8.33217 19.0133 8.35454C19.0009 8.37691 18.9833 8.39615 18.962 8.41077C18.9407 8.42539 18.9162 8.43498 18.8905 8.4388C18.8648 8.44261 18.8385 8.44055 18.8138 8.43278L15.8798 7.50539C15.8462 7.49605 15.8166 7.47629 15.7954 7.44907C15.7743 7.42185 15.7627 7.38864 15.7624 7.35442V4.7376C15.7624 4.69374 15.7802 4.65168 15.8118 4.62068C15.8435 4.58967 15.8864 4.57225 15.9311 4.57225V4.57225ZM15.9825 8.44715L20.7062 9.95686C20.739 9.96878 20.7672 9.99041 20.7869 10.0187C20.8066 10.0471 20.8169 10.0807 20.8162 10.115V13.6017C20.8167 13.629 20.81 13.656 20.7967 13.68C20.7835 13.704 20.764 13.7243 20.7404 13.7388C20.7168 13.7532 20.6897 13.7615 20.6619 13.7626C20.634 13.7638 20.6063 13.7579 20.5815 13.7455L15.8578 11.4522C15.83 11.4391 15.8064 11.4187 15.7896 11.3934C15.7728 11.368 15.7634 11.3386 15.7624 11.3084V8.62688C15.7585 8.59905 15.7619 8.5707 15.7722 8.5445C15.7825 8.5183 15.7995 8.49511 15.8215 8.47712C15.8436 8.45914 15.8699 8.44695 15.898 8.44171C15.9262 8.43646 15.9553 8.43834 15.9825 8.44715V8.44715ZM15.9825 12.4874L26.5595 17.6276C26.5975 17.6475 26.6263 17.681 26.64 17.7211C26.6536 17.7612 26.6511 17.8049 26.6328 17.8433C26.4421 18.2171 26.1487 18.7707 25.76 19.4249C25.7398 19.4604 25.7065 19.4869 25.6668 19.4989C25.6272 19.511 25.5844 19.5076 25.5473 19.4896L15.8358 15.1761C15.8069 15.1645 15.7823 15.1445 15.7653 15.1188C15.7482 15.0931 15.7396 15.063 15.7404 15.0323V12.6384C15.7375 12.6071 15.7438 12.5756 15.7585 12.5476C15.7732 12.5196 15.7957 12.4964 15.8234 12.4805C15.8512 12.4647 15.8829 12.4569 15.915 12.4581C15.9471 12.4593 15.9781 12.4695 16.0045 12.4874H15.9825ZM12.0216 4.57944H14.6915C14.7363 4.57944 14.7792 4.59686 14.8108 4.62787C14.8425 4.65887 14.8602 4.70093 14.8602 4.74478V7.35442C14.86 7.38864 14.8484 7.42185 14.8272 7.44907C14.8061 7.47629 14.7765 7.49605 14.7429 7.50539L12.0729 8.32494C12.0477 8.33137 12.0212 8.33221 11.9956 8.32739C11.9699 8.32257 11.9457 8.31222 11.9246 8.29707C11.9035 8.28193 11.8862 8.26238 11.8738 8.23985C11.8614 8.21731 11.8542 8.19235 11.8529 8.16678V4.7376C11.8527 4.71394 11.8577 4.69052 11.8675 4.66891C11.8773 4.6473 11.8917 4.62801 11.9098 4.61234C11.9279 4.59666 11.9492 4.58497 11.9723 4.57806C11.9954 4.57114 12.0197 4.56916 12.0436 4.57225L12.0216 4.57944ZM9.86513 9.89935L14.6402 8.46153C14.665 8.45376 14.6912 8.45169 14.7169 8.45551C14.7426 8.45933 14.7671 8.46892 14.7884 8.48354C14.8097 8.49815 14.8273 8.5174 14.8397 8.53977C14.8522 8.56214 14.8592 8.58703 14.8602 8.6125V11.4378C14.8601 11.4682 14.8511 11.498 14.8342 11.5235C14.8173 11.549 14.7932 11.5691 14.7649 11.5816L9.98982 13.9324C9.96477 13.9466 9.93629 13.954 9.90736 13.9537C9.87842 13.9534 9.85009 13.9455 9.82534 13.9308C9.8006 13.9161 9.78034 13.8951 9.76669 13.8701C9.75304 13.8451 9.7465 13.817 9.74777 13.7886V10.0647C9.74359 10.0238 9.7558 9.98298 9.78181 9.95077C9.80782 9.91857 9.84559 9.89755 9.88713 9.89216L9.86513 9.89935ZM4.28322 17.6923L14.6695 12.6024C14.6946 12.5882 14.7231 12.5809 14.752 12.5812C14.7809 12.5815 14.8093 12.5894 14.834 12.6041C14.8587 12.6188 14.879 12.6397 14.8927 12.6647C14.9063 12.6897 14.9128 12.7179 14.9116 12.7462V15.097C14.9105 15.1291 14.9003 15.1602 14.8821 15.1868C14.864 15.2135 14.8386 15.2347 14.8089 15.248L5.27344 19.4608C5.23621 19.4827 5.19181 19.4897 5.14945 19.4803C5.1071 19.471 5.07007 19.4459 5.04606 19.4105C4.67197 18.785 4.39324 18.2602 4.20987 17.8936C4.19419 17.8571 4.19302 17.8162 4.2066 17.779C4.22018 17.7417 4.24752 17.7108 4.28322 17.6923V17.6923Z" fill="#CAA45D"/>
</svg>
