<svg width="211" height="38" viewBox="0 0 211 38" xmlns="http://www.w3.org/2000/svg" fill="none"><path d="M46.339 21.005c-2.077 0-3.823-.677-5.238-2.032-1.389-1.368-2.084-3.102-2.084-5.201 0-2.099.694-3.826 2.084-5.181 1.376-1.368 3.122-2.052 5.238-2.052 1.416 0 2.672.312 3.77.937v2.212c-1.124-.731-2.374-1.096-3.75-1.096-1.455 0-2.672.492-3.651 1.475-.966.97-1.449 2.205-1.449 3.706s.489 2.743 1.468 3.726c.979.97 2.216 1.455 3.711 1.455 1.587 0 2.91-.425 3.969-1.275v2.212c-1.164.744-2.52 1.116-4.068 1.116zM54.453 20.906c-.397 0-.734-.133-1.012-.398-.265-.279-.397-.618-.397-1.016 0-.385.132-.711.397-.976.278-.279.615-.419 1.012-.419.37 0 .695.139.972.419.278.266.417.591.417.976 0 .398-.139.737-.417 1.016-.265.266-.589.398-.972.398zM63.025 21.005c-2.117 0-3.856-.498-5.219-1.494v-2.371c.542.478 1.29.903 2.242 1.275.953.359 1.905.538 2.857.538.939 0 1.707-.186 2.302-.558.609-.372.913-.877.913-1.514 0-.505-.205-.937-.615-1.295-.159-.146-.397-.286-.714-.418-.384-.186-1.019-.405-1.905-.658l-.278-.08c-.754-.212-1.356-.405-1.806-.578-.357-.133-.82-.365-1.389-.697-.953-.598-1.429-1.534-1.429-2.81 0-1.156.45-2.079 1.349-2.77.913-.691 2.143-1.036 3.691-1.036 1.68 0 3.162.385 4.445 1.156v2.192c-1.416-.864-2.884-1.295-4.405-1.295-.926 0-1.634.166-2.123.498-.476.319-.714.744-.714 1.275 0 .452.271.87.814 1.255l.337.179.496.179.397.139 1.587.458c.966.292 1.812.638 2.54 1.036 1.23.664 1.885 1.74 1.965 3.228 0 1.289-.509 2.305-1.528 3.049-1.019.744-2.288 1.116-3.81 1.116zM71.738 20.906c-.397 0-.734-.133-1.012-.398-.265-.279-.397-.618-.397-1.016 0-.385.132-.711.397-.976.278-.279.615-.419 1.012-.419.371 0 .695.139.972.419.278.266.417.591.417.976 0 .398-.139.737-.417 1.016-.265.266-.589.398-.972.398zM78.207 20.746h-2.183v-13.949h2.183v13.949zM82.551 20.906c-.397 0-.734-.133-1.012-.398-.265-.279-.397-.618-.397-1.016 0-.385.132-.711.397-.976.278-.279.615-.419 1.012-.419.37 0 .695.139.972.419.278.266.417.591.417.976 0 .398-.139.737-.417 1.016-.265.266-.589.398-.972.398zM94.075 20.746h-2.183v-13.949h2.222l4.504 6.277 4.465-6.277h2.183v13.949h-2.183v-10.601l-3.87 5.261h-1.27l-3.869-5.261v10.601zM109.744 20.746h-2.321l6.072-14.029h2.103l6.072 14.029h-2.342l-1.508-3.467h-6.588l-1.488 3.467zm4.782-11.259l-2.539 5.859h5.079l-2.54-5.859zM129.665 21.005c-2.077 0-3.823-.677-5.239-2.032-1.389-1.368-2.083-3.102-2.083-5.201 0-2.099.694-3.826 2.083-5.181 1.376-1.368 3.122-2.052 5.239-2.052 1.415 0 2.672.312 3.77.937v2.212c-1.124-.731-2.374-1.096-3.75-1.096-1.455 0-2.672.492-3.651 1.475-.966.97-1.449 2.205-1.449 3.706s.49 2.743 1.469 3.726c.978.97 2.215 1.455 3.71 1.455 1.588 0 2.911-.425 3.969-1.275v2.212c-1.164.744-2.52 1.116-4.068 1.116zM138.586 20.746h-2.182v-13.949h2.182v5.5h7.243v-5.5h2.183v13.949h-2.183v-6.436h-7.243v6.436zM153.742 20.746h-2.182v-13.949h2.182v13.949zM159.456 20.746h-2.143v-13.949h1.904l7.838 10.103v-10.103h2.144v13.949h-1.846l-7.897-10.143v10.143zM182.8 20.746h-10.14v-13.949h9.882v2.013h-7.699v3.487h6.27v2.013h-6.27v4.424h7.957v2.013zM187.555 20.746h-2.183v-13.949h6.33c1.429 0 2.546.365 3.353 1.096.821.744 1.231 1.7 1.231 2.87 0 .97-.272 1.8-.814 2.491-.529.678-1.263 1.129-2.203 1.355l4.366 6.138h-2.639l-4.187-5.898h-3.254v5.898zm0-11.936v4.105h4.008c.794 0 1.409-.179 1.845-.538.45-.359.675-.87.675-1.534 0-.638-.225-1.136-.675-1.495-.436-.359-1.051-.538-1.845-.538h-4.008zM205.456 20.746h-2.183v-6.317l-5.377-7.632h2.54l3.968 5.639 3.969-5.639h2.461l-5.378 7.572v6.377zM42.264 33.019c-.883 0-1.624-.296-2.224-.886-.588-.591-.883-1.344-.883-2.259 0-.91.294-1.66.883-2.251.594-.597 1.335-.895 2.224-.895.658 0 1.223.151 1.696.452v.66c-.531-.342-1.093-.513-1.687-.513-.692 0-1.278.243-1.756.73-.473.475-.71 1.08-.71 1.816 0 .741.237 1.35.71 1.825.479.481 1.07.721 1.774.721s1.304-.203 1.8-.608v.669c-.496.359-1.105.539-1.826.539zM45.326 34.687c-.3 0-.522-.041-.666-.122v-.582c.179.093.369.139.571.139.254 0 .473-.107.658-.322.184-.209.378-.556.58-1.043l-1.86-4.041h.692l1.48 3.302 1.436-3.302h.675l-2.068 4.666c-.375.869-.874 1.303-1.497 1.303zM49.623 34.157h-.597v-1.79h.528c.461-.614.698-1.634.709-3.059l.009-.591h3.106v3.65h.779v1.79h-.606v-1.243h-3.928v1.243zm.623-1.79h2.509v-3.102h-1.904v.252c0 1.251-.202 2.201-.606 2.85zM55.51 29.265c.421-.434.963-.652 1.627-.652.663 0 1.206.217 1.627.652.421.423.632.941.632 1.555s-.211 1.133-.632 1.555c-.427.429-.969.643-1.627.643s-1.2-.214-1.627-.643c-.421-.423-.632-.941-.632-1.555s.21-1.133.632-1.555zm3.245 1.555c0-.463-.153-.854-.459-1.173-.306-.313-.692-.469-1.16-.469-.467 0-.854.156-1.159.469-.306.319-.459.71-.459 1.173 0 .458.153.846.459 1.164.306.313.692.469 1.159.469.467 0 .854-.156 1.16-.469.306-.319.459-.707.459-1.164zM62.901 32.914h-2.345v-4.197h2.198c.398 0 .707.098.926.295.225.191.338.449.338.773 0 .452-.173.759-.519.921.531.156.796.516.796 1.078 0 .353-.121.631-.363.834-.242.197-.585.295-1.03.295zm-1.722-1.894v1.347h1.592c.283 0 .502-.058.658-.174.156-.116.234-.281.234-.495 0-.214-.078-.379-.234-.495-.156-.122-.375-.183-.658-.183h-1.592zm0-1.755v1.234h1.402c.26 0 .462-.052.606-.156.144-.11.216-.264.216-.461 0-.411-.274-.617-.822-.617h-1.402zM70.326 32.914h-.623v-4.197h.623v4.197zm-2.881 0h-1.895v-4.197h.623v1.408h1.246c.485 0 .871.128 1.159.382.288.249.433.585.433 1.008 0 .423-.139.762-.415 1.017-.277.255-.66.382-1.151.382zm-1.272-2.242v1.694h1.159c.329 0 .585-.072.77-.217.185-.151.277-.359.277-.626 0-.272-.092-.481-.277-.626-.185-.151-.441-.226-.77-.226h-1.159zM73.793 33.019c-.652 0-1.2-.206-1.644-.617-.438-.405-.658-.933-.658-1.581 0-.626.196-1.15.588-1.573.398-.423.909-.634 1.532-.634.335 0 .632.07.891.209.26.133.464.31.614.53.15.22.262.455.337.704.075.243.112.49.112.739v.174h-3.435c.035.452.213.814.536 1.086.329.266.744.4 1.246.4.484 0 .932-.13 1.341-.391v.556c-.34.267-.828.4-1.462.4zm-1.653-2.563h2.795c-.017-.324-.138-.617-.363-.878-.213-.267-.542-.4-.986-.4-.415 0-.756.127-1.021.382-.26.261-.401.559-.424.895zM79.599 32.914h-.58v-4.197h.623v3.276l2.674-3.276h.58v4.197h-.623v-3.267l-2.674 3.267zM87.272 32.914h-.623v-4.197h3.755v4.197h-.623v-3.649h-2.509v3.649zM92.495 32.245v2.407h-.623v-5.935h.623v.669c.392-.516.932-.773 1.618-.773.617 0 1.122.214 1.514.643.392.429.588.947.588 1.555 0 .614-.196 1.135-.588 1.564-.392.429-.897.643-1.514.643-.687 0-1.226-.258-1.618-.773zm0-2.12v1.382c.121.278.317.507.588.686.271.174.565.261.883.261.467 0 .851-.156 1.151-.469.306-.324.459-.715.459-1.173 0-.458-.153-.846-.459-1.164-.3-.313-.684-.469-1.151-.469-.311 0-.603.09-.874.269-.271.174-.47.4-.597.678zM97.701 29.265c.421-.434.963-.652 1.627-.652.663 0 1.206.217 1.627.652.421.423.632.941.632 1.555s-.211 1.133-.632 1.555c-.427.429-.969.643-1.627.643s-1.2-.214-1.627-.643c-.421-.423-.632-.941-.632-1.555s.211-1.133.632-1.555zm3.245 1.555c0-.463-.153-.854-.458-1.173-.306-.313-.693-.469-1.16-.469-.467 0-.854.156-1.16.469-.306.319-.459.71-.459 1.173 0 .458.153.846.459 1.164.306.313.692.469 1.16.469.467 0 .854-.156 1.16-.469.305-.319.458-.707.458-1.164zM103.352 32.914h-.605v-4.197h.605l1.67 1.947 1.679-1.947h.606v4.197h-.606v-3.337l-1.557 1.816h-.243l-1.549-1.816v3.337zM113.556 32.914h-.623v-4.197h.623v4.197zm-2.881 0h-1.895v-4.197h.623v1.408h1.246c.485 0 .871.128 1.16.382.288.249.432.585.432 1.008 0 .423-.138.762-.415 1.017-.277.255-.661.382-1.151.382zm-1.272-2.242v1.694h1.16c.328 0 .585-.072.77-.217.184-.151.277-.359.277-.626 0-.272-.093-.481-.277-.626-.185-.151-.442-.226-.77-.226h-1.16zM120.71 32.914h-5.685v-4.197h.623v3.65h1.903v-3.65h.623v3.65h1.913v-3.65h.623v4.197zM121.628 32.914v-.574l.164.009c.364 0 .612-.232.745-.695.109-.371.178-.904.207-1.599l.035-1.338h3.124v4.197h-.623v-3.649h-1.904l-.026.808-.035.678c-.052.568-.135.985-.251 1.251-.103.278-.262.507-.475.686-.214.174-.473.252-.779.235l-.182-.009zM129.369 33.019c-.652 0-1.2-.206-1.644-.617-.438-.405-.658-.933-.658-1.581 0-.626.196-1.15.589-1.573.398-.423.908-.634 1.531-.634.335 0 .632.07.892.209.259.133.464.31.614.53.15.22.262.455.337.704.075.243.113.49.113.739v.174h-3.435c.034.452.213.814.536 1.086.329.266.744.4 1.246.4.485 0 .932-.13 1.341-.391v.556c-.34.267-.827.4-1.462.4zm-1.653-2.563h2.795c-.017-.324-.138-.617-.363-.878-.214-.267-.542-.4-.987-.4-.415 0-.755.127-1.021.382-.259.261-.401.559-.424.895zM132.936 32.914h-.623v-4.197h.623v1.764h2.57v-1.764h.623v4.197h-.623v-1.868h-2.57v1.868zM138.226 32.914h-.623v-4.197h.623v1.764h2.57v-1.764h.623v4.197h-.623v-1.868h-2.57v1.868zM147.669 32.914h-.623v-4.197h.623v4.197zm-2.881 0h-1.895v-4.197h.623v1.408h1.246c.484 0 .871.128 1.159.382.289.249.433.585.433 1.008 0 .423-.138.762-.415 1.017-.277.255-.661.382-1.151.382zm-1.272-2.242v1.694h1.159c.329 0 .586-.072.77-.217.185-.151.277-.359.277-.626 0-.272-.092-.481-.277-.626-.184-.151-.441-.226-.77-.226h-1.159zM151.136 33.019c-.652 0-1.2-.206-1.644-.617-.438-.405-.657-.933-.657-1.581 0-.626.196-1.15.588-1.573.398-.423.909-.634 1.532-.634.334 0 .631.07.891.209.259.133.464.31.614.53.15.22.263.455.338.704.075.243.112.49.112.739v.174h-3.435c.035.452.213.814.536 1.086.329.266.745.4 1.246.4.485 0 .932-.13 1.342-.391v.556c-.341.267-.828.4-1.463.4zm-1.652-2.563h2.794c-.017-.324-.138-.617-.363-.878-.213-.267-.542-.4-.986-.4-.416 0-.756.127-1.021.382-.26.261-.401.559-.424.895zM156.414 34.157h-.597v-1.79h.528c.461-.614.698-1.634.71-3.059l.008-.591h3.107v3.65h.778v1.79h-.605v-1.243h-3.929v1.243zm.623-1.79h2.51v-3.102h-1.904v.252c0 1.251-.202 2.201-.606 2.85zM164.318 32.914h-2.345v-4.197h2.198c.398 0 .707.098.926.295.225.191.337.449.337.773 0 .452-.173.759-.519.921.531.156.796.516.796 1.078 0 .353-.121.631-.363.834-.243.197-.586.295-1.03.295zm-1.722-1.894v1.347h1.592c.283 0 .502-.058.658-.174.156-.116.233-.281.233-.495 0-.214-.077-.379-.233-.495-.156-.122-.375-.183-.658-.183h-1.592zm0-1.755v1.234h1.402c.259 0 .461-.052.606-.156.144-.11.216-.264.216-.461 0-.411-.274-.617-.822-.617h-1.402zM167.547 32.914h-.58v-4.197h.623v3.276l2.674-3.276h.58v4.197h-.623v-3.267l-2.674 3.267zM172.939 32.914h-.623v-4.197h3.141v.547h-2.518v3.649zM177.698 32.454c.288 0 .562-.067.822-.2.259-.133.47-.301.632-.504v-.582c-.427-.278-.88-.417-1.359-.417-.381 0-.684.075-.909.226-.219.151-.328.356-.328.617 0 .272.106.484.32.634.213.151.487.226.822.226zm-.173.565c-.444 0-.822-.122-1.134-.365-.305-.255-.458-.597-.458-1.025 0-.423.161-.762.484-1.017.323-.249.733-.374 1.229-.374.542 0 1.044.136 1.506.408v-.417c0-.701-.459-1.051-1.376-1.051-.491 0-.946.142-1.367.426v-.608c.409-.255.908-.382 1.497-.382.571 0 1.023.136 1.358.408.34.267.511.649.511 1.147v1.729c0 .162.034.29.103.382.075.093.173.139.295.139.092 0 .173-.017.242-.052v.487c-.092.064-.231.096-.415.096-.208 0-.384-.055-.528-.165-.139-.116-.225-.284-.26-.504-.421.492-.983.739-1.687.739zM182.95 32.914h-.623v-3.649h-1.514v-.547h3.652v.547h-1.515v3.649zM187.311 33.019c-.652 0-1.2-.206-1.644-.617-.439-.405-.658-.933-.658-1.581 0-.626.196-1.15.589-1.573.398-.423.908-.634 1.531-.634.335 0 .632.07.891.209.26.133.465.31.615.53.15.22.262.455.337.704.075.243.113.49.113.739v.174h-3.435c.034.452.213.814.536 1.086.329.266.744.4 1.246.4.485 0 .932-.13 1.341-.391v.556c-.34.267-.828.4-1.462.4zm-1.653-2.563h2.795c-.017-.324-.138-.617-.363-.878-.214-.267-.543-.4-.987-.4-.415 0-.755.127-1.021.382-.259.261-.401.559-.424.895zM189.642 32.914v-.574l.165.009c.363 0 .611-.232.744-.695.11-.371.179-.904.208-1.599l.034-1.338h3.124v4.197h-.623v-3.649h-1.904l-.026.808-.034.678c-.052.568-.136.985-.251 1.251-.104.278-.263.507-.476.686-.214.174-.473.252-.779.235l-.182-.009zM195.964 32.914h-.579v-4.197h.623v3.276l2.673-3.276h.58v4.197h-.623v-3.267l-2.674 3.267zM18.447 31.836c-2.579 0-3.875 1.091-5.124 2.147-1.249 1.056-2.321 1.956-4.602 1.956-2.28 0-3.394-.947-4.608-1.956l-.224-.191c1.026 1.239 2.319 2.23 3.78 2.897.349.048.7.071 1.052.068 2.579 0 3.875-1.09 5.124-2.147 1.249-1.056 2.321-1.949 4.602-1.949 2.28 0 3.394.947 4.608 1.949l.448.382c.204-.184.407-.375.597-.572l-.523-.436c-1.249-1.056-2.538-2.147-5.131-2.147zM18.447 27.774c-2.579 0-3.875 1.097-5.124 2.147-1.249 1.05-2.321 1.956-4.602 1.956-2.28 0-3.394-.947-4.608-1.956-.893-.862-1.97-1.507-3.149-1.888.102.334.204.682.319.975.848.386 1.628.908 2.308 1.547 1.256 1.056 2.518 2.161 5.131 2.161 2.613 0 3.875-1.091 5.124-2.147 1.249-1.056 2.321-1.942 4.602-1.942 2.28 0 3.394.947 4.609 1.956.794.738 1.713 1.327 2.715 1.738.142-.232.278-.477.414-.722-.958-.377-1.834-.937-2.579-1.649-1.276-1.077-2.566-2.174-5.158-2.174zM23.87 25.552c-1.296-1.056-2.64-2.147-5.308-2.147-2.667 0-4.004 1.09-5.301 2.147-1.296 1.056-2.403 1.956-4.792 1.956s-3.55-.927-4.792-1.956c-1.031-.975-2.3-1.659-3.679-1.983l.136.872c1.13.339 2.166.936 3.027 1.745 1.296 1.056 2.64 2.147 5.308 2.147 2.667 0 4.011-1.091 5.301-2.147 1.29-1.056 2.416-1.956 4.792-1.956 2.375 0 3.55.947 4.792 1.956 1.155 1.087 2.61 1.8 4.174 2.045l.231-.797c-1.461-.202-2.821-.86-3.889-1.881zM13.214 37.603l-.339.279c.407 0 .815.034 1.229.041 1.139-1.082 2.654-1.674 4.222-1.649.836-.019 1.667.141 2.437.47.312-.143.618-.293.916-.457-1.021-.58-2.18-.872-3.353-.845-2.566 0-3.862 1.104-5.111 2.161zM5.341 19.166l8.233-3.728.075-.012.072.025.051.056.019.074v7.593l.02.083.062.058.084.015.078-.033.502-.348.049-.053.019-.07v-7.334l.019-.074.051-.056.072-.025.075.012 8.389 3.817.051.041.031.057.006.065-.02.062c-.619.967-1.318 1.879-2.09 2.726l-.037.064-.002.074.033.066.06.042c.166.067.33.142.489.225l.092.027.092-.027c.271-.3.543-.62.808-.954 1.173-1.487 2.16-3.112 2.939-4.839l.095-.218.003-.114-.078-.083-5.498-2.726-.061-.056-.02-.081v-4.526l-.033-.088-.076-.055-1.473-.484-.076-.055-.033-.088v-4.546l-.009-.059-.032-.051-.049-.034-.059-.012h-3.522l-.06-.012-.051-.034-.034-.051-.012-.06v-3.203l-.046-.111-.11-.046h-.509l-.059.012-.049.034-.032.051-.009.059v3.203l-.012.06-.034.051-.051.034-.06.012h-3.292l-.059.012-.049.034-.032.051-.009.059v4.417l-.032.089-.077.054-1.738.545-.073.056-.029.087v4.71l-.025.08-.063.056-5.246 2.631-.075.084.001.113.095.225c.79 1.703 1.781 3.305 2.952 4.771 1.25 1.645 2.847 2.993 4.676 3.946h.129c.216-.083.427-.179.631-.286l.062-.058.023-.082-.023-.082-.062-.058c-2.681-1.118-4.731-3.599-6.027-5.582l-.025-.062.005-.067.033-.058.055-.038zm9.4-14.831h2.715l.06.012.051.034.034.051.012.06v3.36l-.019.069-.047.053-.066.027-.071-.006-2.715-.879-.078-.053-.03-.09v-2.481l.046-.111.11-.046zm.047 3.674l4.371 1.431.075.059.027.091v3.306l-.018.074-.052.056-.073.023-.074-.016-4.371-2.174-.063-.056-.025-.081v-2.542l.009-.078.046-.064.071-.034.078.005zm0 3.83l9.787 4.873.074.089-.007.116c-.176.354-.448.879-.808 1.5l-.086.07-.111-.009-8.986-4.089-.065-.054-.023-.082v-2.27l.017-.086.06-.064.085-.021.083.028h-.02zm-3.665-7.497h2.47l.11.046.046.111v2.474l-.03.09-.078.053-2.47.777-.072.002-.066-.029-.047-.054-.019-.069v-3.251l.014-.065.039-.054.058-.032.066-.006-.02.007zm-1.995 5.044l4.418-1.363.071-.006.066.027.047.053.019.069v2.679l-.024.081-.064.055-4.418 2.229-.076.02-.076-.022-.054-.058-.018-.077v-3.531l.032-.108.097-.056-.02.007zm-5.165 7.388l9.611-4.826.076-.02.076.022.054.057.018.077v2.229l-.027.085-.068.058-8.823 3.994-.115.019-.096-.066c-.346-.593-.604-1.09-.774-1.438l-.003-.109.071-.082z" fill="#F8F8F8"/></svg>