<svg width="73" height="99" viewBox="0 0 73 99" xmlns="http://www.w3.org/2000/svg" fill="none"><path d="M.015 45.47c.03-.468.114-.931.25-1.38.162-.504.383-.987.657-1.44l1.525.092c-.296.433-.541.898-.73 1.387-.163.434-.261.891-.289 1.354-.044.559.046 1.12.263 1.637.198.479.529.892.953 1.19.433.297.941.468 1.466.493.528.045 1.058-.057 1.532-.296.46-.237.841-.603 1.098-1.052.292-.483.465-1.028.506-1.591.025-.441-.013-.884-.112-1.315-.154-.56-.361-1.103-.618-1.624l1.525.092c.231.487.405.999.519 1.525.096.531.122 1.073.079 1.611-.03.817-.256 1.615-.657 2.327-.38.661-.944 1.198-1.624 1.545-.682.354-1.449.511-2.215.454-.799-.037-1.572-.299-2.228-.756-.659-.442-1.178-1.062-1.499-1.788-.327-.778-.464-1.623-.401-2.465zM7.338 39.889c.015-.12.053-.236.113-.34.06-.105.14-.197.235-.271.09-.076.195-.133.308-.167.113-.034.232-.044.349-.03.119.013.234.05.338.109.104.059.195.138.267.233.076.09.132.195.166.308.034.113.044.232.031.349-.013.12-.051.236-.111.342-.06.105-.141.197-.237.27-.09.077-.195.134-.308.168-.113.034-.232.044-.35.029-.121-.012-.239-.05-.345-.11-.106-.06-.199-.141-.273-.239-.142-.186-.208-.418-.184-.651zM1.54 32.941c.149-.812.5-1.574 1.019-2.215l1.4.256c-.58.593-.988 1.331-1.183 2.137-.079.328-.056.672.066.986.047.117.122.22.22.3.098.08.214.132.339.154.191.01.38-.029.552-.113.171-.084.319-.21.428-.367.101-.105.403-.519.907-1.242.332-.522.782-.959 1.315-1.275.459-.232.982-.302 1.486-.197.328.048.64.17.913.357.273.187.501.433.665.721.356.638.462 1.386.296 2.097-.075.457-.216.9-.421 1.315-.229.421-.507.814-.828 1.17l-1.571-.283c.77-.563 1.318-1.377 1.551-2.301.073-.33.043-.674-.085-.986-.051-.127-.135-.238-.242-.323-.107-.085-.234-.141-.37-.163-.2-.028-.403 0-.588.081-.185.081-.343.212-.457.379-.25.316-.559.717-.92 1.216-.334.52-.784.957-1.315 1.275-.428.244-.928.333-1.413.25-.319-.045-.623-.166-.886-.353-.263-.186-.478-.433-.626-.719-.33-.668-.419-1.43-.25-2.156zM9.416 28.622c.029-.117.083-.226.156-.321.074-.095.166-.174.271-.232.101-.065.215-.108.334-.126.119-.018.24-.011.356.021.176.047.335.146.455.283.12.137.197.308.22.489.023.181-.008.365-.089.529-.082.163-.21.299-.369.389-.102.064-.216.105-.335.122-.119.017-.24.009-.356-.024-.237-.063-.439-.218-.562-.43-.123-.212-.157-.464-.095-.701h.013zM4.65 21.614l7.888 2.8-.539 1.525-7.888-2.8.539-1.525zM12.249 20.707c.107-.219.296-.386.526-.467.113-.042.234-.061.355-.055.121.005.239.034.349.086.109.051.208.124.289.213.081.089.144.194.184.308.043.114.062.235.056.356-.005.121-.035.24-.087.35-.052.11-.126.208-.216.289-.091.081-.197.142-.312.181-.172.062-.358.072-.535.028-.177-.044-.338-.14-.46-.275-.123-.135-.202-.304-.229-.485-.026-.181.002-.365.08-.53zM13.162 7.862l4.207.92.151-4.299 1.144-.887 5.141 6.626-1.308.966-3.609-4.602h-.039l-.105 3.819-.178.138-3.727-.841h-.039l3.622 4.687-1.315.993-5.121-6.626 1.177-.894zM28.236.624l5.259 7.52-1.683.329-1.249-1.834-3.655.71-.408 2.163-1.67.322 1.775-8.894 1.63-.316zm-1.098 5.423l2.662-.519-2.031-2.984-.631 3.504zM39.457.013c.47.026.935.105 1.387.237.505.164.991.384 1.446.657l-.079 1.519c-.45-.3-.933-.547-1.44-.736-.424-.15-.866-.241-1.315-.27-.559-.035-1.118.064-1.63.289-.477.206-.884.546-1.17.979-.292.438-.46.947-.486 1.473-.033.527.076 1.054.316 1.525.243.458.613.837 1.065 1.091.491.271 1.038.424 1.598.447.442.022.886-.022 1.315-.131.558-.17 1.099-.39 1.617-.657l-.079 1.525c-.489.231-1.003.408-1.532.526-.529.1-1.067.133-1.604.099-.821-.031-1.623-.256-2.34-.657-.664-.375-1.205-.934-1.558-1.611-.365-.674-.534-1.437-.486-2.202.031-.801.286-1.578.736-2.242.439-.633 1.047-1.129 1.755-1.433.782-.341 1.634-.487 2.485-.427zM48.542 1.834l-1.387 3.247 4.01 1.709 1.38-3.247 1.492.657-3.287 7.718-1.492-.657 1.387-3.287-4.003-1.709-1.387 3.287-1.492-.657 3.287-7.718 1.492.657zM59.178 8.408l-5.673 6.179-1.209-1.098 5.68-6.179 1.203 1.098zM63.175 13.049l-2.524 7.264 5.049-2.965.802 1.367-7.231 4.253-.703-1.203 2.583-7.343-5.127 3.017-.789-1.367 7.231-4.227.71 1.203zM69.585 27.938l-1.209.375-1.118-3.635-2.103.657 1.065 3.484-1.216.368-1.065-3.477-2.281.697 1.144 3.714-1.216.375-1.611-5.259 8.02-2.459 1.591 5.16zM70.847 34.196c.146.687.033 1.403-.316 2.012-.168.275-.395.51-.664.687-.269.177-.575.293-.894.338-.444.089-.905.034-1.315-.158-.422-.205-.774-.53-1.012-.933-.101.294-.258.566-.46.802-.333.356-.698.679-1.091.966-.914.657-1.538 1.17-1.88 1.479l-.302-1.781c.249-.232.511-.452.782-.657.557-.41 1.092-.849 1.604-1.315.227-.206.412-.454.546-.73.091-.225.119-.471.079-.71l-.105-.585-3.491.605-.276-1.597 8.303-1.413.493 2.991zm-3.589.25c.041.359.214.69.487.927.127.103.276.175.436.211.159.036.325.036.484-.001.16-.016.315-.069.451-.156s.249-.204.331-.343c.157-.33.196-.703.112-1.058l-.171-.999-2.307.401.177 1.019zM71.78 40.849l-2.629 2.268 2.978 1.801.171 1.919-4.483-2.781-4.141.375-.145-1.617 4.155-.368 3.944-3.556.151 1.959zM45.965 85.964c-5.555 0-8.335 2.34-11.031 4.602-2.564 2.156-4.989 4.187-9.907 4.187-4.917 0-7.336-2.051-9.893-4.187l-.486-.408c2.205 2.659 4.986 4.781 8.132 6.206.747.1 1.501.15 2.255.151 5.555 0 8.342-2.34 11.037-4.602 2.564-2.156 4.989-4.187 9.9-4.187 4.911 0 7.336 2.031 9.92 4.187l.953.789c.44-.388.868-.795 1.315-1.223-.381-.302-.756-.618-1.131-.933-2.721-2.242-5.502-4.582-11.064-4.582zM45.965 77.267c-5.555 0-8.335 2.34-11.031 4.602-2.564 2.15-4.989 4.188-9.907 4.188-4.917 0-7.336-2.038-9.9-4.188-1.906-1.597-3.859-3.228-6.791-4.056.217.723.447 1.42.657 2.091 1.826.819 3.506 1.929 4.976 3.287 2.689 2.261 5.476 4.602 11.031 4.602 5.555 0 8.342-2.34 11.037-4.602 2.564-2.15 4.989-4.187 9.9-4.187 4.911 0 7.343 2.038 9.907 4.187 1.687 1.584 3.647 2.849 5.785 3.734.309-.5.611-1.019.901-1.558-2.274-.769-3.885-2.117-5.555-3.517-2.669-2.242-5.45-4.582-11.011-4.582zM57.627 72.495c-2.787-2.255-5.673-4.602-11.412-4.602-5.739 0-8.625 2.334-11.412 4.602-2.669 2.163-5.193 4.201-10.308 4.201-5.114 0-7.639-2.038-10.308-4.201-2.156-1.742-4.378-3.53-7.888-4.253.092.635.191 1.26.296 1.873 2.768.717 4.602 2.202 6.521 3.747 2.787 2.255 5.667 4.602 11.412 4.602 5.745 0 8.625-2.334 11.412-4.602 2.669-2.163 5.187-4.201 10.308-4.201 5.121 0 7.639 2.038 10.308 4.201 2.36 1.913 4.799 3.872 8.973 4.431.171-.559.342-1.124.506-1.709-3.898-.447-6.1-2.222-8.408-4.089zM34.698 98.31l-.73.605c.874.053 1.755.079 2.629.085 2.301-1.893 4.707-3.53 9.118-3.53 1.804-.039 3.596.303 5.259 1.006.673-.295 1.332-.624 1.972-.986-2.206-1.235-4.704-1.851-7.231-1.781-5.542 0-8.322 2.34-11.018 4.602zM17.764 58.815l17.664-7.987.16-.026.154.053.111.119.042.157v16.303l.046.175.132.124.178.035.169-.065c.348-.256.71-.506 1.078-.749l.112-.115.039-.155v-15.777l.047-.161.121-.117.163-.042.162.044 18.025 8.184.114.083.069.123.011.141-.05.133c-1.333 2.054-2.835 3.993-4.49 5.798l-.079.137-.004.158.072.141.13.09c.361.145.71.309 1.045.473.063.033.136.043.206.03.07-.013.134-.049.181-.102.592-.657 1.177-1.315 1.749-2.044 2.517-3.186 4.641-6.665 6.324-10.36l.204-.473c.032-.078.034-.165.005-.245-.029-.079-.087-.145-.163-.183l-11.833-5.864-.134-.121-.05-.174v-9.538c.001-.07-.022-.139-.063-.196-.041-.057-.1-.099-.167-.12l-3.169-1.032c-.067-.021-.126-.063-.167-.12-.041-.057-.064-.125-.063-.196v-9.742c0-.087-.035-.171-.096-.232-.062-.062-.145-.096-.232-.096h-7.534l-.128-.023-.109-.071-.073-.108-.026-.127v-6.876c0-.087-.035-.171-.096-.232-.062-.062-.145-.096-.232-.096h-1.098c-.087 0-.171.035-.233.096-.062.062-.096.145-.096.232v6.876c0 .087-.035.171-.096.232-.062.062-.145.096-.232.096h-7.08c-.087.002-.169.037-.231.098-.061.061-.096.144-.098.231v9.466c0 .07-.022.139-.063.196-.041.057-.1.099-.167.12l-3.734 1.163c-.067.021-.126.063-.167.12-.041.057-.064.125-.063.196v10.051l-.05.174-.134.122-11.274 5.666c-.074.038-.13.103-.158.181-.028.078-.026.164.007.24l.204.48c1.689 3.673 3.822 7.126 6.35 10.281 3.129 3.898 6.528 6.731 10.064 8.454l.135.029.135-.029c.465-.173.919-.373 1.361-.598l.139-.124.052-.179-.052-.179-.139-.124c-5.791-2.459-10.209-7.764-12.983-12.023l-.049-.133.011-.141.069-.123.114-.083zm20.221-31.771h5.778c.087 0 .171.035.232.096.062.062.096.145.096.232v7.192l-.035.151-.101.118-.144.059-.155-.014-5.778-1.88c-.067-.021-.126-.063-.167-.12-.041-.057-.063-.125-.063-.196v-5.312l.026-.127.073-.107.109-.071.128-.023zm.099 7.888l9.407 3.063c.067.021.126.063.167.12.041.057.063.125.063.196v7.06l-.041.162-.115.121-.16.049-.163-.037-9.407-4.654-.134-.121-.05-.174v-5.489l.038-.149.101-.117.142-.06.154.01v.02zm.059 8.191l21.036 10.432.104.075.066.11.017.127-.035.123c-.368.763-.947 1.9-1.729 3.215-.041.07-.107.122-.185.147-.078.024-.162.019-.236-.015l-19.333-8.75-.143-.122-.054-.18v-4.884l.047-.161.121-.117.163-.042.162.044zm-7.888-16.079h5.318c.087 0 .171.035.232.096.062.062.096.145.096.232v5.299c.001.07-.022.139-.063.196-.041.057-.1.099-.167.12l-5.325 1.657-.153.011-.141-.06-.099-.117-.035-.149v-6.955l.026-.127.073-.107.109-.071.128-.023zm-4.306 10.807l9.519-2.965.153-.011.141.06.099.117.035.149v5.739l-.051.174-.133.122-9.512 4.792-.163.032-.158-.049-.115-.119-.044-.16v-7.593c.005-.066.029-.129.07-.18.041-.052.097-.09.16-.109zm-11.175 15.843l20.641-10.347.163-.032.158.049.115.119.044.16v4.838l-.053.175-.137.121-18.959 8.546c-.075.035-.16.04-.239.016-.079-.024-.146-.077-.189-.147-.743-1.269-1.315-2.347-1.67-3.083-.034-.074-.038-.159-.011-.236.027-.077.083-.141.156-.178h-.02z" fill="#fff"/></svg>