<svg width="86" height="16" viewBox="0 0 86 16" xmlns="http://www.w3.org/2000/svg" fill="none"><path d="M12.742 12h-2.461v-4.563c0-1.161-.427-1.742-1.281-1.742-.406 0-.737.174-.992.523-.255.349-.383.784-.383 1.305v4.477h-2.469v-4.609c0-1.13-.419-1.695-1.258-1.695-.422 0-.76.167-1.016.5-.25.333-.375.786-.375 1.359v4.445h-2.469v-8h2.469v1.25h.031c.255-.427.612-.773 1.07-1.039.464-.271.969-.406 1.516-.406 1.13 0 1.904.497 2.32 1.492.609-.995 1.505-1.492 2.687-1.492 1.74 0 2.609 1.073 2.609 3.219v4.977zm10.421-3.297h-5.219c.083 1.161.815 1.742 2.195 1.742.88 0 1.654-.208 2.32-.625v1.781c-.74.396-1.701.594-2.883.594-1.292 0-2.294-.357-3.008-1.07-.714-.719-1.07-1.719-1.07-3 0-1.328.386-2.38 1.156-3.156.771-.776 1.719-1.164 2.844-1.164 1.167 0 2.068.346 2.703 1.039.641.693.961 1.633.961 2.82v1.039zm-2.289-1.516c0-1.146-.463-1.719-1.391-1.719-.396 0-.74.164-1.031.492-.286.328-.461.737-.523 1.227h2.945zm12.866 4.813h-2.469v-1.102h-.031c-.563.865-1.388 1.297-2.477 1.297-1 0-1.805-.351-2.414-1.055-.609-.708-.914-1.695-.914-2.961 0-1.323.336-2.383 1.008-3.18.672-.797 1.552-1.195 2.641-1.195 1.031 0 1.75.37 2.156 1.109h.031v-4.758h2.469v11.844zm-2.422-3.891v-.602c0-.521-.151-.953-.453-1.297-.302-.344-.695-.516-1.18-.516-.547 0-.974.216-1.281.648-.307.427-.461 1.016-.461 1.766 0 .703.148 1.245.445 1.625.297.38.708.57 1.234.57.5 0 .906-.2 1.219-.602.318-.401.477-.932.477-1.594zm7.03-5.375c-.417 0-.758-.122-1.023-.367-.266-.25-.398-.555-.398-.914 0-.37.133-.672.398-.906.266-.234.607-.352 1.023-.352.422 0 .763.117 1.023.352.266.234.398.536.398.906 0 .375-.133.682-.398.922-.261.24-.602.359-1.023.359zm1.219 9.266h-2.469v-8h2.469v8zm10.014 0h-2.336v-1.148h-.031c-.536.896-1.331 1.344-2.383 1.344-.776 0-1.388-.219-1.836-.656-.443-.443-.664-1.031-.664-1.766 0-1.552.919-2.448 2.758-2.688l2.172-.289c0-.875-.474-1.313-1.422-1.313-.953 0-1.859.284-2.719.852v-1.859c.344-.177.813-.333 1.406-.469.599-.135 1.143-.203 1.633-.203 2.281 0 3.422 1.138 3.422 3.414v4.781zm-2.32-3.25v-.539l-1.453.188c-.802.104-1.203.466-1.203 1.086 0 .281.096.513.289.695.198.177.464.266.797.266.464 0 .841-.159 1.133-.477.292-.323.438-.729.438-1.219zm12.475 2.32h-.031v.93h-2.469v-11.844h2.469v5.047h.031c.609-.932 1.477-1.398 2.602-1.398 1.031 0 1.825.354 2.383 1.063.557.708.836 1.677.836 2.906 0 1.333-.326 2.404-.977 3.211-.651.807-1.521 1.211-2.609 1.211-.984 0-1.729-.375-2.234-1.125zm-.07-3.375v.82c0 .516.149.943.445 1.281.297.339.677.508 1.141.508.563 0 .997-.216 1.305-.648.313-.438.469-1.055.469-1.852 0-.661-.143-1.177-.43-1.547-.281-.375-.685-.563-1.211-.563-.495 0-.906.185-1.234.555-.323.37-.484.852-.484 1.445zm15.428 4.305h-2.336v-1.148h-.031c-.537.896-1.331 1.344-2.383 1.344-.776 0-1.388-.219-1.836-.656-.443-.443-.664-1.031-.664-1.766 0-1.552.919-2.448 2.758-2.688l2.172-.289c0-.875-.474-1.313-1.422-1.313-.953 0-1.859.284-2.719.852v-1.859c.344-.177.813-.333 1.406-.469.599-.135 1.143-.203 1.633-.203 2.281 0 3.422 1.138 3.422 3.414v4.781zm-2.32-3.25v-.539l-1.453.188c-.802.104-1.203.466-1.203 1.086 0 .281.096.513.289.695.198.177.463.266.797.266.464 0 .841-.159 1.133-.477.292-.323.438-.729.438-1.219zm13.171-4.75l-3.25 8.641c-.781 2.078-1.958 3.117-3.531 3.117-.599 0-1.091-.068-1.477-.203v-1.969c.328.193.685.289 1.07.289.635 0 1.078-.3 1.328-.898l.422-.992-3.25-7.984h2.734l1.492 4.867c.094.302.167.659.219 1.07h.031c.047-.302.133-.654.258-1.055l1.508-4.883h2.445z" fill="#fff"/></svg>