<svg width="25" height="25" viewBox="0 0 25 25" fill="none" xmlns="http://www.w3.org/2000/svg">
<g clip-path="url(#clip0)">
<path d="M23.2901 15.1493L21.2066 12.6491C21.125 12.5577 21.0084 12.5055 20.8858 12.5055C20.7633 12.5055 20.6467 12.5577 20.5651 12.6491L18.4816 15.1493C18.3781 15.2736 18.3557 15.4467 18.4245 15.5932C18.4932 15.7395 18.6405 15.8331 18.8023 15.8327H19.465C18.8483 18.3455 16.6147 20.283 13.802 20.7331V9.999H17.5522C17.7825 9.999 17.9689 9.81242 17.9689 9.5823V7.91553C17.9689 7.68542 17.7825 7.49884 17.5522 7.49884H13.802V6.42374C15.2812 5.82556 16.129 4.26296 15.8242 2.6967C15.5194 1.13065 14.1475 0 12.5519 0C10.9565 0 9.58459 1.13065 9.2798 2.6967C8.97502 4.26296 9.82285 5.82556 11.3018 6.42374V7.49884H7.55159C7.32147 7.49884 7.13489 7.68542 7.13489 7.91553V9.5823C7.13489 9.81242 7.32147 9.999 7.55159 9.999H11.3018V20.7331C8.48915 20.283 6.25573 18.3455 5.63903 15.8327H6.30151C6.46347 15.8331 6.61077 15.7395 6.67954 15.5932C6.74831 15.4467 6.72593 15.2736 6.62237 15.1493L4.53891 12.6491C4.45732 12.5577 4.34073 12.5055 4.21805 12.5055C4.09556 12.5055 3.97898 12.5577 3.89739 12.6491L1.81392 15.1493C1.71036 15.2736 1.68798 15.4467 1.75675 15.5932C1.82552 15.7395 1.97283 15.8331 2.13458 15.8327H3.064C3.67236 19.7081 7.05168 22.7539 11.3018 23.2583V23.7499C11.3028 23.8603 11.346 23.9663 11.4227 24.0457L12.2561 24.8791C12.4205 25.0402 12.6835 25.0402 12.8479 24.8791L13.6813 24.0457C13.758 23.9663 13.8012 23.8603 13.802 23.7499V23.2583C18.0523 22.7539 21.4316 19.7081 22.04 15.8327H22.9692C23.1312 15.8331 23.2785 15.7395 23.3472 15.5932C23.416 15.4467 23.3936 15.2736 23.2901 15.1493ZM12.5519 4.58199C11.8615 4.58199 11.3018 4.02226 11.3018 3.33191C11.3018 2.64156 11.8615 2.08184 12.5519 2.08184C13.2425 2.08184 13.802 2.64156 13.802 3.33191C13.802 4.02226 13.2425 4.58199 12.5519 4.58199Z" fill="#16656A"/>
</g>
<defs>
<clipPath id="clip0">
<rect width="25" height="25" fill="white"/>
</clipPath>
</defs>
</svg>
