<?xml version="1.0" standalone="no"?>
<!DOCTYPE svg PUBLIC "-//W3C//DTD SVG 20010904//EN"
 "http://www.w3.org/TR/2001/REC-SVG-20010904/DTD/svg10.dtd">
<svg version="1.0" xmlns="http://www.w3.org/2000/svg"
 width="792.000000pt" height="792.000000pt" viewBox="0 0 792.000000 792.000000"
 preserveAspectRatio="xMidYMid meet">
<metadata>
Created by potrace 1.11, written by Peter Selinger 2001-2013
</metadata>
<g transform="translate(0.000000,792.000000) scale(0.100000,-0.100000)"
fill="#000000" stroke="none">
<path d="M4053 7904 c-178 -46 -284 -219 -248 -404 9 -45 58 -133 94 -167 106
-100 306 -129 462 -67 21 9 39 21 40 28 4 41 5 92 2 98 -2 4 -21 1 -41 -8
-101 -44 -210 -51 -289 -19 -40 16 -99 70 -122 112 -6 12 -12 49 -14 82 -13
207 197 308 415 201 32 -16 60 -25 62 -22 4 7 9 66 7 94 -1 20 -65 55 -132 73
-61 16 -172 16 -236 -1z"/>
<path d="M3223 7857 c-34 -6 -54 -16 -57 -26 -4 -14 -35 -169 -51 -251 -3 -14
-16 -81 -29 -150 -14 -69 -28 -140 -31 -159 -3 -19 -8 -37 -10 -41 -2 -3 -7
-27 -10 -52 l-6 -47 55 13 c30 7 57 11 60 9 8 -9 24 32 32 82 4 28 9 53 10 58
1 4 2 13 3 21 1 16 24 25 79 32 20 2 51 9 67 14 17 5 46 11 65 13 19 3 46 7
60 11 22 5 30 -2 74 -67 53 -79 51 -77 129 -59 4 1 16 2 27 2 11 0 20 5 20 11
0 9 -198 301 -233 344 -4 6 -39 55 -77 110 -38 55 -74 105 -79 112 -6 7 -11
17 -11 23 0 12 -15 11 -87 -3z m122 -263 c80 -116 80 -115 10 -129 -22 -5 -46
-9 -52 -11 -7 -1 -30 -5 -52 -9 -44 -7 -42 -13 -26 65 2 14 6 36 9 50 2 14 8
43 12 65 9 44 10 53 12 74 2 19 1 21 87 -105z"/>
<path d="M4791 7798 c-14 -37 -59 -143 -85 -200 -13 -29 -40 -91 -59 -138 -19
-47 -51 -122 -71 -168 l-36 -83 43 -19 c85 -36 77 -41 125 78 64 158 61 154
97 137 17 -8 84 -37 150 -65 66 -28 122 -56 126 -61 3 -6 -18 -66 -48 -135
-29 -68 -53 -126 -53 -129 0 -3 6 -5 13 -5 7 0 33 -9 56 -21 24 -11 47 -17 52
-12 4 4 22 42 39 83 18 41 38 89 45 105 32 70 163 382 169 401 5 17 -2 24 -44
43 -59 27 -78 23 -86 -19 -4 -16 -10 -30 -14 -30 -3 0 -7 -6 -7 -12 0 -7 -14
-43 -32 -81 -17 -37 -31 -72 -31 -77 0 -6 -2 -10 -5 -10 -7 0 -118 46 -165 68
-19 9 -39 17 -45 18 -5 1 -33 13 -61 26 l-51 24 49 114 c27 63 53 119 59 126
7 8 -6 19 -44 38 -66 32 -75 32 -86 4z"/>
<path d="M2483 7592 l-43 -37 -5 -165 c-4 -90 -7 -166 -9 -168 -2 -1 -65 11
-140 28 -203 45 -196 45 -234 11 -18 -17 -39 -32 -45 -34 -8 -2 1 -20 21 -46
19 -23 57 -72 85 -110 29 -37 104 -134 167 -216 63 -82 118 -153 121 -158 6
-9 109 60 109 73 0 3 -22 34 -50 68 -27 34 -50 66 -50 71 0 5 -4 11 -8 13 -4
2 -37 41 -72 88 -36 47 -73 94 -82 104 -10 11 -16 21 -14 23 2 3 70 -10 150
-28 80 -18 148 -30 151 -27 3 3 7 72 9 152 2 81 5 149 8 151 2 2 51 -57 108
-132 58 -75 120 -152 137 -172 18 -20 33 -39 33 -43 0 -18 28 -5 69 31 l43 38
-146 189 c-81 104 -153 196 -159 204 -7 8 -32 41 -57 73 -25 31 -47 57 -50 57
-3 0 -24 -17 -47 -38z"/>
<path d="M5579 7228 c-53 -57 -118 -127 -145 -157 -51 -56 -63 -70 -151 -164
-29 -31 -53 -60 -53 -64 0 -9 80 -83 90 -83 4 0 39 35 78 78 38 42 85 93 103
112 87 92 230 249 249 273 l21 27 -42 40 c-23 22 -45 40 -49 40 -3 0 -49 -46
-101 -102z"/>
<path d="M5955 6926 c-38 -23 -90 -54 -115 -68 -72 -41 -343 -200 -362 -213
-16 -11 -16 -14 3 -46 11 -19 22 -42 25 -51 4 -10 10 -18 15 -18 5 0 97 52
205 115 108 63 197 115 199 115 2 0 -23 -78 -57 -172 -151 -432 -143 -405
-129 -430 42 -79 42 -78 59 -68 53 33 89 54 107 64 11 6 31 19 45 27 42 27
242 144 290 170 25 13 51 30 58 37 7 6 18 12 23 12 6 0 17 6 24 14 12 12 9 21
-17 62 -16 27 -32 51 -34 53 -2 2 -21 -7 -41 -21 -21 -13 -45 -27 -53 -31 -8
-4 -28 -15 -45 -26 -16 -10 -46 -27 -65 -38 -19 -11 -70 -41 -112 -67 -43 -25
-78 -42 -78 -38 0 11 29 100 40 127 5 11 42 114 82 229 l72 209 -25 46 c-14
25 -30 46 -35 48 -5 1 -40 -17 -79 -41z"/>
<path d="M3916 6492 c-2 -4 -4 -135 -5 -291 0 -176 -3 -287 -10 -294 -6 -6
-119 -10 -298 -9 -169 0 -293 -4 -300 -10 -8 -6 -11 -112 -11 -393 0 -211 -3
-388 -6 -393 -6 -10 -54 -27 -219 -77 -48 -15 -93 -32 -100 -39 -9 -9 -12
-109 -11 -412 1 -219 -3 -407 -8 -416 -4 -9 -79 -52 -166 -96 -86 -43 -173
-87 -192 -97 -19 -11 -37 -19 -40 -20 -9 0 -105 -50 -110 -56 -3 -4 -12 -8
-20 -10 -8 -2 -101 -48 -207 -102 -175 -89 -191 -99 -185 -120 6 -24 110 -233
165 -332 80 -144 185 -301 320 -480 88 -117 299 -345 389 -420 183 -153 416
-305 467 -305 10 0 44 11 75 25 81 36 77 54 -21 101 -73 35 -192 102 -203 114
-3 3 -27 21 -55 39 -27 19 -52 37 -55 41 -3 3 -22 18 -43 33 -92 69 -244 220
-359 357 -113 134 -258 336 -258 359 0 22 3 24 365 186 33 14 78 35 100 45 22
10 159 72 305 138 146 66 351 159 455 206 105 47 201 86 213 86 20 0 22 -5 22
-57 1 -32 2 -335 3 -673 2 -565 3 -615 19 -618 19 -4 118 64 118 81 1 7 1 296
1 644 1 726 -9 665 103 613 37 -16 68 -30 70 -30 2 0 50 -22 107 -48 57 -27
125 -58 150 -70 26 -12 172 -78 325 -147 154 -70 304 -138 334 -152 30 -14 73
-33 95 -43 190 -83 303 -138 310 -150 6 -10 -79 -148 -123 -200 -7 -8 -44 -55
-82 -103 -38 -49 -89 -111 -114 -140 -26 -28 -46 -57 -46 -64 0 -13 89 -63
113 -63 7 0 27 17 44 38 17 20 40 46 50 57 36 39 181 231 229 305 27 41 52 77
57 78 4 2 7 8 7 13 0 4 13 28 29 51 84 126 261 469 261 506 0 16 -90 65 -485
261 -267 132 -485 246 -486 253 0 7 0 182 0 388 -1 206 -5 382 -9 390 -5 9
-26 22 -47 28 -21 7 -82 26 -135 43 l-98 31 -1 277 c0 152 0 335 1 408 0 118
-1 132 -17 137 -10 2 -154 4 -319 4 -166 0 -306 2 -312 6 -6 4 -10 106 -10
290 0 157 -3 290 -7 295 -7 12 -121 15 -129 3z m-11 -743 c7 -8 8 -446 1 -458
-3 -5 -27 -14 -53 -21 -27 -7 -52 -16 -58 -19 -5 -3 -14 -6 -20 -7 -5 -1 -77
-23 -160 -49 -105 -33 -155 -44 -165 -37 -13 8 -15 52 -16 293 0 156 3 289 7
295 9 11 452 14 464 3z m651 -1 c7 -5 10 -100 9 -305 -1 -164 -2 -301 -3 -305
-2 -10 -46 -10 -56 -1 -3 4 -12 8 -19 9 -15 3 -338 109 -394 130 l-42 15 0
222 c1 122 5 227 9 232 10 12 478 14 496 3z m-651 -628 c8 -12 9 -476 1 -488
-3 -5 -153 -82 -333 -173 -180 -90 -329 -167 -331 -171 -2 -5 -10 -8 -18 -8
-7 0 -28 -9 -46 -20 -45 -27 -78 -26 -79 3 0 12 -1 154 -1 315 0 236 2 296 13
306 8 7 75 31 149 54 74 22 194 59 265 82 72 22 139 43 150 45 11 3 61 18 110
35 100 33 111 34 120 20z m280 -28 c44 -14 85 -27 90 -28 6 -1 102 -32 215
-70 113 -37 210 -69 215 -70 31 -6 141 -48 146 -56 12 -18 6 -588 -6 -598 -11
-9 -149 56 -645 304 l-145 72 -2 234 c-1 240 1 258 37 244 8 -3 51 -17 95 -32z
m518 -925 c336 -167 719 -357 850 -422 241 -120 260 -134 222 -165 -8 -7 -15
-17 -15 -23 0 -17 -113 -219 -125 -223 -6 -3 -92 32 -191 77 -227 103 -281
127 -324 146 -19 9 -77 36 -128 59 -51 24 -95 44 -98 44 -2 0 -41 17 -87 39
-45 21 -116 53 -157 71 -41 18 -117 52 -168 76 -52 24 -95 44 -97 44 -2 0 -43
18 -92 41 -48 22 -108 50 -133 61 -83 37 -95 43 -102 52 -7 11 -9 406 -1 418
2 5 11 8 19 8 8 0 290 -137 627 -303z m-792 206 c1 -163 -2 -337 -8 -346 -4
-7 -61 -36 -83 -42 -6 -2 -66 -29 -165 -75 -38 -18 -108 -49 -155 -70 -47 -21
-115 -52 -153 -69 -37 -17 -72 -31 -77 -31 -6 0 -10 -5 -10 -12 0 -6 -3 -9 -6
-6 -3 3 -42 -11 -87 -32 -45 -21 -170 -77 -277 -125 -107 -48 -215 -96 -240
-107 -237 -108 -282 -127 -293 -122 -6 2 -17 14 -23 27 -27 54 -69 132 -75
137 -9 8 -49 95 -49 108 0 6 272 147 604 314 333 167 613 308 624 313 10 6 63
32 118 58 54 27 146 73 204 102 58 30 115 54 128 54 21 1 22 -3 23 -76z"/>
<path d="M2044 6286 c-38 -32 -41 -79 -7 -106 46 -36 105 -20 118 32 10 40 -3
68 -41 84 -42 18 -38 18 -70 -10z"/>
<path d="M1391 6134 c-11 -31 -19 -60 -16 -65 3 -4 20 -12 38 -18 18 -5 95
-32 172 -59 374 -134 407 -144 417 -134 5 5 11 16 12 23 2 8 8 26 14 41 15 36
7 55 -26 63 -28 6 -182 60 -217 75 -11 5 -47 18 -80 29 -33 11 -111 38 -174
60 -62 23 -115 41 -116 41 -1 0 -12 -25 -24 -56z"/>
<path d="M6380 6069 c-147 -47 -240 -75 -305 -94 -33 -10 -94 -29 -135 -43
-41 -14 -81 -25 -88 -25 -16 0 -14 -9 38 -177 21 -69 47 -152 57 -185 10 -33
23 -60 28 -59 31 4 76 18 81 25 3 5 1 24 -5 42 -60 194 -72 239 -68 250 4 10
46 26 112 42 6 2 22 6 36 10 23 6 26 3 38 -37 34 -117 65 -214 72 -221 4 -5
27 -3 52 5 l45 13 -19 60 c-11 33 -22 68 -24 78 -3 9 -7 25 -10 35 -2 9 -11
37 -18 62 l-14 45 56 17 c100 32 110 32 122 1 6 -16 12 -35 14 -43 7 -37 59
-196 65 -203 4 -5 28 -3 53 5 l44 13 -29 95 c-72 235 -99 320 -101 319 -1 0
-45 -14 -97 -30z"/>
<path d="M1832 5674 c-44 -18 -55 -76 -22 -112 29 -31 76 -29 106 4 30 32 30
55 0 92 -28 32 -41 34 -84 16z"/>
<path d="M1230 5443 c-9 -10 -25 -41 -37 -69 -75 -174 -17 -338 124 -348 82
-6 140 33 229 154 71 96 102 115 150 93 56 -27 55 -103 -1 -198 -14 -24 -36
-52 -50 -63 -31 -25 -32 -38 -2 -39 12 0 39 -4 59 -7 35 -7 39 -5 71 40 116
159 78 361 -75 402 -90 25 -173 -21 -253 -139 -76 -112 -119 -136 -163 -92
-21 21 -24 31 -20 71 4 42 32 118 48 132 15 13 39 60 32 64 -4 2 -27 7 -52 11
-37 5 -48 3 -60 -12z"/>
<path d="M6575 5409 c-22 -4 -56 -10 -75 -14 -20 -3 -47 -8 -60 -10 -14 -3
-40 -7 -59 -10 -18 -2 -41 -7 -50 -9 -9 -3 -38 -8 -66 -12 -72 -9 -81 -10
-174 -28 -46 -9 -85 -16 -88 -16 -2 0 -2 -4 1 -8 3 -5 8 -31 12 -58 7 -54 12
-67 23 -60 3 3 27 7 51 10 25 3 81 12 125 21 93 18 105 12 98 -52 -5 -49 -29
-79 -115 -149 -40 -33 -74 -62 -76 -66 -2 -5 -9 -8 -15 -8 -15 0 -40 -38 -33
-49 5 -7 16 -66 18 -98 2 -20 21 -15 53 15 17 15 46 39 65 52 68 47 121 95
142 128 l21 33 31 -29 c46 -43 70 -53 129 -51 105 4 178 85 178 198 0 33 -2
65 -6 70 -3 6 -8 27 -10 48 -4 41 -12 92 -21 136 -6 29 -15 31 -99 16z m16
-141 c0 -7 3 -22 6 -33 3 -11 6 -42 6 -68 0 -55 -20 -83 -68 -91 -66 -13 -112
37 -122 129 -5 47 -8 45 107 61 25 3 47 8 49 10 9 8 21 3 22 -8z"/>
<path d="M1669 4782 c-28 -14 -35 -23 -37 -54 -4 -50 29 -82 77 -74 57 9 81
71 44 113 -27 30 -47 33 -84 15z"/>
<path d="M6713 4758 c-53 -48 -129 -117 -148 -133 -6 -5 -32 -29 -56 -53 -53
-50 -39 -46 -279 -67 -95 -8 -105 -11 -104 -23 1 -7 2 -35 3 -63 l1 -51 83 6
c179 13 222 17 234 21 6 2 91 -45 189 -106 97 -60 179 -109 181 -109 9 0 -5
142 -14 149 -4 4 -55 36 -113 71 -58 35 -107 65 -110 67 -4 4 14 22 143 136
37 32 64 63 62 70 -2 7 -7 36 -9 66 -3 29 -7 56 -10 58 -3 3 -26 -15 -53 -39z"/>
<path d="M1089 4462 c-35 -75 -48 -139 -45 -226 5 -151 69 -257 193 -318 59
-29 76 -32 152 -33 73 0 95 4 143 27 127 59 200 185 198 340 -1 92 -3 107 -24
171 -16 50 -22 57 -45 58 -14 0 -41 2 -58 3 -26 3 -33 0 -33 -13 0 -10 3 -21
7 -25 16 -16 34 -86 38 -146 12 -168 -86 -284 -237 -282 -197 3 -286 225 -172
431 13 24 22 46 20 48 -2 2 -29 6 -59 8 l-55 4 -23 -47z"/>
<path d="M4608 2485 c-2 -1 -28 -5 -59 -8 -48 -6 -78 -11 -164 -31 -89 -21
-244 -95 -350 -166 -41 -28 -132 -96 -202 -152 -200 -159 -283 -212 -438 -279
-18 -8 -120 -35 -170 -45 -44 -9 -155 -18 -230 -18 -196 1 -350 35 -497 111
-58 29 -187 113 -209 136 -8 8 -19 16 -25 18 -6 2 -31 21 -55 41 -248 209
-435 316 -633 362 l-29 7 6 -61 c9 -80 17 -93 70 -107 43 -12 172 -70 212 -95
82 -53 121 -82 256 -189 184 -145 245 -188 346 -239 166 -84 340 -123 548
-124 155 -1 229 7 360 38 97 23 232 83 332 148 37 25 143 104 236 177 92 73
202 154 245 180 69 43 209 107 251 116 9 2 37 8 63 14 107 25 344 34 438 17
19 -4 42 -7 50 -8 22 -1 107 -23 165 -43 124 -42 279 -141 485 -310 204 -167
401 -270 579 -302 85 -15 92 -12 112 42 28 79 28 78 -56 90 -22 4 -49 9 -60
13 -11 3 -22 6 -25 7 -83 15 -306 129 -385 197 -182 155 -402 309 -518 362
-77 35 -221 78 -307 92 -43 6 -336 14 -342 9z"/>
<path d="M4599 1736 c-2 -2 -29 -6 -59 -10 -92 -10 -122 -17 -200 -42 -103
-34 -218 -94 -313 -162 -43 -31 -89 -64 -100 -72 -12 -8 -33 -26 -47 -40 -14
-14 -56 -50 -95 -80 -38 -30 -72 -57 -75 -60 -16 -18 -115 -83 -181 -118 -145
-80 -295 -114 -499 -115 -238 0 -436 67 -634 217 -50 38 -96 74 -102 80 -7 6
-29 25 -50 43 -22 17 -52 43 -69 57 -66 58 -185 137 -277 185 -54 28 -101 51
-105 51 -5 0 -23 5 -41 11 -18 6 -36 9 -38 6 -3 -2 4 -32 16 -66 11 -33 20
-66 20 -74 0 -7 35 -31 77 -53 110 -56 236 -142 307 -209 12 -11 44 -38 71
-60 28 -22 57 -46 65 -52 142 -119 345 -220 495 -249 22 -4 45 -8 50 -9 80
-17 269 -23 373 -11 192 20 361 83 521 194 71 49 87 62 255 200 285 235 468
305 781 297 170 -4 241 -18 375 -71 46 -18 181 -92 190 -103 3 -4 30 -24 60
-46 30 -22 57 -42 60 -45 20 -24 227 -190 282 -226 69 -46 235 -134 253 -134
8 0 57 75 73 113 2 4 -14 14 -35 23 -101 40 -210 108 -333 208 -41 33 -77 63
-80 66 -14 16 -242 190 -250 190 -5 0 -25 11 -45 24 -32 22 -166 82 -204 92
-70 17 -141 34 -166 39 -31 7 -320 16 -326 11z"/>
<path d="M4657 1043 c-1 -1 -31 -4 -67 -6 -137 -11 -280 -50 -393 -108 -54
-27 -223 -133 -237 -148 -10 -11 -175 -148 -245 -202 -143 -112 -290 -185
-438 -216 -87 -18 -344 -24 -422 -10 -22 4 -50 10 -62 11 -72 12 -228 81 -318
140 -51 33 -190 138 -205 155 -3 4 -14 13 -25 21 -19 14 -19 14 -5 -5 57 -75
221 -221 341 -304 138 -96 264 -158 334 -166 143 -15 304 -4 440 31 205 52
339 133 629 380 123 104 267 191 383 230 125 42 205 53 368 49 172 -4 167 -4
220 -17 22 -6 47 -11 55 -13 134 -27 332 -148 529 -322 20 -18 41 -33 46 -33
6 0 32 20 59 45 41 37 46 46 35 57 -15 14 -143 121 -169 141 -200 156 -360
234 -558 272 -53 10 -289 25 -295 18z"/>
<path d="M4627 424 c-1 -1 -33 -4 -71 -8 -37 -3 -87 -11 -110 -16 -22 -5 -52
-11 -66 -14 -14 -3 -41 -10 -60 -17 -50 -17 -64 -22 -70 -24 -24 -6 -164 -85
-222 -124 -83 -57 -258 -198 -258 -209 0 -4 45 -8 100 -10 89 -3 102 -1 122
18 30 28 153 112 208 142 251 136 573 159 863 60 l58 -20 69 34 c37 18 71 37
74 42 10 16 -143 81 -265 112 -41 11 -111 22 -155 26 -75 6 -213 11 -217 8z"/>
</g>
</svg>
